<svg width="316" height="326" viewBox="0 0 316 326" fill="none" xmlns="http://www.w3.org/2000/svg">
<rect x="0.5" y="0.5" width="315" height="325" rx="18.5" fill="white" stroke="#CFD0E8"/>
<path d="M35.5821 28.8C37.1074 28.8 38.3714 29.344 39.3741 30.432C40.3874 31.5093 40.8941 32.832 40.8941 34.4C40.8941 35.968 40.3874 37.296 39.3741 38.384C38.3714 39.4613 37.1074 40 35.5821 40H31.2141V28.8H35.5821ZM35.5821 38.592C36.7234 38.592 37.6567 38.192 38.3821 37.392C39.1074 36.592 39.4701 35.5947 39.4701 34.4C39.4701 33.2053 39.1074 32.208 38.3821 31.408C37.6567 30.608 36.7234 30.208 35.5821 30.208H32.7021V38.592H35.5821ZM48.2784 32H49.6704V40H48.2784V38.624C47.5851 39.68 46.5771 40.208 45.2544 40.208C44.1344 40.208 43.1798 39.8027 42.3904 38.992C41.6011 38.1707 41.2064 37.1733 41.2064 36C41.2064 34.8267 41.6011 33.8347 42.3904 33.024C43.1798 32.2027 44.1344 31.792 45.2544 31.792C46.5771 31.792 47.5851 32.32 48.2784 33.376V32ZM45.4304 38.864C46.2411 38.864 46.9184 38.592 47.4624 38.048C48.0064 37.4933 48.2784 36.8107 48.2784 36C48.2784 35.1893 48.0064 34.512 47.4624 33.968C46.9184 33.4133 46.2411 33.136 45.4304 33.136C44.6304 33.136 43.9584 33.4133 43.4144 33.968C42.8704 34.512 42.5984 35.1893 42.5984 36C42.5984 36.8107 42.8704 37.4933 43.4144 38.048C43.9584 38.592 44.6304 38.864 45.4304 38.864ZM56.4634 32H57.9514L54.6874 40.496C54.3461 41.4027 53.8661 42.0907 53.2474 42.56C52.6394 43.04 51.9354 43.2533 51.1354 43.2V41.904C52.1168 41.9787 52.8368 41.4347 53.2954 40.272L53.4394 39.968L49.9514 32H51.4394L54.1594 38.272L56.4634 32ZM58.9138 34.16C58.9138 34.4693 59.0685 34.72 59.3778 34.912C59.6871 35.0933 60.0605 35.2427 60.4978 35.36C60.9351 35.4667 61.3725 35.5947 61.8098 35.744C62.2471 35.8827 62.6205 36.128 62.9298 36.48C63.2391 36.8213 63.3938 37.264 63.3938 37.808C63.3938 38.5333 63.1111 39.1147 62.5458 39.552C61.9911 39.9893 61.2765 40.208 60.4018 40.208C59.6231 40.208 58.9565 40.0373 58.4018 39.696C57.8471 39.3547 57.4525 38.9013 57.2178 38.336L58.4178 37.648C58.5458 38.032 58.7858 38.336 59.1378 38.56C59.4898 38.784 59.9111 38.896 60.4018 38.896C60.8605 38.896 61.2391 38.8107 61.5378 38.64C61.8365 38.4587 61.9858 38.1813 61.9858 37.808C61.9858 37.4987 61.8311 37.2533 61.5218 37.072C61.2125 36.88 60.8391 36.7307 60.4018 36.624C59.9645 36.5067 59.5271 36.3733 59.0898 36.224C58.6525 36.0747 58.2791 35.8293 57.9698 35.488C57.6605 35.1467 57.5058 34.7093 57.5058 34.176C57.5058 33.4827 57.7725 32.912 58.3058 32.464C58.8498 32.016 59.5271 31.792 60.3378 31.792C60.9885 31.792 61.5645 31.9413 62.0658 32.24C62.5778 32.528 62.9618 32.9333 63.2178 33.456L62.0498 34.112C61.7618 33.4293 61.1911 33.088 60.3378 33.088C59.9431 33.088 59.6071 33.184 59.3298 33.376C59.0525 33.5573 58.9138 33.8187 58.9138 34.16Z" fill="#191C2C"/>
<path d="M36.8924 83V80.84L42.7484 74.864C44.1724 73.44 44.8844 72.208 44.8844 71.168C44.8844 70.352 44.6364 69.72 44.1404 69.272C43.6604 68.808 43.0444 68.576 42.2924 68.576C40.8844 68.576 39.8444 69.272 39.1724 70.664L36.8444 69.296C37.3724 68.176 38.1164 67.328 39.0764 66.752C40.0364 66.176 41.1004 65.888 42.2684 65.888C43.7404 65.888 45.0044 66.352 46.0604 67.28C47.1164 68.208 47.6444 69.472 47.6444 71.072C47.6444 72.784 46.6924 74.608 44.7884 76.544L40.9964 80.336H47.9564V83H36.8924Z" fill="#8A95D6"/>
<path d="M44.0474 135.752C45.6687 136.136 46.9807 136.893 47.9834 138.024C49.0074 139.133 49.5194 140.531 49.5194 142.216C49.5194 144.456 48.762 146.216 47.2474 147.496C45.7327 148.776 43.8767 149.416 41.6794 149.416C39.9727 149.416 38.4367 149.021 37.0714 148.232C35.7274 147.443 34.7567 146.291 34.1594 144.776L37.2954 142.952C37.9567 144.872 39.418 145.832 41.6794 145.832C42.9594 145.832 43.9727 145.512 44.7194 144.872C45.466 144.211 45.8394 143.325 45.8394 142.216C45.8394 141.107 45.466 140.232 44.7194 139.592C43.9727 138.952 42.9594 138.632 41.6794 138.632H40.8474L39.3754 136.424L44.2074 130.056H34.8314V126.6H48.5914V129.736L44.0474 135.752Z" fill="#191C2C"/>
<path d="M49.5511 197.408V199.976H47.6311V203H44.8471V199.976H36.5911V197.408L42.3751 186.2H45.3751L39.5911 197.408H44.8471V193.04H47.6311V197.408H49.5511Z" fill="#8A95D6"/>
<path d="M43.0609 248.536C44.6609 248.536 46.0129 249.016 47.1169 249.976C48.2209 250.92 48.7729 252.232 48.7729 253.912C48.7729 255.592 48.2049 256.912 47.0689 257.872C45.9329 258.832 44.5409 259.312 42.8929 259.312C41.5649 259.312 40.3889 259.008 39.3649 258.4C38.3409 257.776 37.6129 256.88 37.1809 255.712L39.5569 254.344C40.0049 255.864 41.1169 256.624 42.8929 256.624C43.8369 256.624 44.5889 256.384 45.1489 255.904C45.7249 255.408 46.0129 254.744 46.0129 253.912C46.0129 253.08 45.7329 252.424 45.1729 251.944C44.6129 251.464 43.8689 251.224 42.9409 251.224H38.0449L38.6929 242.2H48.0529V244.792H41.2369L40.9489 248.536H43.0609Z" fill="#8A95D6"/>
<path d="M142.699 28.8V40H141.227V31.248L137.563 37.344H137.371L133.707 31.264V40H132.219V28.8H133.899L137.467 34.72L141.019 28.8H142.699ZM150.802 38.992C149.98 39.8027 148.983 40.208 147.81 40.208C146.636 40.208 145.639 39.8027 144.818 38.992C144.007 38.1813 143.602 37.184 143.602 36C143.602 34.816 144.007 33.8187 144.818 33.008C145.639 32.1973 146.636 31.792 147.81 31.792C148.983 31.792 149.98 32.1973 150.802 33.008C151.623 33.8187 152.034 34.816 152.034 36C152.034 37.184 151.623 38.1813 150.802 38.992ZM147.81 38.848C148.61 38.848 149.282 38.576 149.826 38.032C150.37 37.488 150.642 36.8107 150.642 36C150.642 35.1893 150.37 34.512 149.826 33.968C149.282 33.424 148.61 33.152 147.81 33.152C147.02 33.152 146.354 33.424 145.81 33.968C145.266 34.512 144.994 35.1893 144.994 36C144.994 36.8107 145.266 37.488 145.81 38.032C146.354 38.576 147.02 38.848 147.81 38.848ZM156.759 31.792C157.697 31.792 158.449 32.0907 159.015 32.688C159.58 33.2747 159.863 34.0747 159.863 35.088V40H158.471V35.168C158.471 34.5173 158.295 34.016 157.943 33.664C157.591 33.3013 157.105 33.12 156.487 33.12C155.793 33.12 155.233 33.3387 154.807 33.776C154.38 34.2027 154.167 34.864 154.167 35.76V40H152.775V32H154.167V33.152C154.732 32.2453 155.596 31.792 156.759 31.792ZM165.258 33.344H163.13V37.68C163.13 38.0747 163.205 38.3573 163.354 38.528C163.514 38.688 163.754 38.7733 164.074 38.784C164.394 38.784 164.789 38.7733 165.258 38.752V40C164.042 40.16 163.151 40.064 162.586 39.712C162.021 39.3493 161.738 38.672 161.738 37.68V33.344H160.154V32H161.738V30.176L163.13 29.76V32H165.258V33.344ZM169.99 31.792C170.929 31.792 171.681 32.0907 172.246 32.688C172.811 33.2747 173.094 34.0747 173.094 35.088V40H171.702V35.168C171.702 34.5173 171.526 34.016 171.174 33.664C170.822 33.3013 170.337 33.12 169.718 33.12C169.025 33.12 168.465 33.3387 168.038 33.776C167.611 34.2027 167.398 34.864 167.398 35.76V40H166.006V28.8H167.398V33.152C167.963 32.2453 168.827 31.792 169.99 31.792Z" fill="#191C2C"/>
<path d="M141.892 83V80.84L147.748 74.864C149.172 73.44 149.884 72.208 149.884 71.168C149.884 70.352 149.636 69.72 149.14 69.272C148.66 68.808 148.044 68.576 147.292 68.576C145.884 68.576 144.844 69.272 144.172 70.664L141.844 69.296C142.372 68.176 143.116 67.328 144.076 66.752C145.036 66.176 146.1 65.888 147.268 65.888C148.74 65.888 150.004 66.352 151.06 67.28C152.116 68.208 152.644 69.472 152.644 71.072C152.644 72.784 151.692 74.608 149.788 76.544L145.996 80.336H152.956V83H141.892Z" fill="#8A95D6"/>
<path d="M149.047 135.752C150.669 136.136 151.981 136.893 152.983 138.024C154.007 139.133 154.519 140.531 154.519 142.216C154.519 144.456 153.762 146.216 152.247 147.496C150.733 148.776 148.877 149.416 146.679 149.416C144.973 149.416 143.437 149.021 142.071 148.232C140.727 147.443 139.757 146.291 139.159 144.776L142.295 142.952C142.957 144.872 144.418 145.832 146.679 145.832C147.959 145.832 148.973 145.512 149.719 144.872C150.466 144.211 150.839 143.325 150.839 142.216C150.839 141.107 150.466 140.232 149.719 139.592C148.973 138.952 147.959 138.632 146.679 138.632H145.847L144.375 136.424L149.207 130.056H139.831V126.6H153.591V129.736L149.047 135.752Z" fill="#191C2C"/>
<path d="M154.551 197.408V199.976H152.631V203H149.847V199.976H141.591V197.408L147.375 186.2H150.375L144.591 197.408H149.847V193.04H152.631V197.408H154.551Z" fill="#8A95D6"/>
<path d="M148.061 248.536C149.661 248.536 151.013 249.016 152.117 249.976C153.221 250.92 153.773 252.232 153.773 253.912C153.773 255.592 153.205 256.912 152.069 257.872C150.933 258.832 149.541 259.312 147.893 259.312C146.565 259.312 145.389 259.008 144.365 258.4C143.341 257.776 142.613 256.88 142.181 255.712L144.557 254.344C145.005 255.864 146.117 256.624 147.893 256.624C148.837 256.624 149.589 256.384 150.149 255.904C150.725 255.408 151.013 254.744 151.013 253.912C151.013 253.08 150.733 252.424 150.173 251.944C149.613 251.464 148.869 251.224 147.941 251.224H143.045L143.693 242.2H153.053V244.792H146.237L145.949 248.536H148.061Z" fill="#8A95D6"/>
<path d="M256.011 28.8L252.043 35.472V40H250.555V35.456L246.603 28.8H248.267L251.307 34.048L254.347 28.8H256.011ZM255.67 36.64C255.808 37.3547 256.134 37.9093 256.646 38.304C257.168 38.6987 257.808 38.896 258.566 38.896C259.622 38.896 260.39 38.5067 260.87 37.728L262.054 38.4C261.275 39.6053 260.102 40.208 258.534 40.208C257.264 40.208 256.23 39.8133 255.43 39.024C254.64 38.224 254.246 37.216 254.246 36C254.246 34.7947 254.635 33.792 255.414 32.992C256.192 32.192 257.2 31.792 258.438 31.792C259.611 31.792 260.566 32.208 261.302 33.04C262.048 33.8613 262.422 34.8533 262.422 36.016C262.422 36.2187 262.406 36.4267 262.374 36.64H255.67ZM258.438 33.104C257.691 33.104 257.072 33.3173 256.582 33.744C256.091 34.16 255.787 34.72 255.67 35.424H261.014C260.896 34.6667 260.598 34.0907 260.118 33.696C259.638 33.3013 259.078 33.104 258.438 33.104ZM269.73 32H271.122V40H269.73V38.624C269.037 39.68 268.029 40.208 266.706 40.208C265.586 40.208 264.631 39.8027 263.842 38.992C263.053 38.1707 262.658 37.1733 262.658 36C262.658 34.8267 263.053 33.8347 263.842 33.024C264.631 32.2027 265.586 31.792 266.706 31.792C268.029 31.792 269.037 32.32 269.73 33.376V32ZM266.882 38.864C267.693 38.864 268.37 38.592 268.914 38.048C269.458 37.4933 269.73 36.8107 269.73 36C269.73 35.1893 269.458 34.512 268.914 33.968C268.37 33.4133 267.693 33.136 266.882 33.136C266.082 33.136 265.41 33.4133 264.866 33.968C264.322 34.512 264.05 35.1893 264.05 36C264.05 36.8107 264.322 37.4933 264.866 38.048C265.41 38.592 266.082 38.864 266.882 38.864ZM273.723 33.344C274.182 32.352 275.014 31.856 276.219 31.856V33.312C275.536 33.28 274.95 33.4613 274.459 33.856C273.968 34.2507 273.723 34.8853 273.723 35.76V40H272.331V32H273.723V33.344Z" fill="#191C2C"/>
<path d="M231.774 83V80.84L237.63 74.864C239.054 73.44 239.766 72.208 239.766 71.168C239.766 70.352 239.518 69.72 239.022 69.272C238.542 68.808 237.926 68.576 237.174 68.576C235.766 68.576 234.726 69.272 234.054 70.664L231.726 69.296C232.254 68.176 232.998 67.328 233.958 66.752C234.918 66.176 235.982 65.888 237.15 65.888C238.622 65.888 239.886 66.352 240.942 67.28C241.998 68.208 242.526 69.472 242.526 71.072C242.526 72.784 241.574 74.608 239.67 76.544L235.878 80.336H242.838V83H231.774ZM255.006 80.936C253.854 82.52 252.238 83.312 250.158 83.312C248.078 83.312 246.454 82.52 245.286 80.936C244.134 79.352 243.558 77.24 243.558 74.6C243.558 71.96 244.134 69.848 245.286 68.264C246.454 66.68 248.078 65.888 250.158 65.888C252.238 65.888 253.854 66.68 255.006 68.264C256.174 69.848 256.758 71.96 256.758 74.6C256.758 77.24 256.174 79.352 255.006 80.936ZM250.158 80.624C251.406 80.624 252.358 80.104 253.014 79.064C253.67 78.024 253.998 76.536 253.998 74.6C253.998 72.664 253.67 71.176 253.014 70.136C252.358 69.096 251.406 68.576 250.158 68.576C248.926 68.576 247.974 69.096 247.302 70.136C246.646 71.176 246.318 72.664 246.318 74.6C246.318 76.536 246.646 78.024 247.302 79.064C247.974 80.104 248.926 80.624 250.158 80.624ZM257.208 83V80.84L263.064 74.864C264.488 73.44 265.2 72.208 265.2 71.168C265.2 70.352 264.952 69.72 264.456 69.272C263.976 68.808 263.36 68.576 262.608 68.576C261.2 68.576 260.16 69.272 259.488 70.664L257.16 69.296C257.688 68.176 258.432 67.328 259.392 66.752C260.352 66.176 261.416 65.888 262.584 65.888C264.056 65.888 265.32 66.352 266.376 67.28C267.432 68.208 267.96 69.472 267.96 71.072C267.96 72.784 267.008 74.608 265.104 76.544L261.312 80.336H268.272V83H257.208ZM269.011 83V80.84L274.867 74.864C276.291 73.44 277.003 72.208 277.003 71.168C277.003 70.352 276.755 69.72 276.259 69.272C275.779 68.808 275.163 68.576 274.411 68.576C273.003 68.576 271.963 69.272 271.291 70.664L268.963 69.296C269.491 68.176 270.235 67.328 271.195 66.752C272.155 66.176 273.219 65.888 274.387 65.888C275.859 65.888 277.123 66.352 278.179 67.28C279.235 68.208 279.763 69.472 279.763 71.072C279.763 72.784 278.811 74.608 276.907 76.544L273.115 80.336H280.075V83H269.011Z" fill="#8A95D6"/>
<path d="M226.42 149V146.12L234.228 138.152C236.127 136.253 237.076 134.611 237.076 133.224C237.076 132.136 236.745 131.293 236.084 130.696C235.444 130.077 234.623 129.768 233.62 129.768C231.743 129.768 230.356 130.696 229.46 132.552L226.356 130.728C227.06 129.235 228.052 128.104 229.332 127.336C230.612 126.568 232.031 126.184 233.588 126.184C235.551 126.184 237.236 126.803 238.644 128.04C240.052 129.277 240.756 130.963 240.756 133.096C240.756 135.379 239.487 137.811 236.948 140.392L231.892 145.448H241.172V149H226.42ZM257.697 146.248C256.161 148.36 254.006 149.416 251.233 149.416C248.46 149.416 246.294 148.36 244.737 146.248C243.201 144.136 242.433 141.32 242.433 137.8C242.433 134.28 243.201 131.464 244.737 129.352C246.294 127.24 248.46 126.184 251.233 126.184C254.006 126.184 256.161 127.24 257.697 129.352C259.254 131.464 260.033 134.28 260.033 137.8C260.033 141.32 259.254 144.136 257.697 146.248ZM251.233 145.832C252.897 145.832 254.166 145.139 255.041 143.752C255.916 142.365 256.353 140.381 256.353 137.8C256.353 135.219 255.916 133.235 255.041 131.848C254.166 130.461 252.897 129.768 251.233 129.768C249.59 129.768 248.321 130.461 247.425 131.848C246.55 133.235 246.113 135.219 246.113 137.8C246.113 140.381 246.55 142.365 247.425 143.752C248.321 145.139 249.59 145.832 251.233 145.832ZM260.933 149V146.12L268.741 138.152C270.639 136.253 271.589 134.611 271.589 133.224C271.589 132.136 271.258 131.293 270.597 130.696C269.957 130.077 269.135 129.768 268.133 129.768C266.255 129.768 264.869 130.696 263.973 132.552L260.869 130.728C261.573 129.235 262.565 128.104 263.845 127.336C265.125 126.568 266.543 126.184 268.101 126.184C270.063 126.184 271.749 126.803 273.157 128.04C274.565 129.277 275.269 130.963 275.269 133.096C275.269 135.379 273.999 137.811 271.461 140.392L266.405 145.448H275.685V149H260.933ZM281.97 126.6H285.17V149H281.49V130.536L276.978 131.816L276.082 128.68L281.97 126.6Z" fill="#191C2C"/>
<path d="M232.184 203V200.84L238.04 194.864C239.464 193.44 240.176 192.208 240.176 191.168C240.176 190.352 239.928 189.72 239.432 189.272C238.952 188.808 238.336 188.576 237.584 188.576C236.176 188.576 235.136 189.272 234.464 190.664L232.136 189.296C232.664 188.176 233.408 187.328 234.368 186.752C235.328 186.176 236.392 185.888 237.56 185.888C239.032 185.888 240.296 186.352 241.352 187.28C242.408 188.208 242.936 189.472 242.936 191.072C242.936 192.784 241.984 194.608 240.08 196.544L236.288 200.336H243.248V203H232.184ZM255.417 200.936C254.265 202.52 252.649 203.312 250.569 203.312C248.489 203.312 246.865 202.52 245.697 200.936C244.545 199.352 243.969 197.24 243.969 194.6C243.969 191.96 244.545 189.848 245.697 188.264C246.865 186.68 248.489 185.888 250.569 185.888C252.649 185.888 254.265 186.68 255.417 188.264C256.585 189.848 257.169 191.96 257.169 194.6C257.169 197.24 256.585 199.352 255.417 200.936ZM250.569 200.624C251.817 200.624 252.769 200.104 253.425 199.064C254.081 198.024 254.409 196.536 254.409 194.6C254.409 192.664 254.081 191.176 253.425 190.136C252.769 189.096 251.817 188.576 250.569 188.576C249.337 188.576 248.385 189.096 247.713 190.136C247.057 191.176 246.729 192.664 246.729 194.6C246.729 196.536 247.057 198.024 247.713 199.064C248.385 200.104 249.337 200.624 250.569 200.624ZM257.618 203V200.84L263.474 194.864C264.898 193.44 265.61 192.208 265.61 191.168C265.61 190.352 265.362 189.72 264.866 189.272C264.386 188.808 263.77 188.576 263.018 188.576C261.61 188.576 260.57 189.272 259.898 190.664L257.57 189.296C258.098 188.176 258.842 187.328 259.802 186.752C260.762 186.176 261.826 185.888 262.994 185.888C264.466 185.888 265.73 186.352 266.786 187.28C267.842 188.208 268.37 189.472 268.37 191.072C268.37 192.784 267.418 194.608 265.514 196.544L261.722 200.336H268.682V203H257.618ZM280.851 200.936C279.699 202.52 278.083 203.312 276.003 203.312C273.923 203.312 272.299 202.52 271.131 200.936C269.979 199.352 269.403 197.24 269.403 194.6C269.403 191.96 269.979 189.848 271.131 188.264C272.299 186.68 273.923 185.888 276.003 185.888C278.083 185.888 279.699 186.68 280.851 188.264C282.019 189.848 282.603 191.96 282.603 194.6C282.603 197.24 282.019 199.352 280.851 200.936ZM276.003 200.624C277.251 200.624 278.203 200.104 278.859 199.064C279.515 198.024 279.843 196.536 279.843 194.6C279.843 192.664 279.515 191.176 278.859 190.136C278.203 189.096 277.251 188.576 276.003 188.576C274.771 188.576 273.819 189.096 273.147 190.136C272.491 191.176 272.163 192.664 272.163 194.6C272.163 196.536 272.491 198.024 273.147 199.064C273.819 200.104 274.771 200.624 276.003 200.624Z" fill="#8A95D6"/>
<path d="M235.032 259V256.84L240.888 250.864C242.312 249.44 243.024 248.208 243.024 247.168C243.024 246.352 242.776 245.72 242.28 245.272C241.8 244.808 241.184 244.576 240.432 244.576C239.024 244.576 237.984 245.272 237.312 246.664L234.984 245.296C235.512 244.176 236.256 243.328 237.216 242.752C238.176 242.176 239.24 241.888 240.408 241.888C241.88 241.888 243.144 242.352 244.2 243.28C245.256 244.208 245.784 245.472 245.784 247.072C245.784 248.784 244.832 250.608 242.928 252.544L239.136 256.336H246.096V259H235.032ZM258.264 256.936C257.112 258.52 255.496 259.312 253.416 259.312C251.336 259.312 249.712 258.52 248.544 256.936C247.392 255.352 246.816 253.24 246.816 250.6C246.816 247.96 247.392 245.848 248.544 244.264C249.712 242.68 251.336 241.888 253.416 241.888C255.496 241.888 257.112 242.68 258.264 244.264C259.432 245.848 260.016 247.96 260.016 250.6C260.016 253.24 259.432 255.352 258.264 256.936ZM253.416 256.624C254.664 256.624 255.616 256.104 256.272 255.064C256.928 254.024 257.256 252.536 257.256 250.6C257.256 248.664 256.928 247.176 256.272 246.136C255.616 245.096 254.664 244.576 253.416 244.576C252.184 244.576 251.232 245.096 250.56 246.136C249.904 247.176 249.576 248.664 249.576 250.6C249.576 252.536 249.904 254.024 250.56 255.064C251.232 256.104 252.184 256.624 253.416 256.624ZM264.333 242.2H266.733V259H263.973V245.152L260.589 246.112L259.917 243.76L264.333 242.2ZM280.114 247.624C280.114 248.904 279.778 250.032 279.106 251.008L273.802 259H270.634L274.474 253.36H274.186C272.442 253.36 271.01 252.832 269.89 251.776C268.786 250.704 268.234 249.32 268.234 247.624C268.234 245.928 268.786 244.552 269.89 243.496C271.01 242.424 272.442 241.888 274.186 241.888C275.93 241.888 277.354 242.424 278.458 243.496C279.562 244.552 280.114 245.928 280.114 247.624ZM270.994 247.624C270.994 248.552 271.29 249.304 271.882 249.88C272.49 250.456 273.258 250.744 274.186 250.744C275.114 250.744 275.874 250.464 276.466 249.904C277.058 249.328 277.354 248.568 277.354 247.624C277.354 246.68 277.058 245.928 276.466 245.368C275.874 244.792 275.114 244.504 274.186 244.504C273.258 244.504 272.49 244.792 271.882 245.368C271.29 245.928 270.994 246.68 270.994 247.624Z" fill="#8A95D6"/>
<line x1="24" y1="105.5" x2="294" y2="105.5" stroke="#C8C9E4"/>
<line x1="25" y1="51.5" x2="295" y2="51.5" stroke="#C8C9E4"/>
<line x1="25" y1="166.5" x2="294" y2="166.5" stroke="#C8C9E4"/>
<line x1="25" y1="222.5" x2="294" y2="222.5" stroke="#C8C9E4"/>
</svg>
