<svg width="357" height="182" viewBox="0 0 357 182" fill="none" xmlns="http://www.w3.org/2000/svg">
<g clip-path="url(#clip0)">
<path d="M153.468 5.79369V4.38672L148.718 4.38672V5.79369L153.468 5.79369Z" fill="url(#paint0_linear)"/>
<path d="M158.722 37.4244V4.25107C158.722 2.06244 156.941 0.280273 154.754 0.280273H147.849C145.662 0.280273 143.881 2.06244 143.881 4.25107V37.4244C143.881 39.613 145.662 41.3952 147.849 41.3952H154.754C156.941 41.3952 158.722 39.613 158.722 37.4244Z" fill="#F47458"/>
<path d="M151.317 41.3952H155.285C157.191 41.3952 158.722 40.551 158.722 39.5192V2.15624C158.722 1.12446 157.629 0.280273 155.754 0.280273H151.317V41.3952Z" fill="url(#paint1_linear)"/>
<path d="M151.96 25.0772V15.5098H150.21V25.0772H151.96Z" fill="#191C2C"/>
<path d="M172.845 37.3622V13.2247C172.845 11.0048 171.033 9.19141 168.814 9.19141H162.034C159.816 9.19141 158.004 11.0048 158.004 13.2247V37.3622C158.004 39.5821 159.816 41.3955 162.034 41.3955H168.814C171.033 41.3955 172.845 39.5821 172.845 37.3622Z" fill="#355389"/>
<path d="M165.44 41.3955H169.408C171.314 41.3955 172.845 40.7389 172.845 39.926V10.6922C172.845 9.87924 171.314 9.22266 169.408 9.22266H165.44V41.3955Z" fill="#5184CE"/>
<path d="M167.588 13.5093V12.415H162.838V13.5093H167.588Z" fill="url(#paint2_linear)"/>
<path d="M166.099 28.622V21.1182H164.349V28.622H166.099Z" fill="#191C2C"/>
<path d="M95.2646 41.9277H94.546V49.1502H95.2646V41.9277Z" fill="#191C2C"/>
<path d="M181.187 41.9277H180.468V49.1502H181.187V41.9277Z" fill="#191C2C"/>
<path d="M150.161 26.5439H101.201C98.7952 26.5439 96.858 28.4824 96.858 30.8899V37.0181C96.858 39.4256 98.7952 41.3641 101.201 41.3641H150.192C152.598 41.3641 154.535 39.4256 154.535 37.0181V30.8899C154.504 28.4824 152.567 26.5439 150.161 26.5439Z" fill="url(#paint3_linear)"/>
<path d="M154.504 33.954V29.9832C154.504 28.076 153.317 26.5439 151.88 26.5439H99.4826C98.0453 26.5439 96.858 28.076 96.858 29.9832V33.954H154.504Z" fill="#91342A"/>
<path d="M106.138 31.7969H104.169V36.5493H106.138V31.7969Z" fill="url(#paint4_linear)"/>
<path d="M147.193 31.7969H145.225V36.5493H147.193V31.7969Z" fill="url(#paint5_linear)"/>
<path d="M131.602 33.2979H118.167V35.0488H131.602V33.2979Z" fill="#191C2C"/>
<path d="M141.538 11.6924H109.825C107.231 11.6924 105.169 13.7872 105.169 16.351V21.8851C105.169 24.4802 107.262 26.5438 109.825 26.5438H141.538C144.131 26.5438 146.193 24.449 146.193 21.8851V16.3823C146.224 13.7872 144.131 11.6924 141.538 11.6924Z" fill="#4E9B87"/>
<path d="M146.224 19.1337V15.1317C146.224 13.2244 145.381 11.6924 144.35 11.6924H107.012C105.981 11.6924 105.138 13.2244 105.138 15.1317V19.1024H146.224V19.1337Z" fill="#3C8F7C"/>
<path d="M110.668 16.9766H109.262V21.729H110.668V16.9766Z" fill="url(#paint6_linear)"/>
<path d="M178.031 41.3643L144.069 41.333L143.506 26.2002H178.031C182.218 26.2002 185.624 29.6082 185.624 33.7979C185.624 37.9875 182.218 41.3643 178.031 41.3643Z" fill="#664BA2"/>
<path d="M151.317 33.7979C151.317 37.9875 148.193 41.3955 144.35 41.3955C140.507 41.3955 137.382 37.9875 137.382 33.7979C137.382 29.6082 140.507 26.2002 144.35 26.2002C148.193 26.2002 151.317 29.6082 151.317 33.7979Z" fill="url(#paint7_linear)"/>
<path d="M158.504 42.0834C158.191 41.8333 158.129 41.3955 158.347 41.0516C160.659 37.7999 161.284 34.3294 160.253 30.7651C159.691 28.764 158.691 27.2633 158.16 26.5129C157.941 26.2002 157.972 25.7938 158.254 25.5436C158.566 25.2622 159.066 25.2935 159.347 25.6687C159.972 26.5129 161.003 28.17 161.659 30.3273C162.503 33.1413 162.753 37.4248 159.566 41.9583C159.316 42.271 158.847 42.3335 158.504 42.0834Z" fill="#F47458"/>
<path d="M170.908 42.0834C170.595 41.8333 170.533 41.3955 170.751 41.0516C173.063 37.7999 173.688 34.3294 172.657 30.7651C172.095 28.764 171.095 27.2633 170.564 26.5129C170.345 26.2002 170.376 25.7938 170.658 25.5436C170.97 25.2622 171.47 25.2935 171.751 25.6687C172.376 26.5129 173.407 28.17 174.063 30.3273C174.907 33.1413 175.157 37.4248 171.97 41.9583C171.72 42.271 171.251 42.3335 170.908 42.0834Z" fill="#F47458"/>
<path d="M150.099 32.4222C149.724 30.046 148.443 28.8266 147.412 28.2326C145.912 27.3571 143.944 27.2321 142.225 27.8887C140.569 28.514 139.257 29.9835 138.757 31.6719C138.32 33.1726 138.632 34.7359 139.632 36.0178C141.288 38.1752 143.85 37.8313 145.1 37.2998C146.224 36.7995 147.068 35.6426 147.256 34.3607C147.412 33.2977 146.912 32.2972 146.006 31.7031C145.1 31.1091 143.944 31.1091 143.069 31.7031C142.413 32.1408 141.757 32.9538 142.381 34.5483L142.881 34.3607C142.475 33.3602 142.631 32.6411 143.35 32.1721C144.069 31.7031 144.975 31.7031 145.725 32.1721C146.474 32.6411 146.849 33.454 146.724 34.2982C146.568 35.4238 145.85 36.4243 144.881 36.8308C143.787 37.2998 141.507 37.6124 140.038 35.7364C138.913 34.2669 138.976 32.8287 139.257 31.8907C139.694 30.3587 140.913 29.0142 142.381 28.4514C143.975 27.8261 145.756 27.9512 147.131 28.7328C148.443 29.4832 149.286 30.7964 149.536 32.5473C149.88 34.7985 149.474 36.5806 148.287 37.8625C146.068 40.27 141.382 40.2388 140.569 40.2075C140.85 40.3951 141.163 40.5827 141.475 40.739H141.507C142.944 40.739 146.568 40.4889 148.662 38.2065C150.005 36.7995 150.474 34.861 150.099 32.4222Z" fill="#F47458"/>
<path d="M141.007 16.9766H139.601V21.729H141.007V16.9766Z" fill="url(#paint8_linear)"/>
<path d="M129.915 18.4775H120.354V20.2284H129.915V18.4775Z" fill="#191C2C"/>
<path d="M117.295 11.0781L101.145 41.7197L101.615 41.9677L117.765 11.3261L117.295 11.0781Z" fill="#191C2C"/>
<path d="M135.41 10.835L134.94 11.083L151.516 42.5266L151.986 42.2786L135.41 10.835Z" fill="#191C2C"/>
<path d="M169.529 8.7789L169.037 8.97949L182.468 41.9599L182.96 41.7593L169.529 8.7789Z" fill="#191C2C"/>
<path d="M153.463 -0.0108236L152.962 0.166016L167.681 41.9153L168.182 41.7384L153.463 -0.0108236Z" fill="#191C2C"/>
<path d="M184.468 41.3643H91.3903V42.3335H184.468V41.3643Z" fill="#191C2C"/>
<path d="M25.9641 145.605C25.9641 145.605 96.9829 157.393 97.8578 156.892C98.7014 156.392 107.919 116.653 107.919 116.653C107.919 116.653 49.1788 106.085 48.2415 106.085C47.3041 106.085 34.5251 116.309 34.3376 116.997C34.1502 117.685 25.9641 145.605 25.9641 145.605Z" fill="#183658"/>
<path d="M242.645 155.705C244.363 155.861 330.38 154.016 330.38 154.016L323.912 134.225C323.912 134.225 311.977 116.184 305.696 116.497C299.385 116.841 261.923 110.744 255.455 115.246C248.988 119.749 243.207 116.153 240.114 126.909C237.052 137.633 234.646 138.852 237.052 145.324C239.396 151.796 242.645 155.705 242.645 155.705Z" fill="#183658"/>
<path d="M61.8329 181.999C78.0016 181.999 91.109 168.883 91.109 152.703C91.109 136.523 78.0016 123.406 61.8329 123.406C45.6641 123.406 32.5568 136.523 32.5568 152.703C32.5568 168.883 45.6641 181.999 61.8329 181.999Z" fill="#191C2C"/>
<path d="M61.8329 173.087C73.0837 173.087 82.2043 163.961 82.2043 152.702C82.2043 141.443 73.0837 132.316 61.8329 132.316C50.582 132.316 41.4614 141.443 41.4614 152.702C41.4614 163.961 50.582 173.087 61.8329 173.087Z" fill="#9E9DA2"/>
<path d="M61.8329 166.334C69.3565 166.334 75.4555 160.231 75.4555 152.702C75.4555 145.174 69.3565 139.07 61.8329 139.07C54.3094 139.07 48.2103 145.174 48.2103 152.702C48.2103 160.231 54.3094 166.334 61.8329 166.334Z" fill="#D8D9DD"/>
<path d="M287.262 181.999C303.431 181.999 316.538 168.883 316.538 152.703C316.538 136.523 303.431 123.406 287.262 123.406C271.093 123.406 257.986 136.523 257.986 152.703C257.986 168.883 271.093 181.999 287.262 181.999Z" fill="#191C2C"/>
<path d="M287.262 173.087C298.513 173.087 307.634 163.961 307.634 152.702C307.634 141.443 298.513 132.316 287.262 132.316C276.011 132.316 266.891 141.443 266.891 152.702C266.891 163.961 276.011 173.087 287.262 173.087Z" fill="#9E9DA2"/>
<path d="M273.64 152.702C273.64 160.238 279.732 166.334 287.262 166.334C294.792 166.334 300.885 160.238 300.885 152.702C300.885 145.167 294.792 139.07 287.262 139.07C279.732 139.039 273.64 145.167 273.64 152.702Z" fill="#D8D9DD"/>
<path d="M354.469 124.782C352.001 108.461 344.002 105.022 320.319 100.269C294.198 95.048 261.048 78.008 261.048 78.008C261.048 78.008 204.495 50.2749 190.654 47.0858C176.813 43.8966 142.725 44.8034 114.105 45.0535C85.485 45.2723 68.6755 53.2452 54.1468 64.5948C39.6181 75.9444 14.4037 84.6051 14.4037 84.6051L9.81077 85.418C5.09285 86.2622 1.68719 90.3581 1.68719 95.1418V135.694C1.68719 140.29 4.7804 144.292 9.21713 145.48L25.7767 149.857C27.1202 150.076 28.37 149.138 28.5262 147.763C30.3384 131.192 44.6484 118.591 61.7392 118.591C79.8923 118.623 94.7959 133.537 94.7959 151.733C94.7959 153.797 94.6084 155.829 94.2335 157.768C93.8586 159.8 95.4208 161.645 97.4829 161.645H249.8C252.768 161.645 255.049 159.05 254.674 156.111C254.487 154.704 254.393 153.265 254.393 151.796C254.33 133.849 268.859 118.967 286.794 118.591C305.384 118.216 320.569 133.161 320.569 151.702C320.569 152.922 320.506 154.141 320.381 155.329C320.006 158.706 322.631 161.645 326.005 161.645H347.908C351.876 161.645 355.125 158.424 355.125 154.422V133.193C355.063 130.41 354.907 127.565 354.469 124.782Z" fill="url(#paint9_linear)"/>
<path d="M2.65578 99.9561H20.6839C22.2149 99.9561 23.2772 101.519 22.6835 102.958L20.6526 107.804C18.7155 112.431 14.2163 115.433 9.21713 115.433H2.65578C1.37475 115.433 0.312439 114.401 0.312439 113.088V102.301C0.312439 100.988 1.37475 99.9561 2.65578 99.9561Z" fill="#CF283C"/>
<path d="M325.787 107.462C335.722 108.994 347.158 118.405 347.158 118.405C349.907 121.344 347.627 126.127 343.627 125.877L324.256 124.658C320.225 124.408 316.788 121.656 315.695 117.779C313.789 111.245 315.382 105.867 325.787 107.462Z" fill="#EAFCFC"/>
<path d="M1.78092 137.194C0.531134 137.163 -0.343713 138.413 0.124955 139.57C1.40598 142.853 4.18674 145.417 7.74862 146.355L26.3079 151.264C27.8076 151.514 29.2136 150.451 29.4011 148.919C29.7448 145.761 30.4946 142.759 31.5882 139.914C31.9631 138.945 31.2445 137.913 30.2447 137.882L1.78092 137.194Z" fill="url(#paint10_linear)"/>
<path d="M320.694 144.823C319.288 144.792 318.194 146.011 318.382 147.418C318.569 148.981 318.694 150.545 318.694 152.17C318.694 153.546 318.632 154.859 318.475 156.204C318.069 159.956 320.975 163.239 324.724 163.239H349.033C353.438 163.239 357.031 159.643 357.031 155.234V148.95C357.031 147.168 355.594 145.698 353.813 145.667L320.694 144.823Z" fill="url(#paint11_linear)"/>
<path opacity="0.5" d="M261.079 87.4203C260.767 87.2327 228.554 69.5674 207.214 59.656C186.061 49.8697 162.471 50.9015 161.472 50.9328C158.753 50.8703 102.295 49.6509 84.9538 55.0599C67.4569 60.5002 44.7108 85.3568 43.7423 86.4198L43.4923 86.7012L49.6162 115.466L50.2724 115.435C68.0818 114.434 81.7044 119.187 89.703 129.161C95.7332 136.696 96.483 144.669 96.483 144.762L96.5455 145.45L160.753 147.107H161.503L162.284 147.139L251.768 148.89V148.108C252.206 118.999 261.423 88.6397 261.485 88.327L261.673 87.733L261.079 87.4203ZM97.889 143.918C97.5766 141.761 96.2331 134.945 90.9215 128.254C85.2038 121.063 73.5808 112.746 50.8348 113.871L45.1483 87.1702C47.7728 84.325 69.3315 61.5633 85.4225 56.5294C101.513 51.4956 153.848 52.3398 160.753 52.4648V145.544L97.889 143.918ZM250.206 147.295L162.253 145.575V52.4648C166.377 52.3398 187.53 52.2147 206.589 61.063C226.367 70.224 255.486 86.1072 259.829 88.4834C258.517 92.8294 250.769 120.469 250.206 147.295Z" fill="#ACB1FE"/>
<path opacity="0.5" d="M0.125 139.57C1.40603 142.853 4.18679 145.417 7.74866 146.355L26.3079 151.264C27.8077 151.514 29.2137 150.451 29.4011 148.919C29.5261 147.7 29.7136 146.511 29.9635 145.355L0.125 139.57Z" fill="#ACB1FE"/>
<path opacity="0.5" d="M318.632 153.922C318.6 154.704 318.538 155.454 318.444 156.236C318.038 159.988 320.944 163.27 324.693 163.27H349.001C353.407 163.27 357 159.675 357 155.266V153.953H318.632V153.922Z" fill="#ACB1FE"/>
<path d="M255.799 153.923C255.799 152.266 255.924 150.64 256.143 149.045C256.424 147.138 254.987 145.387 253.05 145.325L94.6085 141.448C92.8901 141.416 91.6403 143.042 92.1089 144.731C92.9213 147.638 93.3587 150.702 93.3587 153.86C93.3587 155.955 93.1713 157.987 92.7963 159.988C92.4214 162.052 93.9836 163.991 96.077 163.991H251.112C254.143 163.991 256.455 161.302 256.049 158.269C255.893 156.831 255.799 155.361 255.799 153.923Z" fill="url(#paint12_linear)"/>
<path opacity="0.5" d="M255.799 153.922C255.799 153.891 255.799 153.859 255.799 153.828H93.3586C93.3586 155.923 93.1712 157.955 92.7963 159.956C92.4213 162.02 93.9835 163.958 96.0769 163.958H251.112C254.143 163.958 256.455 161.269 256.049 158.237C255.893 156.83 255.799 155.36 255.799 153.922Z" fill="#ACB1FE"/>
<path d="M62.4578 90.1396L150.005 90.9525C150.005 90.9525 155.379 90.7962 156.098 85.7624C156.816 80.7285 156.754 59.0924 156.754 59.0924C156.754 59.0924 156.129 54.7464 151.973 54.6838C149.443 54.6526 128.29 53.1518 107.731 55.6531C90.9528 57.6854 75.4243 65.3769 63.6451 77.1642L57.4275 83.3861C57.4275 83.3861 53.2407 90.0458 62.4578 90.1396Z" fill="#EAFCFC"/>
<path d="M166.502 61.8443V84.5122C166.502 87.4512 168.752 89.8899 171.626 89.9837L240.427 92.7664C242.02 92.829 243.551 92.1098 244.457 90.7654C245.707 88.952 245.832 85.9504 239.677 81.9171C228.96 74.9448 201.683 59.812 191.591 58.3737C185.155 57.4357 176.75 57.0293 171.501 56.8729C168.783 56.7791 166.502 59.0303 166.502 61.8443Z" fill="#EAFCFC"/>
<path d="M75.4243 79.5409C75.4243 79.5409 132.477 73.0375 133.695 74.1631C134.914 75.2887 142.85 93.8608 144.287 98.9259L77.0802 98.3006L72.3623 91.1719L75.4243 79.5409Z" fill="url(#paint13_linear)"/>
<path d="M75.8617 80.6344C75.7992 80.2279 75.643 79.884 75.4243 79.54L66.957 88.0444C66.957 88.0444 60.5831 98.1434 74.6119 98.2997L78.455 98.331L75.8617 80.6344Z" fill="url(#paint14_linear)"/>
<path d="M230.585 102.115L234.178 87.5133C234.428 86.5441 233.834 85.5436 232.834 85.2934C231.866 85.0433 230.866 85.6374 230.616 86.6379L226.866 101.927L230.585 102.115Z" fill="#191C2C"/>
<path d="M186.155 100.269C185.467 96.0797 184.593 91.6712 183.655 89.6076C181.624 85.1365 174.782 82.4789 171.439 85.2616C169.658 86.7311 170.408 93.7972 171.939 99.8941L186.155 100.269Z" fill="#50BFA5"/>
<path d="M104.544 46.1172C104.888 46.2735 105.169 46.4924 105.388 46.7738C105.419 46.8363 106.263 47.618 106.044 48.9311C105.919 48.1182 105.731 47.2115 104.544 46.1172Z" fill="#F48C7F"/>
<path d="M81.7982 93.2656C81.7982 93.2656 90.6091 100.269 91.5777 101.707C92.2963 102.771 89.8905 114.839 89.8905 114.839C89.8905 114.839 86.3911 114.933 84.7976 113.714C84.7976 113.714 85.7662 105.366 85.3288 105.053C84.9226 104.74 75.2368 100.426 75.2368 100.426L75.8617 95.4855L81.7982 93.2656Z" fill="url(#paint15_linear)"/>
<path d="M167.096 89.7949L240.52 92.9215C240.52 92.9215 234.115 114.37 233.959 115.433C233.803 116.496 209.713 129.659 203.652 129.503C197.59 129.347 183.468 124.281 180.437 123.375C177.406 122.468 169.502 116.309 169.97 112.525C170.47 108.742 167.096 89.7949 167.096 89.7949Z" fill="url(#paint16_linear)"/>
<path d="M188.217 100.677H168.502C168.002 100.677 167.627 100.27 167.627 99.8011V98.1127C167.627 97.6125 168.033 97.2373 168.502 97.2373H188.217C188.717 97.2373 189.092 97.6438 189.092 98.1127V99.8011C189.123 100.27 188.717 100.677 188.217 100.677Z" fill="url(#paint17_linear)"/>
<path d="M196.747 59.749L206.683 63.8448L206.12 61.7813L202.402 59.749C202.402 59.749 199.371 59.1549 199.059 58.9986C198.778 58.8423 196.747 59.749 196.747 59.749Z" fill="url(#paint18_linear)"/>
<path opacity="0.6" d="M243.926 85.981L166.252 79.3213V84.5115C166.252 87.4505 168.502 89.8892 171.376 89.983L240.177 92.7657C241.77 92.8282 243.301 92.1091 244.207 90.7647C244.988 89.6391 245.332 88.0445 243.926 85.981Z" fill="#C5DDF9"/>
<path opacity="0.7" d="M166.502 79.2894V78.5703L243.895 85.5739L244.176 85.9491L166.502 79.2894Z" fill="#C5DDF9"/>
<path opacity="0.2" d="M184.405 90.4832L191.467 90.7959L197.278 81.9476L190.404 81.3535L184.405 90.4832Z" fill="white"/>
<path opacity="0.2" d="M196.965 91.0144L202.621 82.3849L199.996 82.166L194.278 90.8893L196.965 91.0144Z" fill="white"/>
<path d="M61.3018 90.0771L150.005 90.9526L150.786 119.092C150.786 119.092 140.413 134.162 139.163 134.006C137.913 133.85 111.418 129.598 109.043 129.754C106.669 129.91 85.8912 119.717 84.9226 119.905C83.954 120.124 77.4552 116.622 77.4552 116.622L66.8945 109.181L56.4276 98.3939L61.3018 90.0771Z" fill="url(#paint19_linear)"/>
<path d="M79.2674 98.9256H59.5521C59.0522 98.9256 58.6772 98.5191 58.6772 98.0501V96.3618C58.6772 95.8615 59.0834 95.4863 59.5521 95.4863H79.2674C79.7673 95.4863 80.1423 95.8928 80.1423 96.3618V98.0501C80.1423 98.5504 79.7361 98.9256 79.2674 98.9256Z" fill="url(#paint20_linear)"/>
<path d="M169.033 89.1699C169.033 89.1699 170.314 90.0454 171.939 90.0141C171.939 90.0141 169.783 90.6707 169.72 90.6394C169.658 90.5769 168.564 89.7014 168.596 89.7014C168.596 89.6389 169.033 89.1699 169.033 89.1699Z" fill="url(#paint21_linear)"/>
<path d="M175.719 57.0283L184.405 57.591C184.405 57.591 182.999 55.2461 182.374 55.2461C181.781 55.2461 177.813 55.2461 177.813 55.2461L175.719 57.0283Z" fill="url(#paint22_linear)"/>
</g>
<defs>
<linearGradient id="paint0_linear" x1="153.468" y1="5.09021" x2="151.137" y2="1.50409" gradientUnits="userSpaceOnUse">
<stop stop-color="#BE6CFD"/>
<stop offset="1" stop-color="#7367FF"/>
</linearGradient>
<linearGradient id="paint1_linear" x1="150.038" y1="-92.8708" x2="164.677" y2="-92.5384" gradientUnits="userSpaceOnUse">
<stop stop-color="#B294FC"/>
<stop offset="1" stop-color="#86BDFE"/>
</linearGradient>
<linearGradient id="paint2_linear" x1="167.588" y1="12.9622" x2="165.99" y2="9.80223" gradientUnits="userSpaceOnUse">
<stop stop-color="#BE6CFD"/>
<stop offset="1" stop-color="#7367FF"/>
</linearGradient>
<linearGradient id="paint3_linear" x1="86.8907" y1="-7.03295" x2="178.844" y2="38.0795" gradientUnits="userSpaceOnUse">
<stop stop-color="#B294FC"/>
<stop offset="1" stop-color="#86BDFE"/>
</linearGradient>
<linearGradient id="paint4_linear" x1="105.153" y1="31.7969" x2="101.245" y2="35.3489" gradientUnits="userSpaceOnUse">
<stop stop-color="#BE6CFD"/>
<stop offset="1" stop-color="#7367FF"/>
</linearGradient>
<linearGradient id="paint5_linear" x1="146.209" y1="31.7969" x2="142.3" y2="35.3489" gradientUnits="userSpaceOnUse">
<stop stop-color="#BE6CFD"/>
<stop offset="1" stop-color="#7367FF"/>
</linearGradient>
<linearGradient id="paint6_linear" x1="109.965" y1="16.9766" x2="106.379" y2="19.3045" gradientUnits="userSpaceOnUse">
<stop stop-color="#BE6CFD"/>
<stop offset="1" stop-color="#7367FF"/>
</linearGradient>
<linearGradient id="paint7_linear" x1="144.35" y1="26.2002" x2="134.342" y2="46.3367" gradientUnits="userSpaceOnUse">
<stop stop-color="#BE6CFD"/>
<stop offset="1" stop-color="#7367FF"/>
</linearGradient>
<linearGradient id="paint8_linear" x1="140.304" y1="16.9766" x2="136.717" y2="19.3046" gradientUnits="userSpaceOnUse">
<stop stop-color="#BE6CFD"/>
<stop offset="1" stop-color="#7367FF"/>
</linearGradient>
<linearGradient id="paint9_linear" x1="178.406" y1="44.7422" x2="149.929" y2="233.635" gradientUnits="userSpaceOnUse">
<stop stop-color="#BE6CFD"/>
<stop offset="1" stop-color="#7367FF"/>
</linearGradient>
<linearGradient id="paint10_linear" x1="-5.48017" y1="105.233" x2="52.553" y2="121.668" gradientUnits="userSpaceOnUse">
<stop stop-color="#B294FC"/>
<stop offset="1" stop-color="#86BDFE"/>
</linearGradient>
<linearGradient id="paint11_linear" x1="311.678" y1="103.098" x2="383.16" y2="122.019" gradientUnits="userSpaceOnUse">
<stop stop-color="#B294FC"/>
<stop offset="1" stop-color="#86BDFE"/>
</linearGradient>
<linearGradient id="paint12_linear" x1="63.6396" y1="90.3726" x2="239.858" y2="252.143" gradientUnits="userSpaceOnUse">
<stop stop-color="#B294FC"/>
<stop offset="1" stop-color="#86BDFE"/>
</linearGradient>
<linearGradient id="paint13_linear" x1="59.9329" y1="17.6325" x2="185.538" y2="63.3805" gradientUnits="userSpaceOnUse">
<stop stop-color="#B294FC"/>
<stop offset="1" stop-color="#86BDFE"/>
</linearGradient>
<linearGradient id="paint14_linear" x1="63.2757" y1="36.9668" x2="88.6847" y2="39.173" gradientUnits="userSpaceOnUse">
<stop stop-color="#B294FC"/>
<stop offset="1" stop-color="#86BDFE"/>
</linearGradient>
<linearGradient id="paint15_linear" x1="72.3898" y1="44.3841" x2="104.678" y2="47.4921" gradientUnits="userSpaceOnUse">
<stop stop-color="#B294FC"/>
<stop offset="1" stop-color="#86BDFE"/>
</linearGradient>
<linearGradient id="paint16_linear" x1="203.808" y1="89.7949" x2="188.559" y2="151.657" gradientUnits="userSpaceOnUse">
<stop stop-color="#BE6CFD"/>
<stop offset="1" stop-color="#7367FF"/>
</linearGradient>
<linearGradient id="paint17_linear" x1="163.917" y1="89.4453" x2="190.143" y2="110.08" gradientUnits="userSpaceOnUse">
<stop stop-color="#B294FC"/>
<stop offset="1" stop-color="#86BDFE"/>
</linearGradient>
<linearGradient id="paint18_linear" x1="201.715" y1="58.9805" x2="200.006" y2="66.6377" gradientUnits="userSpaceOnUse">
<stop stop-color="#BE6CFD"/>
<stop offset="1" stop-color="#7367FF"/>
</linearGradient>
<linearGradient id="paint19_linear" x1="103.607" y1="90.0771" x2="88.8656" y2="159.545" gradientUnits="userSpaceOnUse">
<stop stop-color="#BE6CFD"/>
<stop offset="1" stop-color="#7367FF"/>
</linearGradient>
<linearGradient id="paint20_linear" x1="54.9679" y1="87.6942" x2="81.1928" y2="108.327" gradientUnits="userSpaceOnUse">
<stop stop-color="#B294FC"/>
<stop offset="1" stop-color="#86BDFE"/>
</linearGradient>
<linearGradient id="paint21_linear" x1="170.267" y1="89.1699" x2="169.798" y2="91.5063" gradientUnits="userSpaceOnUse">
<stop stop-color="#BE6CFD"/>
<stop offset="1" stop-color="#7367FF"/>
</linearGradient>
<linearGradient id="paint22_linear" x1="180.062" y1="55.2461" x2="179.592" y2="59.0634" gradientUnits="userSpaceOnUse">
<stop stop-color="#BE6CFD"/>
<stop offset="1" stop-color="#7367FF"/>
</linearGradient>
<clipPath id="clip0">
<rect width="357" height="182" fill="white"/>
</clipPath>
</defs>
</svg>
