<svg width="634" height="252" viewBox="0 0 634 252" fill="none" xmlns="http://www.w3.org/2000/svg">
<path d="M623.992 146.468C623.992 148.571 623.949 150.78 623.843 153.074C623.822 153.499 623.801 153.945 623.779 154.391C623.694 156.133 623.567 157.918 623.418 159.744C623.376 160.169 623.354 160.573 623.312 160.998C623.269 161.508 623.227 162.017 623.163 162.527C622.951 164.694 622.696 166.903 622.419 169.134C622.356 169.58 622.292 170.047 622.228 170.493C621.931 172.66 621.612 174.869 621.229 177.1C621.145 177.546 621.081 178.013 620.996 178.48C620.613 180.668 620.21 182.878 619.763 185.087C619.678 185.554 619.572 186.021 619.466 186.489C619.105 188.231 618.701 189.973 618.297 191.736C618.085 192.649 617.851 193.563 617.617 194.476C617.065 196.685 616.47 198.894 615.832 201.082C615.705 201.55 615.556 201.996 615.429 202.442C614.77 204.672 614.069 206.882 613.304 209.048C613.155 209.516 612.985 209.962 612.815 210.429C612.156 212.277 611.476 214.104 610.754 215.888C610.371 216.866 609.968 217.843 609.543 218.799C608.565 221.072 607.545 223.281 606.462 225.405C606.228 225.872 605.994 226.318 605.76 226.786C604.528 229.101 603.253 231.31 601.893 233.392C601.617 233.838 601.319 234.263 601.022 234.688C599.386 237.088 597.643 239.298 595.816 241.273C595.221 241.911 594.626 242.527 594.01 243.121C591.077 245.968 587.911 248.198 584.49 249.707C584.235 249.813 584.002 249.919 583.747 250.025C583.683 250.046 583.619 250.068 583.555 250.11C583.067 250.301 582.557 250.492 582.068 250.641L555.634 250.684L480.881 250.79L388.109 250.238L351.837 250.025L280.08 249.6L63.3214 248.305C63.3214 248.305 23.1187 224.513 23.1187 183.217C23.1187 182.644 23.1187 182.07 23.1399 181.497C23.7349 159.426 29.642 117.366 80.5116 95.5283C84.1664 93.9564 88.0549 92.4906 92.1772 91.1523C95.8745 89.9415 99.763 88.8369 103.864 87.8385C109.07 86.564 114.616 85.4594 120.523 84.5672C121.097 84.4822 121.692 84.3972 122.265 84.3123C125.092 83.9086 127.79 83.4201 130.383 82.8465C198.804 68.1467 190.58 4.65281 280.824 0.213125C289.09 -0.190483 298.184 -0.105513 308.235 0.553005C323.661 1.57265 336.389 5.33257 347.736 9.77226C359.763 14.4456 370.26 19.8412 380.884 23.5162L381.607 23.7711C392.019 27.2973 402.579 29.103 414.776 26.8725C415.371 26.7663 415.966 26.6388 416.561 26.5114C430.075 23.6436 442.718 21.5194 454.511 20.0961C454.766 20.0749 455 20.0324 455.234 20.0112C483.58 16.6548 507.102 17.2921 526.651 21.052C526.906 21.0945 527.14 21.137 527.374 21.2007C535.809 22.8577 543.523 25.0881 550.535 27.8496C552.49 28.6144 554.402 29.4216 556.251 30.2713C556.314 30.2925 556.357 30.3138 556.421 30.3563C556.739 30.505 557.037 30.6324 557.356 30.7811C557.653 30.9086 557.951 31.0573 558.248 31.206C558.269 31.2272 558.312 31.2272 558.333 31.2484C560.628 32.3531 562.838 33.5002 564.963 34.711C567.491 36.1555 569.914 37.6637 572.23 39.2569C572.888 39.703 573.547 40.1703 574.185 40.6376C577.096 42.7406 579.837 44.9499 582.429 47.2865C582.939 47.7539 583.449 48.2 583.938 48.6673C586.211 50.7916 588.358 53.0008 590.376 55.295C590.907 55.8898 591.396 56.4633 591.906 57.0581C593.712 59.2036 595.433 61.4128 597.07 63.6858C597.41 64.1531 597.728 64.5992 598.047 65.0665C599.556 67.2333 600.958 69.4425 602.297 71.6942C602.594 72.1828 602.871 72.6714 603.168 73.1599C604.379 75.2842 605.548 77.4297 606.632 79.6177C607.035 80.4249 607.439 81.2533 607.821 82.0818C608.501 83.505 609.16 84.9495 609.776 86.4153C610.308 87.6261 610.818 88.8582 611.306 90.0902C612.177 92.2782 613.006 94.4874 613.792 96.7179C613.962 97.1852 614.111 97.6313 614.26 98.0986C614.791 99.6493 615.301 101.2 615.769 102.751C615.981 103.409 616.172 104.068 616.363 104.726C616.491 105.194 616.64 105.661 616.767 106.128C616.873 106.532 617.001 106.936 617.107 107.339C617.575 108.954 618 110.589 618.425 112.225C618.467 112.395 618.51 112.586 618.552 112.756C618.658 113.223 618.786 113.669 618.892 114.137C619.445 116.346 619.955 118.534 620.443 120.764C620.549 121.211 620.635 121.678 620.741 122.124C621.208 124.333 621.654 126.542 622.058 128.752C622.143 129.219 622.228 129.665 622.313 130.132C622.568 131.492 622.802 132.851 623.036 134.211C623.121 134.763 623.227 135.358 623.291 135.974C623.312 136.229 623.354 136.484 623.376 136.76C623.439 137.334 623.503 137.928 623.546 138.523C623.716 140.541 623.822 142.75 623.843 145.13C623.992 145.554 623.992 146.022 623.992 146.468Z" fill="#EBEDFA"/>
<path d="M623.397 135.931V159.765C623.354 160.19 623.333 160.593 623.291 161.018C623.248 161.528 623.206 162.038 623.142 162.548C622.929 164.714 622.674 166.924 622.398 169.154C622.334 169.6 622.271 170.068 622.207 170.514C621.909 172.68 621.591 174.89 621.208 177.12C621.123 177.566 621.059 178.033 620.974 178.501C620.592 180.689 620.188 182.898 619.742 185.107C619.657 185.575 619.551 186.042 619.444 186.509C619.083 188.251 618.68 189.993 618.276 191.756C618.063 192.67 617.83 193.583 617.596 194.496C617.043 196.706 616.448 198.915 615.811 201.103C615.683 201.57 615.535 202.016 615.407 202.462C614.749 204.693 614.047 206.902 613.282 209.069C613.134 209.536 612.964 209.982 612.794 210.45C612.135 212.298 611.455 214.125 610.732 215.909C610.35 216.886 609.946 217.863 609.521 218.819C608.544 221.092 607.524 223.301 606.44 225.426C606.207 225.893 605.973 226.339 605.739 226.806C604.507 229.122 603.232 231.331 601.872 233.413C601.596 233.859 601.298 234.284 601.001 234.709C599.364 237.109 597.622 239.318 595.795 241.294C595.2 241.931 594.605 242.547 593.988 243.142C591.056 245.988 587.89 248.219 584.469 249.727C584.214 249.833 583.98 249.939 583.725 250.046C583.662 250.067 583.598 250.088 583.534 250.131L388.067 250.258L351.795 250.046L280.038 249.621L63.3213 248.304C63.3213 248.304 23.1187 224.512 23.1187 183.217C23.1187 182.643 23.1187 182.07 23.1399 181.496C23.7349 159.425 29.642 117.365 80.5116 95.5276V115.389H92.1772V91.1728C95.8745 89.962 99.763 88.8574 103.864 87.859C109.07 86.5845 114.616 85.4798 120.523 84.5877C121.097 84.5027 121.692 84.4177 122.265 84.3327C125.092 83.9291 127.79 83.4406 130.383 82.867V112.373H143.281V105.469L158.495 105.533V94.3592H161.554V92.15H161.958V94.3592H173.709H176.067V92.15H176.471V94.3592H179.297V116.579H197.422V124.757H207.494V120.02H216.844V101.178H221.497V92.3837H222.198V101.178H233.354V84.6939H234.459V101.178H241.854V100.944H241.832V98.8626H241.854V96.8871H241.832V93.5945H241.854V91.4915H241.832V88.1989H241.854V86.0959H241.832V82.8033H241.854V80.5091H241.832V77.2165H241.854V74.3275H241.832V71.0349H241.854V68.8469H244.042V66.3828H244.403V68.8469H260.701V66.3828H261.063V68.8469H264.037V86.0746L266.141 86.0959V86.0746H266.12V82.782H266.141V80.5091H266.12V77.2165H266.141V74.9435H266.12V71.651H266.141H285.902H289.302C289.472 71.7359 289.663 71.8209 289.833 71.9059V90.7055H304.283V115.411H315.948V69.7391H318.498V66.5528H318.944V69.7391H328.166V66.5528H328.634V69.7391H341.68V66.5528H342.148V69.7391H350.371V66.5528H350.817V69.7391H354.196V112.373H367.094V105.469L382.308 105.533V94.3592H385.368V92.15H385.772V94.3592H397.522H399.86V92.15H400.263V94.3592H403.089V116.579H421.215V124.757H431.287V120.02H440.636V101.178H445.289V92.3837H445.991V101.178H457.146V84.6939H458.251V101.178H465.646V100.944H465.625V98.8626H465.646V96.8871H465.625V93.5945H465.646V91.4915H465.625V88.1989H465.646V86.0959H465.625V82.8033H465.646V80.5091H465.625V77.2165H465.646V74.3275H465.625V71.0349H465.646V68.8469H467.856V66.3828H468.217V68.8469H484.515V66.3828H484.876V68.8469H487.851V86.0746L489.912 86.0959H489.933V86.0746H489.912V82.782H489.933V80.5091H489.912V77.2165H489.933V74.9435H489.912V71.651H489.933H509.695H513.094C513.264 71.7359 513.456 71.8209 513.626 71.9059V90.7055H537.87V115.411H549.536V69.7391H552.065V66.5528H552.532V69.7391H561.754V66.5528H562.2V69.7391H575.247V66.5528H575.693V69.7391H587.741V112.373H600.639V105.469L615.853 105.533V102.729C616.066 103.387 616.257 104.046 616.448 104.704C616.576 105.172 616.725 105.639 616.852 106.106C616.958 106.51 617.086 106.914 617.192 107.317C617.66 108.932 618.085 110.567 618.51 112.203C618.552 112.373 618.595 112.564 618.637 112.734C618.743 113.201 618.871 113.647 618.977 114.115C619.529 116.324 620.039 118.512 620.528 120.742C620.634 121.189 620.719 121.656 620.826 122.102C621.293 124.311 621.739 126.52 622.143 128.73C622.228 129.197 622.313 129.643 622.398 130.11C622.653 131.47 622.887 132.829 623.121 134.189C623.248 134.72 623.333 135.315 623.397 135.931Z" fill="#D6D5FB"/>
<path d="M354.175 69.7598H325V76.9822H354.175V69.7598Z" fill="#EEE2FD"/>
<path d="M354.175 80.8711H325V88.0936H354.175V80.8711Z" fill="#EEE2FD"/>
<path d="M354.175 92.2363H325V99.4588H354.175V92.2363Z" fill="#EEE2FD"/>
<path d="M354.175 103.77H325V110.992H354.175V103.77Z" fill="#EEE2FD"/>
<path d="M354.175 114.9H325V122.123H354.175V114.9Z" fill="#EEE2FD"/>
<path d="M479.245 68.8477H465.646V73.2449H479.245V68.8477Z" fill="#EEE2FD"/>
<path d="M479.245 75.6016H465.646V79.9988H479.245V75.6016Z" fill="#EEE2FD"/>
<path d="M479.245 82.5059H465.646V86.903H479.245V82.5059Z" fill="#EEE2FD"/>
<path d="M479.245 89.5156H465.646V93.9128H479.245V89.5156Z" fill="#EEE2FD"/>
<path d="M479.245 96.2715H465.646V100.669H479.245V96.2715Z" fill="#EEE2FD"/>
<path d="M479.245 103.707H465.646V108.104H479.245V103.707Z" fill="#EEE2FD"/>
<path d="M479.245 110.461H465.646V114.858H479.245V110.461Z" fill="#EEE2FD"/>
<path d="M479.245 117.365H465.646V121.762H479.245V117.365Z" fill="#EEE2FD"/>
<path d="M479.245 124.355H465.646V128.753H479.245V124.355Z" fill="#EEE2FD"/>
<path d="M479.245 131.131H465.646V135.528H479.245V131.131Z" fill="#EEE2FD"/>
<path d="M504.425 71.7363H489.848V76.1335H504.425V71.7363Z" fill="#EEE2FD"/>
<path d="M504.425 78.4902H489.848V82.8874H504.425V78.4902Z" fill="#EEE2FD"/>
<path d="M504.425 85.375H489.848V89.7722H504.425V85.375Z" fill="#EEE2FD"/>
<path d="M504.425 92.3848H489.848V96.782H504.425V92.3848Z" fill="#EEE2FD"/>
<path d="M504.425 99.1387H489.848V103.536H504.425V99.1387Z" fill="#EEE2FD"/>
<path d="M504.425 106.191H489.848V110.589H504.425V106.191Z" fill="#EEE2FD"/>
<path d="M504.425 112.945H489.848V117.343H504.425V112.945Z" fill="#EEE2FD"/>
<path d="M504.425 119.85H489.848V124.247H504.425V119.85Z" fill="#EEE2FD"/>
<path d="M504.425 126.84H489.848V131.237H504.425V126.84Z" fill="#EEE2FD"/>
<path d="M504.425 133.615H489.848V138.012H504.425V133.615Z" fill="#EEE2FD"/>
<path d="M504.425 141.369H489.848V145.766H504.425V141.369Z" fill="#EEE2FD"/>
<path d="M504.425 148.123H489.848V152.52H504.425V148.123Z" fill="#EEE2FD"/>
<path d="M504.425 155.008H489.848V159.405H504.425V155.008Z" fill="#EEE2FD"/>
<path d="M504.425 162.018H489.848V166.415H504.425V162.018Z" fill="#EEE2FD"/>
<path d="M504.425 168.771H489.848V173.169H504.425V168.771Z" fill="#EEE2FD"/>
<path d="M587.741 69.7598H561.18V76.9822H587.741V69.7598Z" fill="#EEE2FD"/>
<path d="M587.741 80.8711H561.18V88.0936H587.741V80.8711Z" fill="#EEE2FD"/>
<path d="M587.741 92.2363H561.18V99.4588H587.741V92.2363Z" fill="#EEE2FD"/>
<path d="M587.741 103.77H561.18V110.992H587.741V103.77Z" fill="#EEE2FD"/>
<path d="M587.741 114.9H561.18V122.123H587.741V114.9Z" fill="#EEE2FD"/>
<path d="M256.281 68.8477H241.705V73.2449H256.281V68.8477Z" fill="#EEE2FD"/>
<path d="M256.281 75.6016H241.705V79.9988H256.281V75.6016Z" fill="#EEE2FD"/>
<path d="M256.281 82.5059H241.705V86.903H256.281V82.5059Z" fill="#EEE2FD"/>
<path d="M256.281 89.5156H241.705V93.9128H256.281V89.5156Z" fill="#EEE2FD"/>
<path d="M256.281 96.2715H241.705V100.669H256.281V96.2715Z" fill="#EEE2FD"/>
<path d="M256.281 103.707H241.705V108.104H256.281V103.707Z" fill="#EEE2FD"/>
<path d="M256.281 110.461H241.705V114.858H256.281V110.461Z" fill="#EEE2FD"/>
<path d="M256.281 117.365H241.705V121.762H256.281V117.365Z" fill="#EEE2FD"/>
<path d="M256.281 124.355H241.705V128.753H256.281V124.355Z" fill="#EEE2FD"/>
<path d="M256.281 131.131H241.705V135.528H256.281V131.131Z" fill="#EEE2FD"/>
<path d="M282.97 71.7363H266.396V76.1335H282.97V71.7363Z" fill="#EEE2FD"/>
<path d="M282.97 78.4902H266.396V82.8874H282.97V78.4902Z" fill="#EEE2FD"/>
<path d="M282.97 85.375H266.396V89.7722H282.97V85.375Z" fill="#EEE2FD"/>
<path d="M282.97 92.3848H266.396V96.782H282.97V92.3848Z" fill="#EEE2FD"/>
<path d="M282.97 99.1387H266.396V103.536H282.97V99.1387Z" fill="#EEE2FD"/>
<path d="M282.97 106.191H266.396V110.589H282.97V106.191Z" fill="#EEE2FD"/>
<path d="M282.97 112.945H266.396V117.343H282.97V112.945Z" fill="#EEE2FD"/>
<path d="M282.97 119.85H266.396V124.247H282.97V119.85Z" fill="#EEE2FD"/>
<path d="M282.97 126.84H266.396V131.237H282.97V126.84Z" fill="#EEE2FD"/>
<path d="M282.97 133.615H266.396V138.012H282.97V133.615Z" fill="#EEE2FD"/>
<path d="M282.97 141.369H266.396V145.766H282.97V141.369Z" fill="#EEE2FD"/>
<path d="M282.97 148.123H266.396V152.52H282.97V148.123Z" fill="#EEE2FD"/>
<path d="M282.97 155.008H266.396V159.405H282.97V155.008Z" fill="#EEE2FD"/>
<path d="M282.97 162.018H266.396V166.415H282.97V162.018Z" fill="#EEE2FD"/>
<path d="M282.97 168.771H266.396V173.169H282.97V168.771Z" fill="#EEE2FD"/>
<path d="M248.441 44.2486C248.441 44.2486 253.243 36.3252 264.696 37.2174C264.696 37.2174 281.334 24.0258 299.098 35.4542C299.098 35.4542 317.967 32.629 331.948 37.8971C341.277 41.4234 344.336 45.1196 344.336 45.1196L248.441 44.2486Z" fill="#F8FCFF"/>
<path d="M351.03 66.5317C351.03 66.5317 354.132 61.1573 361.569 61.7521C361.569 61.7521 372.364 52.7877 383.859 60.5625C383.859 60.5625 396.077 58.6294 405.151 62.2407C411.185 64.6411 413.183 67.1477 413.183 67.1477L351.03 66.5317Z" fill="#F8FCFF"/>
<path d="M438.723 42.7606C438.723 42.7606 441.549 37.5137 448.328 38.1085C448.328 38.1085 458.145 29.3778 468.62 36.9402C468.62 36.9402 479.755 35.0708 487.999 38.5546C493.503 40.8913 495.309 43.3342 495.309 43.3342L438.723 42.7606Z" fill="#F8FCFF"/>
<path d="M200.524 49.3262H196.211V245.203H200.524V49.3262Z" fill="#0D1426"/>
<path d="M204.456 248.412C204.456 248.412 202.841 249.836 198.357 249.836C194.129 249.836 192.259 248.412 192.259 248.412V202.38C192.259 199.193 194.83 196.623 198.017 196.623H198.421C201.757 196.623 204.477 199.321 204.477 202.677V248.412H204.456Z" fill="#9F9DF4"/>
<path d="M205.752 91.5563H190.941C189.305 91.5563 187.988 90.2393 187.988 88.6036V33.7554C187.988 32.1198 189.305 30.8027 190.941 30.8027H205.752C207.388 30.8027 208.705 32.1198 208.705 33.7554V88.6036C208.727 90.2393 207.388 91.5563 205.752 91.5563Z" fill="#0D1426"/>
<path d="M200.324 68.3528C204.59 67.319 207.209 63.0243 206.175 58.7603C205.141 54.4963 200.845 51.8777 196.58 52.9114C192.314 53.9452 189.695 58.2399 190.729 62.5039C191.763 66.7679 196.059 69.3865 200.324 68.3528Z" fill="#9F9DF4"/>
<path d="M206.305 80.0084C207.063 75.6865 204.173 71.5686 199.85 70.8108C195.527 70.053 191.408 72.9424 190.65 77.2643C189.892 81.5862 192.782 85.7041 197.105 86.4619C201.428 87.2197 205.547 84.3303 206.305 80.0084Z" fill="#9F9DF4"/>
<path d="M206.294 43.7235C207.007 39.3941 204.075 35.3064 199.744 34.5934C195.414 33.8804 191.325 36.812 190.611 41.1414C189.898 45.4708 192.831 49.5585 197.161 50.2715C201.492 50.9845 205.581 48.0528 206.294 43.7235Z" fill="#F946D2"/>
<path d="M365.585 235.369H544.479L604.889 229.931C604.889 229.931 594.074 202.995 591.141 202.591C588.188 202.188 371.259 202.591 371.259 202.591L365.585 235.369Z" fill="#1D2949"/>
<path d="M630.707 232.714C626.245 234.541 599.344 234.944 599.344 234.944C599.344 234.944 599.96 201.976 572.23 205.821C544.5 209.666 549.366 237.026 549.366 237.026L416.094 239.405C416.094 239.405 418.261 204.652 388.832 208.306C364.396 211.344 370.664 239.278 370.664 239.278C358.042 239.936 351.285 238.024 347.694 236.049C345.017 232.268 346.568 230.059 346.738 229.655C346.887 229.273 346.355 222.815 346.27 221.901C346.228 221.37 347.354 220.032 348.374 218.97C349.203 218.099 349.245 216.739 348.501 215.805L347.163 214.169C345.633 212.3 345.293 209.729 346.27 207.52L348.926 201.466C357.553 186.639 425.273 182.582 425.273 182.582C435.558 176.676 444.079 172.279 450.751 169.093C461.396 163.994 473.529 159.045 485.259 157.876C517.047 154.733 543.183 158.301 549.579 159.342C557.058 160.553 594.711 176.931 597.537 178.354C600.364 179.777 623.482 181.689 626.436 182.05C629.411 182.412 629.326 185.386 629.326 185.386L629.729 188.02L631.28 198.046L631.663 200.489C633.83 201.572 633.83 204.652 633.83 204.652C633.83 204.652 635.148 230.887 630.707 232.714Z" fill="#AA73F0"/>
<path d="M407.276 244.445C415.292 236.432 415.292 223.439 407.276 215.426C399.26 207.412 386.264 207.412 378.248 215.426C370.232 223.439 370.232 236.432 378.248 244.445C386.264 252.459 399.26 252.459 407.276 244.445Z" fill="#2C3A64"/>
<path d="M392.763 245.971C383.923 245.971 376.72 238.77 376.72 229.933C376.72 221.096 383.923 213.895 392.763 213.895C401.602 213.895 408.806 221.096 408.806 229.933C408.806 238.77 401.623 245.971 392.763 245.971ZM392.763 215.36C384.731 215.36 378.207 221.882 378.207 229.911C378.207 237.941 384.752 244.463 392.763 244.463C400.795 244.463 407.318 237.941 407.318 229.911C407.318 221.882 400.795 215.36 392.763 215.36Z" fill="#BAAFFB"/>
<path d="M395.504 245.248H389.767L391.594 229.486L389.49 214.531L396.056 214.935L393.868 229.486L395.504 245.248Z" fill="#BAAFFB"/>
<path d="M380.842 239.936L377.952 234.944L392.529 228.677L404.45 219.373L407.382 225.257L393.677 230.632L380.842 239.936Z" fill="#BAAFFB"/>
<path d="M378.526 223.984L381.692 219.184L393.846 229.38L407.509 235.838L403.557 241.106L392.593 231.292L378.526 223.984Z" fill="#BAAFFB"/>
<path d="M387.387 229.912C387.387 226.959 389.788 224.559 392.742 224.559C395.695 224.559 398.096 226.959 398.096 229.912C398.096 232.864 395.695 235.265 392.742 235.265C389.788 235.265 387.387 232.864 387.387 229.912Z" fill="#BAAFFB"/>
<path d="M594.731 234.683C597.336 223.654 590.505 212.602 579.472 209.998C568.44 207.393 557.384 214.223 554.779 225.252C552.174 236.282 559.006 247.334 570.038 249.938C581.071 252.543 592.126 245.713 594.731 234.683Z" fill="#2C3A64"/>
<path d="M574.738 245.967C565.898 245.967 558.695 238.766 558.695 229.929C558.695 221.092 565.898 213.891 574.738 213.891C583.577 213.891 590.781 221.092 590.781 229.929C590.781 238.766 583.577 245.967 574.738 245.967ZM574.738 215.356C566.706 215.356 560.182 221.878 560.182 229.907C560.182 237.937 566.727 244.459 574.738 244.459C582.748 244.459 589.293 237.937 589.293 229.907C589.293 221.878 582.77 215.356 574.738 215.356Z" fill="#BAAFFB"/>
<path d="M577.479 245.246H571.72L573.569 229.484L571.465 214.529L578.031 214.933L575.843 229.484L577.479 245.246Z" fill="#BAAFFB"/>
<path d="M562.796 239.934L559.927 234.942L574.504 228.675L586.403 219.371L589.336 225.255L575.63 230.63L562.796 239.934Z" fill="#BAAFFB"/>
<path d="M560.501 223.982L563.667 219.182L575.821 229.378L589.484 235.836L585.532 241.104L574.567 231.29L560.501 223.982Z" fill="#BAAFFB"/>
<path d="M569.34 229.91C569.34 226.957 571.741 224.557 574.695 224.557C577.649 224.557 580.05 226.957 580.05 229.91C580.05 232.862 577.649 235.263 574.695 235.263C571.741 235.263 569.34 232.862 569.34 229.91Z" fill="#BAAFFB"/>
<path d="M372.938 203.314L367.668 209.028C366.903 209.857 365.841 210.324 364.736 210.324H348.586C347.63 210.324 347.035 209.305 347.503 208.476L347.97 207.648C348.544 206.628 349.245 205.715 350.053 204.907C352.305 202.677 355.407 201.381 358.658 201.381H372.088C373.108 201.36 373.639 202.571 372.938 203.314Z" fill="#BAAFFB"/>
<path d="M355.79 229.932H351.2C349.691 229.932 348.289 230.76 347.545 232.077L347.396 232.353C347.248 232.629 347.439 232.991 347.779 232.991H353.304C353.686 232.991 354.047 232.842 354.302 232.544L356.108 230.59C356.321 230.335 356.13 229.932 355.79 229.932Z" fill="#1D2949"/>
<path d="M577.691 180.605L509.185 182.241C507.846 182.283 506.741 181.2 506.741 179.862V164.078C506.741 162.846 507.761 161.827 508.994 161.848C538.211 162.252 548.219 163.059 554.211 165.141C559.502 166.967 571.89 174.487 578.286 178.29C579.37 178.906 578.945 180.563 577.691 180.605Z" fill="#BAAFFB"/>
<path d="M500.77 161.722C501.875 161.743 502.959 161.743 504.043 161.765V182.349L437.959 183.921C437.088 183.942 436.748 182.816 437.449 182.349C445.162 177.144 471.022 161.382 500.77 161.722Z" fill="#BAAFFB"/>
<path d="M577.457 180.606H577.415V177.738C577.648 177.887 577.882 178.014 578.095 178.142C579.242 178.822 578.775 180.564 577.457 180.606Z" fill="#BAAFFB"/>
<path d="M506.72 183.176L498.645 182.539L499.176 160.531H506.72V183.176Z" fill="#AA73F0"/>
<path d="M557.993 183.177H554.211V163.422L557.993 165.674V183.177Z" fill="#AA73F0"/>
<path d="M446.182 176.994L448.201 183.664L437.173 183.919C436.535 183.94 436.259 183.112 436.769 182.73C439.276 180.966 443.887 177.78 446.182 176.994Z" fill="#2C3A64"/>
<path d="M436.705 184.492C436.259 184.492 435.855 184.216 435.728 183.77C435.579 183.324 435.749 182.856 436.11 182.601L436.344 182.453C436.578 182.283 436.854 182.113 437.152 181.9C437.385 181.73 437.661 181.561 437.938 181.391L438.363 181.114C438.681 180.902 439.021 180.69 439.361 180.456C439.616 180.286 439.871 180.137 440.148 179.967L440.19 179.946C440.233 179.925 440.275 179.904 440.318 179.882C440.551 179.734 440.785 179.585 441.04 179.436L441.104 179.394C441.189 179.351 441.274 179.288 441.359 179.245C441.486 179.16 441.614 179.096 441.741 179.011C441.932 178.905 442.102 178.799 442.294 178.672C442.825 178.353 443.399 178.013 443.994 177.673C444.185 177.567 444.355 177.461 444.546 177.355C444.929 177.142 445.311 176.93 445.694 176.696L445.97 176.547C446.756 176.101 447.563 175.676 448.371 175.251L448.626 175.124C448.753 175.06 448.86 174.997 448.987 174.933C450.496 174.147 452.068 173.361 453.619 172.617L454.108 172.384C454.597 172.15 455.085 171.916 455.595 171.704C455.765 171.619 455.935 171.555 456.105 171.47C456.445 171.322 456.785 171.173 457.125 171.024L457.635 170.791C458.145 170.557 458.698 170.323 459.314 170.068C459.633 169.941 459.951 169.813 460.27 169.665C462.438 168.773 464.626 167.944 466.815 167.179L467.282 167.009C467.452 166.946 467.643 166.882 467.813 166.818L468.493 166.585C468.685 166.521 468.855 166.457 469.046 166.393H469.067C469.258 166.33 469.45 166.266 469.641 166.202C470.002 166.096 470.342 165.969 470.703 165.862C470.937 165.777 471.192 165.714 471.426 165.629C471.808 165.522 472.169 165.395 472.552 165.289L473.189 165.119C473.593 165.013 473.976 164.885 474.379 164.779C475.166 164.567 475.973 164.354 476.759 164.163L476.802 164.142C476.865 164.12 476.95 164.099 477.014 164.099C477.354 164.014 477.694 163.929 478.055 163.844C478.268 163.802 478.459 163.738 478.672 163.696L478.82 163.653C478.969 163.611 479.139 163.589 479.288 163.547C479.5 163.504 479.713 163.462 479.904 163.398C480.116 163.356 480.329 163.313 480.541 163.271C480.754 163.228 480.966 163.186 481.179 163.143C481.391 163.101 481.604 163.058 481.816 163.016H481.859C482.05 162.973 482.263 162.931 482.454 162.888C482.645 162.846 482.858 162.803 483.049 162.782C483.283 162.74 483.495 162.697 483.729 162.655C483.877 162.633 484.026 162.612 484.175 162.57L484.387 162.527C484.812 162.463 485.259 162.379 485.684 162.315C485.896 162.272 486.109 162.251 486.342 162.209H486.385C486.767 162.145 487.15 162.102 487.532 162.039C488.255 161.932 488.956 161.847 489.657 161.763H489.7C489.891 161.741 490.103 161.72 490.295 161.699C490.422 161.678 490.571 161.678 490.72 161.656C490.868 161.635 491.017 161.614 491.166 161.614C491.336 161.593 491.506 161.571 491.655 161.571C491.867 161.55 492.101 161.529 492.334 161.508C492.547 161.486 492.759 161.465 492.972 161.465C493.142 161.444 493.312 161.444 493.482 161.423L494.438 161.359C494.629 161.338 494.821 161.338 495.012 161.316H495.097C495.309 161.295 495.522 161.295 495.734 161.274C495.904 161.274 496.074 161.253 496.244 161.253H496.266C496.414 161.253 496.563 161.231 496.712 161.231L497.094 161.21C497.243 161.21 497.392 161.21 497.54 161.189C498.135 161.168 498.688 161.38 499.092 161.805C499.517 162.209 499.75 162.761 499.75 163.334V180.392C499.75 181.815 498.603 182.984 497.179 183.026L436.769 184.45C436.727 184.492 436.705 184.492 436.705 184.492ZM446.671 177.333L446.288 177.546C445.864 177.779 445.439 178.034 445.014 178.268C444.822 178.374 444.631 178.48 444.461 178.587C443.866 178.926 443.314 179.266 442.782 179.585C442.591 179.691 442.421 179.797 442.23 179.925C442.102 180.01 441.975 180.074 441.847 180.159C441.762 180.201 441.678 180.265 441.614 180.307L441.55 180.35C441.295 180.498 441.061 180.647 440.828 180.796L440.679 180.881C440.403 181.051 440.148 181.221 439.893 181.369C439.531 181.603 439.213 181.815 438.894 182.007L438.469 182.283C438.193 182.474 437.938 182.644 437.704 182.793C437.406 182.984 437.152 183.175 436.918 183.324L436.812 183.409L448.158 183.132L497.094 181.964C497.923 181.943 498.603 181.242 498.603 180.413V163.356C498.603 163.058 498.497 162.782 498.284 162.591C498.072 162.379 497.795 162.272 497.498 162.294C497.349 162.294 497.2 162.294 497.052 162.315L496.669 162.336C496.52 162.336 496.372 162.357 496.223 162.357H496.202C496.032 162.357 495.862 162.379 495.692 162.379C495.479 162.379 495.267 162.4 495.076 162.421H494.991C494.799 162.421 494.629 162.442 494.438 162.464L493.482 162.527C493.312 162.548 493.163 162.548 492.993 162.57C492.759 162.591 492.547 162.612 492.356 162.612C492.122 162.633 491.91 162.655 491.697 162.676C491.527 162.697 491.357 162.697 491.208 162.718C491.06 162.74 490.911 162.74 490.762 162.761C490.613 162.782 490.465 162.782 490.337 162.803C490.146 162.825 489.955 162.846 489.742 162.867H489.7C488.998 162.952 488.297 163.037 487.596 163.143C487.214 163.186 486.831 163.249 486.47 163.313H486.449C486.236 163.356 486.024 163.377 485.811 163.419C485.386 163.483 484.961 163.568 484.536 163.632L484.324 163.674C484.175 163.696 484.026 163.717 483.899 163.759C483.665 163.802 483.453 163.844 483.219 163.887C483.028 163.929 482.815 163.972 482.624 163.993C482.433 164.035 482.22 164.078 482.029 164.12H481.986C481.774 164.163 481.561 164.205 481.37 164.248C481.158 164.29 480.945 164.333 480.733 164.375C480.52 164.418 480.308 164.46 480.116 164.503C479.904 164.545 479.692 164.588 479.5 164.651C479.352 164.694 479.182 164.715 479.033 164.758L478.884 164.8C478.672 164.843 478.48 164.885 478.268 164.949C477.928 165.034 477.588 165.119 477.248 165.204C477.184 165.225 477.12 165.246 477.057 165.246L477.014 165.268C476.228 165.459 475.421 165.671 474.656 165.884C474.252 165.99 473.869 166.096 473.487 166.202L472.871 166.372C472.509 166.478 472.127 166.585 471.766 166.712C471.532 166.776 471.277 166.861 471.043 166.924C470.682 167.031 470.342 167.137 470.002 167.264C469.811 167.328 469.62 167.392 469.428 167.455H469.407C469.216 167.519 469.046 167.583 468.855 167.625L468.175 167.859C468.005 167.923 467.813 167.987 467.643 168.05L467.176 168.22C465.009 168.964 462.82 169.813 460.695 170.684C460.376 170.812 460.058 170.939 459.739 171.088C459.123 171.343 458.592 171.577 458.082 171.81L457.572 172.044C457.232 172.193 456.892 172.341 456.552 172.49C456.382 172.575 456.212 172.639 456.063 172.724C455.553 172.957 455.064 173.17 454.597 173.403L454.108 173.637C452.557 174.381 451.027 175.145 449.518 175.931C449.391 175.995 449.285 176.059 449.157 176.122L448.902 176.25C448.116 176.547 447.393 176.951 446.671 177.333Z" fill="#1D2949"/>
<path d="M559.119 181.604C558.716 181.604 558.333 181.456 558.036 181.158C557.696 180.84 557.504 180.372 557.504 179.884V168.37C557.504 167.712 557.611 166.883 558.142 166.543C558.631 166.246 559.438 166.458 559.927 166.713C560.5 166.989 560.883 167.181 561.095 167.308C561.117 167.329 561.159 167.329 561.18 167.351L561.414 167.478C564.283 169.05 568.362 171.514 573.568 174.807C573.781 174.955 574.015 175.083 574.227 175.232C574.758 175.571 575.268 175.89 575.757 176.209L577.584 177.377C577.903 177.59 578.201 177.781 578.498 177.972C578.541 177.993 578.583 178.036 578.626 178.057L578.668 178.078C579.284 178.482 579.539 179.225 579.348 179.947C579.157 180.627 578.583 181.095 577.903 181.116H577.712L559.183 181.604C559.141 181.604 559.141 181.604 559.119 181.604ZM559.226 167.499C559.077 167.499 558.949 167.563 558.864 167.606C558.609 167.754 558.461 168.052 558.461 168.37V179.884C558.461 180.117 558.546 180.309 558.694 180.457C558.822 180.585 558.971 180.627 559.119 180.627L577.839 180.139C578.222 180.139 578.349 179.777 578.371 179.671C578.434 179.416 578.413 179.055 578.094 178.864L578.052 178.843C578.009 178.822 577.967 178.779 577.924 178.758C577.627 178.567 577.329 178.375 577.011 178.163L575.183 176.995C574.695 176.676 574.185 176.357 573.653 176.018C573.441 175.869 573.228 175.741 572.995 175.593C567.831 172.3 563.751 169.857 560.904 168.285L560.67 168.158C560.649 168.137 560.628 168.137 560.607 168.115C560.394 168.009 560.012 167.797 559.459 167.542C559.417 167.521 559.311 167.499 559.226 167.499Z" fill="#1D2949"/>
<path d="M446.182 176.994L448.201 183.664L437.173 183.919C436.535 183.94 436.259 183.112 436.769 182.73C439.276 180.966 443.887 177.78 446.182 176.994Z" fill="#2C3A64"/>
<path d="M509.121 182.773C508.356 182.773 507.633 182.475 507.081 181.944C506.507 181.392 506.188 180.649 506.188 179.841V164.058C506.188 163.315 506.486 162.614 507.017 162.083C507.548 161.552 508.25 161.275 508.993 161.275C539.145 161.7 548.474 162.38 554.402 164.61L554.742 164.738V181.668L509.185 182.752C509.163 182.773 509.142 182.773 509.121 182.773ZM508.951 162.38C508.505 162.38 508.08 162.55 507.761 162.869C507.442 163.187 507.251 163.612 507.251 164.058V179.841C507.251 180.351 507.442 180.819 507.803 181.158C508.165 181.52 508.632 181.689 509.142 181.689L553.658 180.627V165.503C547.9 163.463 538.019 162.784 508.972 162.38C508.972 162.38 508.972 162.38 508.951 162.38Z" fill="#1D2949"/>
<path d="M631.259 197.983H618.361C616.448 197.983 614.621 197.113 613.452 195.604L608.565 189.402C608.098 188.807 608.523 187.957 609.266 187.957H629.708L631.259 197.983Z" fill="#F4796F"/>
<path d="M503.473 161.585L502.676 230.68L503.207 230.686L504.004 161.591L503.473 161.585Z" fill="#1D2949"/>
<path d="M549.156 229.638L415.826 232.305L415.836 232.836L549.167 230.169L549.156 229.638Z" fill="#1D2949"/>
<path d="M495.543 196.665C495.543 197.387 492.292 197.982 488.255 197.982C484.217 197.982 480.966 197.387 480.966 196.665C480.966 195.942 484.217 195.348 488.255 195.348C492.292 195.348 495.543 195.921 495.543 196.665Z" fill="#2C3A64"/>
<path d="M563.391 196.665C563.391 197.387 560.14 197.982 556.102 197.982C552.086 197.982 548.814 197.387 548.814 196.665C548.814 195.942 552.065 195.348 556.102 195.348C560.118 195.348 563.391 195.921 563.391 196.665Z" fill="#2C3A64"/>
<path d="M543.969 229.952L543.438 229.931C543.82 223.07 545.839 217.27 549.494 212.724C552.405 209.092 556.357 206.224 561.202 204.249C568.596 201.232 575.906 201.147 577.415 201.168V180.627H577.946V201.721L577.67 201.7C577.585 201.7 569.531 201.402 561.372 204.737C556.612 206.692 552.745 209.496 549.876 213.064C546.328 217.504 544.33 223.197 543.969 229.952Z" fill="#1D2949"/>
<path d="M432.073 232.225C431.861 214.402 432.859 202.082 433.731 194.859C434.665 187.042 435.685 183.388 435.685 183.346L436.195 183.494C436.153 183.643 432.201 198.194 432.604 232.203L432.073 232.225Z" fill="#1D2949"/>
<path d="M508.993 161.551H498.433V162.082H508.993V161.551Z" fill="#1D2949"/>
<path d="M358 210.302H348.586C347.63 210.302 347.035 209.282 347.503 208.454L347.97 207.625C348.544 206.605 349.245 205.692 350.053 204.885L355.747 205.819L353.495 208.284L356.194 208.836L358 210.302Z" fill="#2C3A64"/>
<path d="M354.961 195.093C354.749 195.093 354.536 194.987 354.387 194.796C354.154 194.477 354.239 194.052 354.557 193.819C354.6 193.776 355.705 193.011 359.253 190.845C362.972 188.572 366.542 188.104 368.879 187.956C370.324 187.85 371.748 185.768 372.598 184.514C372.916 184.047 373.15 183.686 373.363 183.452C373.703 183.091 374.043 182.709 399.817 182.22C412.418 181.987 427.951 181.838 425.21 181.838H428.078C428.461 181.838 428.482 182.751 428.546 183.134C429.396 187.786 424.36 185.47 423.956 185.47C404.726 185.683 376.89 183.962 374.276 184.514C374.128 184.706 373.936 184.982 373.724 185.3C372.661 186.851 371.068 189.209 368.943 189.358C366.733 189.506 363.397 189.953 359.933 192.056C356.449 194.18 355.322 194.966 355.322 194.987C355.259 195.051 355.11 195.093 354.961 195.093Z" fill="#AA73F0"/>
<path d="M456.02 186.511H447.457C445.927 186.511 444.652 185.258 444.652 183.707V181.37C444.652 179.841 445.906 178.566 447.457 178.566H456.02C457.55 178.566 458.825 179.82 458.825 181.37V183.707C458.825 185.258 457.572 186.511 456.02 186.511Z" fill="#6390E0"/>
<path d="M25.541 234.433H204.435L264.845 228.995C264.845 228.995 254.029 202.06 251.097 201.656C248.143 201.252 31.2144 201.656 31.2144 201.656L25.541 234.433Z" fill="#1D2949"/>
<path d="M293.021 207.583C292.383 209.771 291.215 210.238 291.215 214.975C291.215 216.823 291.64 219.16 290.705 221.221C290.301 222.113 287.794 223.6 288.495 226.574C288.495 226.574 284.351 229.781 284.181 230.185C284.011 230.589 283.714 232.861 283.714 232.861C279.252 234.688 259.299 233.987 259.299 233.987C259.299 233.987 259.915 201.019 232.185 204.864C204.456 208.709 209.301 236.09 209.301 236.09L76.0281 238.47C76.0281 238.47 78.1955 203.717 48.7659 207.37C24.3298 210.408 30.5982 238.342 30.5982 238.342C6.22586 239.595 3.71851 231.332 3.71851 231.332V227.912H5.24842V218.926H3.71851V212.214L8.83946 200.488C11.0068 196.77 16.8503 193.754 24.4148 191.29C47.1085 183.897 85.1864 181.625 85.1864 181.625C95.4708 175.719 103.992 171.322 110.664 168.135C121.309 163.037 133.442 158.088 145.172 156.919C176.96 153.776 203.096 157.344 209.492 158.385C216.971 159.596 254.603 175.974 257.45 177.397C260.298 178.82 283.395 180.732 286.349 181.093C289.323 181.455 289.217 184.429 289.217 184.429L289.621 187.063L289.132 188.613L286.922 187.849L287.857 191.184L287.56 192.586L290.535 193.053L291.151 197.11L291.533 199.553C293.743 200.573 293.361 206.457 293.021 207.583Z" fill="#5F46F9"/>
<path d="M72.893 232.744C74.9698 221.602 67.6188 210.887 56.474 208.811C45.3292 206.735 34.6109 214.083 32.5341 225.225C30.4573 236.366 37.8083 247.082 48.9531 249.158C60.0979 251.234 70.8161 243.885 72.893 232.744Z" fill="#2C3A64"/>
<path d="M52.7181 245.033C43.8786 245.033 36.6753 237.832 36.6753 228.995C36.6753 220.158 43.8786 212.957 52.7181 212.957C61.5576 212.957 68.761 220.158 68.761 228.995C68.761 237.832 61.5576 245.033 52.7181 245.033ZM52.7181 214.423C44.6861 214.423 38.1627 220.965 38.1627 228.974C38.1627 237.004 44.7073 243.525 52.7181 243.525C60.7502 243.525 67.2735 236.982 67.2735 228.974C67.2735 220.944 60.7502 214.423 52.7181 214.423Z" fill="#BAAFFB"/>
<path d="M55.4594 244.31H49.701L51.5497 228.548L49.446 213.572L56.0119 213.997L53.8233 228.548L55.4594 244.31Z" fill="#BAAFFB"/>
<path d="M40.7763 238.977L37.9077 234.006L52.4844 227.718L64.3837 218.414L67.316 224.319L53.6106 229.694L40.7763 238.977Z" fill="#BAAFFB"/>
<path d="M38.4812 223.047L41.6473 218.246L53.8016 228.442L67.4645 234.9L63.5123 240.168L52.5479 230.333L38.4812 223.047Z" fill="#BAAFFB"/>
<path d="M47.321 228.953C47.321 226 49.7222 223.6 52.6757 223.6C55.6293 223.6 58.0304 226 58.0304 228.953C58.0304 231.905 55.6293 234.306 52.6757 234.306C49.7222 234.306 47.321 231.905 47.321 228.953Z" fill="#BAAFFB"/>
<path d="M254.329 234.922C257.615 224.075 251.482 212.619 240.632 209.335C229.782 206.051 218.323 212.181 215.038 223.028C211.753 233.875 217.885 245.33 228.735 248.615C239.585 251.899 251.044 245.768 254.329 234.922Z" fill="#2C3A64"/>
<path d="M234.693 245.033C225.853 245.033 218.65 237.832 218.65 228.995C218.65 220.158 225.853 212.957 234.693 212.957C243.532 212.957 250.736 220.158 250.736 228.995C250.736 237.832 243.532 245.033 234.693 245.033ZM234.693 214.423C226.661 214.423 220.137 220.965 220.137 228.974C220.137 237.004 226.682 243.525 234.693 243.525C242.704 243.525 249.248 236.982 249.248 228.974C249.248 220.944 242.725 214.423 234.693 214.423Z" fill="#BAAFFB"/>
<path d="M237.434 244.312H231.676L233.524 228.55L231.421 213.574L237.987 213.999L235.798 228.55L237.434 244.312Z" fill="#BAAFFB"/>
<path d="M222.751 238.979L219.883 234.008L234.459 227.72L246.359 218.416L249.291 224.321L235.585 229.696L222.751 238.979Z" fill="#BAAFFB"/>
<path d="M220.456 223.049L223.601 218.248L235.755 228.444L249.418 234.902L245.487 240.17L234.523 230.335L220.456 223.049Z" fill="#BAAFFB"/>
<path d="M229.296 228.955C229.296 226.002 231.697 223.602 234.651 223.602C237.604 223.602 240.005 226.002 240.005 228.955C240.005 231.907 237.604 234.308 234.651 234.308C231.697 234.308 229.296 231.907 229.296 228.955Z" fill="#BAAFFB"/>
<path d="M32.0432 200.404H18.614C14.173 200.404 10.072 202.805 7.90458 206.692L7.4371 207.521C6.96963 208.349 7.56459 209.369 8.52079 209.369H24.6699C25.7748 209.369 26.8585 208.901 27.6022 208.073L32.8719 202.359C33.5944 201.615 33.0631 200.404 32.0432 200.404Z" fill="#F9DDBF"/>
<path d="M15.7241 228.975H11.1556C9.64695 228.975 8.24453 229.803 7.50082 231.12L7.35208 231.396C7.20334 231.672 7.39457 232.034 7.71331 232.034H13.238C13.6205 232.034 13.9817 231.885 14.2367 231.587L16.0428 229.633C16.2553 229.399 16.0853 228.975 15.7241 228.975Z" fill="#1D2949"/>
<path d="M237.625 179.648L169.119 181.284C167.78 181.326 166.676 180.243 166.676 178.905V163.121C166.676 161.889 167.695 160.87 168.928 160.891C198.145 161.295 208.153 162.102 214.145 164.184C219.436 166.01 231.824 173.53 238.22 177.333C239.325 177.97 238.879 179.627 237.625 179.648Z" fill="#BAAFFB"/>
<path d="M160.726 160.787C161.831 160.808 162.914 160.808 163.998 160.829V181.413L97.9144 182.985C97.0432 183.006 96.7032 181.88 97.4044 181.413C105.118 176.187 130.977 160.447 160.726 160.787Z" fill="#BAAFFB"/>
<path d="M237.391 179.649H237.349V176.781C237.583 176.93 237.816 177.057 238.029 177.185C239.176 177.886 238.73 179.628 237.391 179.649Z" fill="#BAAFFB"/>
<path d="M166.676 182.24L158.58 181.581L159.132 159.574H166.676V182.24Z" fill="#5F46F9"/>
<path d="M217.949 182.242H214.167V162.465L217.949 164.738V182.242Z" fill="#5F46F9"/>
<path d="M106.138 176.059L108.157 182.729L97.1284 182.984C96.4909 183.005 96.2147 182.176 96.7246 181.794C99.2108 180.01 103.843 176.823 106.138 176.059Z" fill="#2C3A64"/>
<path d="M96.6606 183.535C96.2144 183.535 95.8107 183.259 95.6832 182.813C95.5345 182.367 95.7045 181.899 96.0657 181.644L96.2994 181.496C96.5332 181.326 96.8094 181.156 97.1069 180.943C97.3406 180.773 97.6168 180.604 97.8931 180.434L98.3181 180.157C98.6368 179.945 98.9768 179.733 99.3167 179.499C99.5717 179.329 99.8267 179.18 100.103 179.01L100.145 178.989C100.188 178.968 100.23 178.947 100.273 178.925C100.507 178.777 100.74 178.628 100.995 178.479L101.059 178.437C101.144 178.394 101.229 178.331 101.314 178.288C101.442 178.203 101.569 178.139 101.697 178.054C101.888 177.948 102.058 177.842 102.249 177.715C102.78 177.396 103.354 177.056 103.949 176.716C104.14 176.61 104.31 176.504 104.501 176.397C104.884 176.185 105.266 175.973 105.649 175.739L105.925 175.59C106.711 175.144 107.519 174.719 108.326 174.294L108.581 174.167C108.709 174.103 108.815 174.04 108.942 173.976C110.451 173.19 112.024 172.404 113.575 171.66L114.063 171.427C114.552 171.193 115.041 170.959 115.551 170.747C115.721 170.662 115.891 170.598 116.061 170.513C116.401 170.365 116.741 170.216 117.081 170.067L117.591 169.834C118.101 169.6 118.653 169.366 119.269 169.111C119.588 168.984 119.907 168.856 120.226 168.708C122.393 167.816 124.582 166.987 126.77 166.222L127.238 166.052C127.408 165.989 127.599 165.925 127.769 165.861L128.449 165.628C128.64 165.564 128.81 165.5 129.001 165.436H129.023C129.214 165.373 129.405 165.309 129.596 165.245C129.958 165.139 130.297 165.011 130.659 164.905C130.892 164.82 131.147 164.757 131.381 164.672C131.764 164.565 132.125 164.438 132.507 164.332L133.145 164.162C133.549 164.056 133.931 163.928 134.335 163.822C135.121 163.609 135.928 163.397 136.715 163.206L136.757 163.185C136.821 163.163 136.906 163.142 136.97 163.142C137.31 163.057 137.65 162.972 138.011 162.887C138.223 162.845 138.415 162.781 138.627 162.739L138.776 162.696C138.925 162.654 139.094 162.632 139.243 162.59C139.456 162.547 139.668 162.505 139.859 162.441C140.072 162.399 140.284 162.356 140.497 162.314C140.709 162.271 140.922 162.229 141.134 162.186C141.347 162.144 141.559 162.101 141.772 162.059H141.814C142.006 162.016 142.218 161.974 142.409 161.931C142.601 161.889 142.813 161.846 143.004 161.825C143.238 161.783 143.451 161.74 143.684 161.698C143.833 161.676 143.982 161.655 144.13 161.613L144.343 161.57C144.768 161.506 145.214 161.421 145.639 161.358C145.852 161.315 146.064 161.294 146.298 161.252H146.34C146.723 161.188 147.105 161.145 147.488 161.082C148.21 160.975 148.911 160.89 149.613 160.805H149.655C149.846 160.784 150.059 160.763 150.25 160.742C150.378 160.721 150.526 160.72 150.675 160.699C150.824 160.678 150.973 160.657 151.121 160.657C151.291 160.636 151.461 160.614 151.61 160.614C151.823 160.593 152.056 160.572 152.29 160.551C152.502 160.529 152.715 160.508 152.927 160.508C153.097 160.487 153.267 160.487 153.437 160.466L154.394 160.402C154.585 160.381 154.776 160.381 154.967 160.359H155.052C155.265 160.338 155.477 160.338 155.69 160.317C155.86 160.317 156.03 160.296 156.2 160.296H156.221C156.37 160.296 156.519 160.274 156.667 160.274L157.05 160.253C157.198 160.253 157.347 160.253 157.496 160.232C158.091 160.211 158.643 160.423 159.047 160.848C159.472 161.252 159.706 161.804 159.706 162.377V179.435C159.706 180.858 158.558 182.027 157.135 182.069L96.6819 183.535C96.6606 183.535 96.6606 183.535 96.6606 183.535ZM106.626 176.397L106.244 176.61C105.798 176.844 105.394 177.098 104.969 177.332C104.778 177.438 104.586 177.545 104.416 177.651C103.821 177.991 103.269 178.331 102.738 178.649C102.547 178.755 102.377 178.862 102.185 178.989C102.058 179.074 101.93 179.138 101.803 179.223C101.718 179.265 101.633 179.329 101.569 179.371L101.505 179.414C101.25 179.563 101.017 179.711 100.783 179.86L100.634 179.945C100.358 180.115 100.103 180.285 99.848 180.434C99.4867 180.667 99.168 180.88 98.8493 181.071L98.4243 181.347C98.1481 181.538 97.8931 181.708 97.6593 181.857C97.3619 182.048 97.1069 182.239 96.8731 182.388L96.7669 182.473L108.114 182.197L157.05 181.028C157.878 181.007 158.558 180.306 158.558 179.478V162.42C158.558 162.123 158.452 161.846 158.24 161.655C158.027 161.443 157.751 161.337 157.453 161.358C157.305 161.358 157.156 161.358 157.007 161.379L156.625 161.4C156.476 161.4 156.327 161.422 156.179 161.422H156.157C155.987 161.422 155.817 161.443 155.647 161.443C155.435 161.443 155.222 161.464 155.031 161.485H154.946C154.755 161.485 154.585 161.506 154.394 161.528L153.437 161.591C153.267 161.613 153.119 161.613 152.949 161.634C152.715 161.655 152.502 161.676 152.311 161.676C152.078 161.698 151.865 161.719 151.653 161.74C151.483 161.761 151.313 161.761 151.164 161.783C151.015 161.804 150.866 161.804 150.718 161.825C150.569 161.846 150.42 161.846 150.293 161.868C150.101 161.889 149.91 161.91 149.698 161.931H149.655C148.954 162.016 148.253 162.101 147.552 162.207C147.169 162.25 146.787 162.314 146.425 162.377H146.404C146.192 162.42 145.979 162.441 145.767 162.484C145.342 162.547 144.917 162.632 144.492 162.696L144.279 162.739C144.13 162.76 143.982 162.781 143.854 162.824C143.62 162.866 143.408 162.908 143.174 162.951C142.983 162.993 142.771 163.036 142.579 163.057C142.388 163.1 142.176 163.142 141.984 163.185H141.942C141.729 163.227 141.517 163.27 141.326 163.312C141.113 163.355 140.901 163.397 140.688 163.44C140.476 163.482 140.263 163.525 140.072 163.567C139.859 163.609 139.647 163.652 139.456 163.716C139.307 163.758 139.137 163.779 138.988 163.822L138.84 163.864C138.627 163.907 138.436 163.949 138.223 164.013C137.883 164.098 137.543 164.183 137.203 164.268C137.14 164.289 137.076 164.31 137.012 164.31L136.97 164.332C136.183 164.523 135.376 164.735 134.611 164.948C134.207 165.054 133.825 165.16 133.442 165.266L132.826 165.436C132.465 165.543 132.082 165.649 131.721 165.776C131.487 165.84 131.232 165.925 130.999 165.989C130.637 166.095 130.297 166.201 129.936 166.329C129.745 166.392 129.554 166.456 129.363 166.52H129.341C129.15 166.583 128.98 166.647 128.789 166.69L128.109 166.923C127.939 166.987 127.748 167.051 127.578 167.115L127.11 167.284C124.943 168.028 122.754 168.878 120.629 169.749C120.311 169.876 119.992 170.003 119.673 170.152C119.057 170.407 118.526 170.641 118.016 170.874L117.506 171.108C117.166 171.257 116.826 171.405 116.486 171.554C116.316 171.639 116.146 171.703 115.997 171.788C115.487 172.022 114.998 172.234 114.531 172.468L114.042 172.701C112.491 173.445 110.961 174.21 109.452 174.995C109.325 175.059 109.219 175.123 109.091 175.187L108.836 175.314C108.071 175.612 107.349 175.994 106.626 176.397Z" fill="#1D2949"/>
<path d="M219.075 180.647C218.671 180.647 218.289 180.499 217.991 180.201C217.651 179.883 217.46 179.415 217.46 178.927V167.413C217.46 166.755 217.566 165.926 218.098 165.586C218.586 165.289 219.394 165.501 219.883 165.756C220.456 166.032 220.839 166.224 221.051 166.351C221.073 166.372 221.115 166.372 221.136 166.394L221.37 166.521C224.239 168.093 228.318 170.557 233.524 173.85C233.737 173.998 233.971 174.126 234.183 174.275C234.714 174.614 235.224 174.933 235.713 175.252L237.54 176.42C237.859 176.632 238.157 176.824 238.454 177.015C238.496 177.036 238.539 177.079 238.582 177.1L238.624 177.121C239.24 177.525 239.495 178.268 239.304 178.99C239.113 179.67 238.539 180.137 237.859 180.159H237.668L219.139 180.647C219.096 180.647 219.075 180.647 219.075 180.647ZM219.16 166.564C219.011 166.564 218.884 166.627 218.799 166.67C218.544 166.818 218.395 167.116 218.395 167.434V178.948C218.395 179.182 218.48 179.373 218.629 179.521C218.756 179.649 218.905 179.691 219.054 179.691L237.774 179.203C238.157 179.203 238.284 178.842 238.305 178.735C238.369 178.481 238.348 178.119 238.029 177.928L237.987 177.907C237.944 177.886 237.902 177.843 237.859 177.822C237.562 177.631 237.264 177.44 236.945 177.227L235.118 176.059C234.629 175.74 234.119 175.422 233.588 175.082C233.376 174.933 233.142 174.806 232.929 174.657C227.766 171.364 223.686 168.921 220.839 167.349L220.605 167.222C220.584 167.201 220.563 167.201 220.541 167.18C220.329 167.073 219.946 166.861 219.394 166.606C219.351 166.585 219.266 166.564 219.16 166.564Z" fill="#1D2949"/>
<path d="M106.138 176.059L108.157 182.729L97.1284 182.984C96.4909 183.005 96.2147 182.176 96.7246 181.794C99.2108 180.01 103.843 176.823 106.138 176.059Z" fill="#2C3A64"/>
<path d="M169.055 181.816C168.29 181.816 167.568 181.518 167.015 180.987C166.442 180.435 166.123 179.692 166.123 178.884V163.101C166.123 162.358 166.421 161.657 166.952 161.126C167.483 160.595 168.184 160.318 168.928 160.318C199.08 160.743 208.408 161.423 214.337 163.653L214.677 163.781V180.711L169.14 181.816C169.119 181.816 169.098 181.816 169.055 181.816ZM168.907 161.423C168.46 161.423 168.035 161.593 167.717 161.912C167.398 162.23 167.207 162.655 167.207 163.101V178.884C167.207 179.394 167.398 179.862 167.759 180.201C168.12 180.563 168.588 180.732 169.098 180.732L213.614 179.67V164.546C207.856 162.506 197.975 161.827 168.928 161.423C168.928 161.423 168.907 161.423 168.907 161.423Z" fill="#1D2949"/>
<path d="M291.214 197.048H278.316C276.404 197.048 274.577 196.177 273.408 194.669L268.521 188.466C268.053 187.871 268.478 187.021 269.222 187.021H289.663L289.175 188.572L286.965 187.807L287.9 191.143L287.602 192.545L290.577 193.012L291.214 197.048Z" fill="#F4796F"/>
<path d="M163.446 160.62L162.621 229.715L163.152 229.721L163.977 160.626L163.446 160.62Z" fill="#1D2949"/>
<path d="M209.09 228.715L75.7595 231.355L75.77 231.886L209.101 229.246L209.09 228.715Z" fill="#1D2949"/>
<path d="M155.499 195.708C155.499 196.43 152.247 197.025 148.21 197.025C144.194 197.025 140.922 196.43 140.922 195.708C140.922 194.985 144.173 194.391 148.21 194.391C152.226 194.391 155.499 194.985 155.499 195.708Z" fill="white"/>
<path d="M223.346 195.708C223.346 196.43 220.095 197.025 216.058 197.025C212.042 197.025 208.769 196.43 208.769 195.708C208.769 194.985 212.02 194.391 216.058 194.391C220.074 194.391 223.346 194.985 223.346 195.708Z" fill="white"/>
<path d="M203.903 228.995L203.372 228.974C203.755 222.113 205.773 216.313 209.428 211.767C212.339 208.135 216.291 205.267 221.136 203.292C228.531 200.275 235.84 200.19 237.349 200.211V179.67H237.88V200.764L237.604 200.743C237.519 200.743 229.466 200.445 221.306 203.78C216.546 205.735 212.679 208.539 209.81 212.107C206.262 216.568 204.286 222.24 203.903 228.995Z" fill="#1D2949"/>
<path d="M92.0284 231.289C91.816 213.467 92.8147 201.146 93.6859 193.924C94.6208 186.106 95.6407 182.453 95.6407 182.41L96.1507 182.559C96.1082 182.708 92.1559 197.259 92.5597 231.268L92.0284 231.289Z" fill="#1D2949"/>
<path d="M168.949 160.615H158.388V161.146H168.949V160.615Z" fill="#1D2949"/>
<path d="M288.474 226.574C288.474 226.574 286.413 225.681 285.18 225.448C283.948 225.214 276.723 226.149 276.723 226.149C276.723 226.149 279.825 224.046 281.462 223.345C283.098 222.644 290.705 221.199 290.705 221.199C290.301 222.113 287.794 223.6 288.474 226.574Z" fill="#5139E5"/>
<path d="M291.215 212.151L284.755 209.453L280.909 204.334L289.536 207.478L293.021 207.584L291.215 212.151Z" fill="#5139E5"/>
<path d="M285.116 216.101C285.116 216.101 278.933 215.4 277.551 216.101C276.149 216.802 272.664 220.413 273.132 221.22C273.599 222.027 279.761 218.459 282.099 218.501C284.436 218.543 291.321 217.375 291.321 217.375L285.116 216.101Z" fill="#5139E5"/>
<path d="M291.214 197.048H284.181L283.884 196.007L286.497 194.393L282.311 193.224L281.27 191.291L284.925 189.486L283.586 187.021H289.663L289.175 188.551L286.965 187.786L287.9 191.121L287.602 192.523L290.577 192.991L291.214 197.048Z" fill="#7A231F"/>
<path d="M118.887 186.935H107.349C105.819 186.935 104.544 185.681 104.544 184.131V180.732C104.544 179.202 105.798 177.928 107.349 177.928H118.887C120.417 177.928 121.692 179.181 121.692 180.732V184.131C121.692 185.681 120.417 186.935 118.887 186.935Z" fill="white"/>
<path d="M625.267 250.917V251.235C625.267 251.66 624.927 252 624.544 252L153.352 250.428L8.81825 249.94L0.722459 249.918C0.318732 249.918 0 249.579 0 249.154V248.835C0 248.41 0.339981 248.07 0.722459 248.07L8.81825 248.092L591.354 250.046L624.544 250.152C624.948 250.152 625.267 250.513 625.267 250.917Z" fill="#2E3552"/>
</svg>
