<svg width="177" height="357" viewBox="0 0 177 357" fill="none" xmlns="http://www.w3.org/2000/svg">
<g clip-path="url(#clip0)">
<path d="M176.7 16.1C176.7 16.1 176.7 16.2 176.7 16.1C176.7 16.4 176.7 16.6 176.6 16.9C167.3 126.7 158 236.5 148.7 346.3C148.7 351.9 122.6 356.5 90.4 356.5C58.2 356.5 32 351.9 32 346.3C32 346.1 32 345.9 32.1 345.7C21.5 236.1 10.8 126.6 0.1 17C0.1 16.7 0 16.5 0 16.2C0 16.2 0 16.2 0 16.1C0.5 7.2 39.8 0 88.4 0C137 0 176.2 7.2 176.7 16.1Z" fill="url(#paint0_linear)"/>
<path d="M176.7 16.2996C176.7 16.4996 176.7 16.6996 176.6 16.8996C176.7 16.5996 176.7 16.3996 176.7 16.2996C176.7 16.1996 176.7 16.1996 176.7 16.2996Z" fill="#EDF1F7"/>
<path d="M87.5 39.6C128.756 39.6 162.2 32.3022 162.2 23.3C162.2 14.2978 128.756 7 87.5 7C46.2443 7 12.8 14.2978 12.8 23.3C12.8 32.3022 46.2443 39.6 87.5 39.6Z" fill="white" fill-opacity="0.56"/>
<path d="M25.2 175.9C29.9 229.4 34.5 282.9 39.2 336.5C72 336.5 104.8 336.5 137.6 336.5C143.1 283.3 148.6 230.2 154.1 177" fill="#AF6BFE"/>
<path d="M89.6 191C125.167 191 154 184.732 154 177C154 169.268 125.167 163 89.6 163C54.0329 163 25.2 169.268 25.2 177C25.2 184.732 54.0329 191 89.6 191Z" fill="#7E67FF"/>
<path d="M88.4 345.7C115.572 345.7 137.6 341.581 137.6 336.5C137.6 331.419 115.572 327.3 88.4 327.3C61.2276 327.3 39.2 331.419 39.2 336.5C39.2 341.581 61.2276 345.7 88.4 345.7Z" fill="#8849E4"/>
<line x1="45.203" y1="208.786" x2="50.7862" y2="315.797" stroke="white" stroke-opacity="0.62" stroke-width="8" stroke-linecap="round"/>
<line x1="145.765" y1="89.2217" x2="142.222" y2="151.232" stroke="white" stroke-opacity="0.62" stroke-width="8" stroke-linecap="round"/>
</g>
<defs>
<linearGradient id="paint0_linear" x1="185" y1="47.5" x2="-65.5" y2="123" gradientUnits="userSpaceOnUse">
<stop stop-color="#D4D4FE"/>
<stop offset="1" stop-color="#BFB7F2"/>
</linearGradient>
<clipPath id="clip0">
<rect width="176.7" height="356.5" fill="white"/>
</clipPath>
</defs>
</svg>
