<svg width="754" height="202" viewBox="0 0 754 202" fill="none" xmlns="http://www.w3.org/2000/svg">
<g clip-path="url(#clip0)">
<path d="M92.9186 201H14.0996C6.34575 201 0 194.668 0 186.931V14.0691C0 6.332 6.34575 0 14.0996 0H92.9186C100.673 0 107.018 6.332 107.018 14.0691V186.931C107 194.668 100.654 201 92.9186 201Z" fill="url(#paint0_linear)"/>
<path d="M101.697 15.401V184.267C101.697 189.996 97.0335 194.686 91.3278 194.686H15.6725C9.96685 194.686 5.32183 189.996 5.32183 184.267V15.401C5.30354 9.67114 9.96685 4.98145 15.6725 4.98145H91.3461C97.0335 4.98145 101.697 9.67114 101.697 15.401Z" fill="#FAFAFA"/>
<path d="M91.3461 4.98145L16.6052 194.668H15.6725C9.96685 194.668 5.32183 189.978 5.32183 184.248V15.401C5.30354 9.67114 9.96685 4.98145 15.6725 4.98145H91.3461Z" fill="#D8CBFD"/>
<path d="M69.3096 11.2593H37.6723C35.0938 11.2593 32.9907 9.16083 32.9907 6.58788V5.85797C32.9907 3.28503 35.0938 1.18652 37.6723 1.18652H69.3096C71.8882 1.18652 73.9912 3.28503 73.9912 5.85797V6.58788C74.0095 9.16083 71.8882 11.2593 69.3096 11.2593Z" fill="url(#paint1_linear)"/>
</g>
<path d="M153.256 165.144C153.256 165.144 225.063 177.081 225.948 176.575C226.801 176.068 236.12 135.824 236.12 135.824C236.12 135.824 176.728 125.122 175.781 125.122C174.833 125.122 161.912 135.476 161.722 136.173C161.533 136.869 153.256 165.144 153.256 165.144Z" fill="#183658"/>
<path d="M372.343 175.372C374.081 175.531 461.052 173.663 461.052 173.663L454.513 153.62C454.513 153.62 442.445 135.35 436.095 135.667C429.713 136.015 391.835 129.841 385.296 134.4C378.756 138.96 372.912 135.318 369.784 146.211C366.688 157.071 364.256 158.306 366.688 164.86C369.058 171.415 372.343 175.372 372.343 175.372Z" fill="#183658"/>
<path d="M189.523 202C205.871 202 219.124 188.717 219.124 172.332C219.124 155.946 205.871 142.663 189.523 142.663C173.175 142.663 159.922 155.946 159.922 172.332C159.922 188.717 173.175 202 189.523 202Z" fill="#191C2C"/>
<path d="M189.523 192.975C200.899 192.975 210.121 183.733 210.121 172.331C210.121 160.929 200.899 151.687 189.523 151.687C178.147 151.687 168.925 160.929 168.925 172.331C168.925 183.733 178.147 192.975 189.523 192.975Z" fill="#9E9DA2"/>
<path d="M189.523 186.137C197.131 186.137 203.297 179.956 203.297 172.332C203.297 164.707 197.131 158.526 189.523 158.526C181.916 158.526 175.75 164.707 175.75 172.332C175.75 179.956 181.916 186.137 189.523 186.137Z" fill="#D8D9DD"/>
<path d="M417.456 202C433.804 202 447.057 188.717 447.057 172.332C447.057 155.946 433.804 142.663 417.456 142.663C401.107 142.663 387.854 155.946 387.854 172.332C387.854 188.717 401.107 202 417.456 202Z" fill="#191C2C"/>
<path d="M417.456 192.975C428.831 192.975 438.053 183.733 438.053 172.331C438.053 160.929 428.831 151.687 417.456 151.687C406.08 151.687 396.858 160.929 396.858 172.331C396.858 183.733 406.08 192.975 417.456 192.975Z" fill="#9E9DA2"/>
<path d="M403.682 172.332C403.682 179.963 409.842 186.137 417.456 186.137C425.07 186.137 431.23 179.963 431.23 172.332C431.23 164.701 425.07 158.526 417.456 158.526C409.842 158.495 403.682 164.701 403.682 172.332Z" fill="#D8D9DD"/>
<path d="M485.41 144.056C482.914 127.528 474.826 124.045 450.88 119.232C424.469 113.945 390.951 96.6883 390.951 96.6883C390.951 96.6883 333.77 68.603 319.775 65.3734C305.78 62.1437 271.314 63.0619 242.376 63.3152C213.438 63.5369 196.442 71.611 181.752 83.1048C167.062 94.5985 141.567 103.369 141.567 103.369L136.923 104.192C132.153 105.047 128.709 109.195 128.709 114.04V155.107C128.709 159.761 131.837 163.814 136.323 165.017L153.067 169.45C154.425 169.672 155.689 168.722 155.847 167.329C157.679 150.547 172.148 137.787 189.428 137.787C207.783 137.819 222.852 152.922 222.852 171.35C222.852 173.44 222.663 175.498 222.284 177.461C221.905 179.519 223.484 181.387 225.569 181.387H379.578C382.579 181.387 384.885 178.759 384.506 175.783C384.317 174.358 384.222 172.902 384.222 171.413C384.159 153.239 398.849 138.167 416.982 137.787C435.779 137.407 451.133 152.542 451.133 171.318C451.133 172.553 451.07 173.788 450.943 174.991C450.564 178.411 453.218 181.387 456.63 181.387H478.775C482.787 181.387 486.073 178.126 486.073 174.073V152.574C486.01 149.756 485.852 146.874 485.41 144.056Z" fill="url(#paint2_linear)"/>
<path d="M129.689 118.916H147.917C149.465 118.916 150.539 120.499 149.939 121.956L147.885 126.863C145.927 131.55 141.378 134.589 136.323 134.589H129.689C128.393 134.589 127.319 133.544 127.319 132.215V121.291C127.319 119.961 128.393 118.916 129.689 118.916Z" fill="#CF283C"/>
<path d="M456.408 126.517C466.454 128.068 478.017 137.599 478.017 137.599C480.797 140.575 478.491 145.42 474.447 145.167L454.86 143.932C450.785 143.678 447.31 140.892 446.204 136.966C444.277 130.348 445.888 124.902 456.408 126.517Z" fill="#EAFCFC"/>
<path d="M128.804 156.628C127.54 156.596 126.656 157.862 127.13 159.034C128.425 162.359 131.237 164.955 134.838 165.905L153.603 170.876C155.12 171.129 156.541 170.053 156.731 168.501C157.079 165.303 157.837 162.264 158.942 159.382C159.322 158.401 158.595 157.356 157.584 157.324L128.804 156.628Z" fill="url(#paint3_linear)"/>
<path d="M451.259 164.352C449.837 164.32 448.732 165.555 448.921 166.98C449.111 168.563 449.237 170.147 449.237 171.793C449.237 173.186 449.174 174.516 449.016 175.878C448.605 179.677 451.543 183.002 455.334 183.002H479.912C484.367 183.002 488 179.36 488 174.896V168.532C488 166.727 486.547 165.239 484.746 165.207L451.259 164.352Z" fill="url(#paint4_linear)"/>
<path opacity="0.5" d="M127.13 159.034C128.425 162.359 131.237 164.955 134.838 165.905L153.604 170.876C155.12 171.13 156.542 170.053 156.731 168.501C156.858 167.267 157.047 166.063 157.3 164.892L127.13 159.034Z" fill="#ACB1FE"/>
<path opacity="0.5" d="M449.174 173.567C449.142 174.359 449.079 175.119 448.984 175.91C448.573 179.71 451.511 183.035 455.302 183.035H479.881C484.335 183.035 487.968 179.393 487.968 174.929V173.599H449.174V173.567Z" fill="#ACB1FE"/>
<path d="M385.643 173.568C385.643 171.889 385.77 170.243 385.991 168.628C386.275 166.697 384.822 164.924 382.863 164.86L222.662 160.934C220.925 160.902 219.661 162.549 220.135 164.259C220.956 167.203 221.399 170.306 221.399 173.504C221.399 175.626 221.209 177.684 220.83 179.71C220.451 181.8 222.031 183.763 224.147 183.763H380.904C383.969 183.763 386.307 181.04 385.896 177.969C385.738 176.512 385.643 175.024 385.643 173.568Z" fill="url(#paint5_linear)"/>
<path opacity="0.5" d="M385.643 173.568C385.643 173.536 385.643 173.504 385.643 173.473H221.399C221.399 175.594 221.209 177.652 220.83 179.679C220.451 181.768 222.031 183.732 224.147 183.732H380.905C383.969 183.732 386.307 181.008 385.896 177.937C385.738 176.512 385.643 175.024 385.643 173.568Z" fill="#ACB1FE"/>
<path d="M190.155 108.975L278.674 109.798C278.674 109.798 284.108 109.64 284.835 104.542C285.561 99.4442 285.498 77.5333 285.498 77.5333C285.498 77.5333 284.866 73.1321 280.665 73.0688C278.106 73.0371 256.718 71.5173 235.931 74.0503C218.966 76.1085 203.265 83.8976 191.355 95.8346L185.069 102.136C185.069 102.136 180.835 108.88 190.155 108.975Z" fill="#EAFCFC"/>
<path d="M295.354 80.3195V103.275C295.354 106.252 297.629 108.721 300.535 108.816L370.1 111.634C371.711 111.698 373.259 110.97 374.175 109.608C375.439 107.772 375.565 104.732 369.342 100.647C358.506 93.5864 330.927 78.2614 320.722 76.8049C314.215 75.855 305.717 75.4434 300.409 75.2851C297.661 75.1901 295.354 77.4699 295.354 80.3195Z" fill="#EAFCFC"/>
<path d="M203.265 98.2407C203.265 98.2407 260.952 91.6548 262.184 92.7947C263.416 93.9345 271.44 112.742 272.893 117.872L204.94 117.239L200.169 110.019L203.265 98.2407Z" fill="url(#paint6_linear)"/>
<path d="M203.707 99.3484C203.644 98.9368 203.486 98.5885 203.265 98.2402L194.704 106.853C194.704 106.853 188.259 117.08 202.444 117.238L206.33 117.27L203.707 99.3484Z" fill="url(#paint7_linear)"/>
<path d="M360.149 121.101L363.782 106.315C364.035 105.333 363.435 104.32 362.424 104.067C361.444 103.813 360.433 104.415 360.181 105.428L356.39 120.911L360.149 121.101Z" fill="#191C2C"/>
<path d="M315.226 119.232C314.531 114.989 313.646 110.525 312.698 108.435C310.645 103.907 303.726 101.216 300.346 104.034C298.545 105.522 299.304 112.678 300.852 118.852L315.226 119.232Z" fill="#50BFA5"/>
<path d="M232.708 64.3926C233.056 64.5509 233.34 64.7725 233.561 65.0575C233.593 65.1208 234.446 65.9124 234.225 67.2423C234.099 66.419 233.909 65.5008 232.708 64.3926Z" fill="#F48C7F"/>
<path d="M209.71 112.141C209.71 112.141 218.619 119.233 219.598 120.69C220.325 121.766 217.892 133.988 217.892 133.988C217.892 133.988 214.354 134.083 212.743 132.848C212.743 132.848 213.722 124.394 213.28 124.078C212.869 123.761 203.076 119.392 203.076 119.392L203.708 114.389L209.71 112.141Z" fill="url(#paint8_linear)"/>
<path d="M295.955 108.625L370.195 111.791C370.195 111.791 363.719 133.512 363.561 134.589C363.403 135.665 339.046 148.996 332.917 148.837C326.788 148.679 312.509 143.549 309.445 142.631C306.38 141.713 298.388 135.475 298.862 131.644C299.367 127.813 295.955 108.625 295.955 108.625Z" fill="url(#paint9_linear)"/>
<path d="M317.311 119.645H297.377C296.871 119.645 296.492 119.233 296.492 118.758V117.049C296.492 116.542 296.903 116.162 297.377 116.162H317.311C317.816 116.162 318.196 116.574 318.196 117.049V118.758C318.227 119.233 317.816 119.645 317.311 119.645Z" fill="url(#paint10_linear)"/>
<path d="M325.936 78.1982L335.982 82.3461L335.413 80.2563L331.654 78.1982C331.654 78.1982 328.589 77.5966 328.273 77.4383C327.989 77.28 325.936 78.1982 325.936 78.1982Z" fill="url(#paint11_linear)"/>
<path opacity="0.6" d="M373.639 104.763L295.102 98.0186V103.275C295.102 106.251 297.377 108.721 300.283 108.816L369.848 111.634C371.459 111.697 373.007 110.969 373.923 109.607C374.713 108.467 375.06 106.853 373.639 104.763Z" fill="#C5DDF9"/>
<path opacity="0.7" d="M295.354 97.987V97.2588L373.607 104.351L373.891 104.731L295.354 97.987Z" fill="#C5DDF9"/>
<path opacity="0.2" d="M313.457 109.322L320.596 109.638L326.472 100.678L319.522 100.076L313.457 109.322Z" fill="white"/>
<path opacity="0.2" d="M326.156 109.86L331.874 101.121L329.221 100.899L323.439 109.733L326.156 109.86Z" fill="white"/>
<path d="M188.986 108.912L278.674 109.799L279.464 138.296C279.464 138.296 280.728 155.405 279.464 155.247C278.2 155.088 239.889 150.503 237.258 149.093C234.857 149.251 213.848 138.929 212.869 139.119C211.89 139.34 205.319 135.794 205.319 135.794L194.641 128.258L184.058 117.335L188.986 108.912Z" fill="url(#paint12_linear)"/>
<path d="M207.151 117.872H187.217C186.712 117.872 186.333 117.46 186.333 116.985V115.275C186.333 114.769 186.743 114.389 187.217 114.389H207.151C207.657 114.389 208.036 114.8 208.036 115.275V116.985C208.036 117.492 207.625 117.872 207.151 117.872Z" fill="url(#paint13_linear)"/>
<path d="M297.914 107.992C297.914 107.992 299.209 108.879 300.852 108.847C300.852 108.847 298.672 109.512 298.609 109.48C298.546 109.417 297.44 108.53 297.471 108.53C297.471 108.467 297.914 107.992 297.914 107.992Z" fill="url(#paint14_linear)"/>
<path d="M304.674 75.4425L313.457 76.0124C313.457 76.0124 312.035 73.6377 311.403 73.6377C310.803 73.6377 306.791 73.6377 306.791 73.6377L304.674 75.4425Z" fill="url(#paint15_linear)"/>
<g clip-path="url(#clip1)">
<path d="M725.227 172.624C725.227 176.321 722.244 179.301 718.573 179.301H530.427C526.757 179.301 523.773 176.308 523.773 172.624V49.6771C523.773 45.9937 526.757 43 530.427 43H718.573C722.244 43 725.227 45.9937 725.227 49.6771V172.624Z" fill="#120D27"/>
<path d="M718.697 50.3535H530.317V171.949H718.697V50.3535Z" fill="url(#paint16_linear)"/>
<path d="M504.348 191C500.692 190.489 499.551 188.53 499.551 188.53L495.206 182.267C494.299 179.825 496.691 179.301 496.691 179.301H752.309C752.309 179.301 754.715 179.811 753.794 182.281L749.45 188.544C749.45 188.544 748.309 190.489 744.652 191.013H504.348V191Z" fill="white"/>
<path d="M496.086 183.55L499.55 188.544C499.55 188.544 500.691 190.489 504.348 191.013H744.652C748.309 190.503 749.45 188.544 749.45 188.544L752.914 183.55H496.086Z" fill="#B7B9D8"/>
<path d="M595.576 43H530.427C526.757 43 523.773 45.9937 523.773 49.6771V172.624C523.773 176.321 526.757 179.301 530.427 179.301H718.573C720.649 179.301 722.491 178.349 723.715 176.873L595.576 43Z" fill="white" fill-opacity="0.09"/>
<path d="M648.448 179.301H600.552V185.385H648.448V179.301Z" fill="#95A8B2"/>
<path d="M626.906 47.0969C626.906 48.4212 625.834 49.5111 624.5 49.5111C623.18 49.5111 622.094 48.435 622.094 47.0969C622.094 45.7587 623.167 44.6826 624.5 44.6826C625.834 44.6964 626.906 45.7725 626.906 47.0969Z" fill="#35276D"/>
</g>
<defs>
<linearGradient id="paint0_linear" x1="53.5091" y1="-3.73585e-06" x2="-110.585" y2="191.684" gradientUnits="userSpaceOnUse">
<stop stop-color="#BE6CFD"/>
<stop offset="1" stop-color="#7367FF"/>
</linearGradient>
<linearGradient id="paint1_linear" x1="53.491" y1="1.18652" x2="51.6502" y2="17.6261" gradientUnits="userSpaceOnUse">
<stop stop-color="#BE6CFD"/>
<stop offset="1" stop-color="#7367FF"/>
</linearGradient>
<linearGradient id="paint2_linear" x1="307.391" y1="63" x2="278.509" y2="254.278" gradientUnits="userSpaceOnUse">
<stop stop-color="#BE6CFD"/>
<stop offset="1" stop-color="#7367FF"/>
</linearGradient>
<linearGradient id="paint3_linear" x1="121.462" y1="124.26" x2="180.154" y2="140.856" gradientUnits="userSpaceOnUse">
<stop stop-color="#B294FC"/>
<stop offset="1" stop-color="#86BDFE"/>
</linearGradient>
<linearGradient id="paint4_linear" x1="442.143" y1="122.097" x2="514.434" y2="141.202" gradientUnits="userSpaceOnUse">
<stop stop-color="#B294FC"/>
<stop offset="1" stop-color="#86BDFE"/>
</linearGradient>
<linearGradient id="paint5_linear" x1="191.349" y1="109.21" x2="369.782" y2="272.755" gradientUnits="userSpaceOnUse">
<stop stop-color="#B294FC"/>
<stop offset="1" stop-color="#86BDFE"/>
</linearGradient>
<linearGradient id="paint6_linear" x1="187.602" y1="35.5461" x2="314.649" y2="81.7464" gradientUnits="userSpaceOnUse">
<stop stop-color="#B294FC"/>
<stop offset="1" stop-color="#86BDFE"/>
</linearGradient>
<linearGradient id="paint7_linear" x1="190.982" y1="55.1263" x2="216.673" y2="57.3535" gradientUnits="userSpaceOnUse">
<stop stop-color="#B294FC"/>
<stop offset="1" stop-color="#86BDFE"/>
</linearGradient>
<linearGradient id="paint8_linear" x1="200.197" y1="62.6382" x2="232.845" y2="65.7759" gradientUnits="userSpaceOnUse">
<stop stop-color="#B294FC"/>
<stop offset="1" stop-color="#86BDFE"/>
</linearGradient>
<linearGradient id="paint9_linear" x1="350.072" y1="69.8659" x2="374.959" y2="229.684" gradientUnits="userSpaceOnUse">
<stop stop-color="#BE6CFD"/>
<stop offset="1" stop-color="#7367FF"/>
</linearGradient>
<linearGradient id="paint10_linear" x1="292.741" y1="108.271" x2="319.29" y2="129.127" gradientUnits="userSpaceOnUse">
<stop stop-color="#B294FC"/>
<stop offset="1" stop-color="#86BDFE"/>
</linearGradient>
<linearGradient id="paint11_linear" x1="330.959" y1="77.4199" x2="329.226" y2="85.1733" gradientUnits="userSpaceOnUse">
<stop stop-color="#BE6CFD"/>
<stop offset="1" stop-color="#7367FF"/>
</linearGradient>
<linearGradient id="paint12_linear" x1="241.241" y1="33.9535" x2="311.503" y2="185.732" gradientUnits="userSpaceOnUse">
<stop stop-color="#BE6CFD"/>
<stop offset="1" stop-color="#7367FF"/>
</linearGradient>
<linearGradient id="paint13_linear" x1="182.582" y1="106.498" x2="209.13" y2="127.352" gradientUnits="userSpaceOnUse">
<stop stop-color="#B294FC"/>
<stop offset="1" stop-color="#86BDFE"/>
</linearGradient>
<linearGradient id="paint14_linear" x1="299.161" y1="107.992" x2="298.686" y2="110.358" gradientUnits="userSpaceOnUse">
<stop stop-color="#BE6CFD"/>
<stop offset="1" stop-color="#7367FF"/>
</linearGradient>
<linearGradient id="paint15_linear" x1="309.066" y1="73.6377" x2="308.589" y2="77.5033" gradientUnits="userSpaceOnUse">
<stop stop-color="#BE6CFD"/>
<stop offset="1" stop-color="#7367FF"/>
</linearGradient>
<linearGradient id="paint16_linear" x1="624.507" y1="50.3535" x2="570.098" y2="235.286" gradientUnits="userSpaceOnUse">
<stop stop-color="#BE6CFD"/>
<stop offset="1" stop-color="#7367FF"/>
</linearGradient>
<clipPath id="clip0">
<rect width="107" height="201" fill="white"/>
</clipPath>
<clipPath id="clip1">
<rect width="259" height="148" fill="white" transform="translate(495 43)"/>
</clipPath>
</defs>
</svg>
