<svg width="286" height="286" viewBox="0 0 286 286" fill="none" xmlns="http://www.w3.org/2000/svg">
<path d="M218.933 32.1732V2.89287C218.933 1.01208 217.165 -0.368201 215.34 0.0876115L86.9912 32.1732L161.566 37.2006L218.933 32.1732Z" fill="#6331C8"/>
<path d="M45.355 42.5821L150.962 47.6095L218.933 42.5821V32.1738H86.9914L45.355 42.5821Z" fill="#451A9C"/>
<path d="M240.645 275.592V45.4733C240.645 43.8768 239.351 42.582 237.754 42.582H45.355V275.592L140.397 280.62L240.645 275.592Z" fill="url(#paint0_linear)"/>
<path d="M48.2463 286H237.753C239.35 286 240.644 284.706 240.644 283.109V275.592H45.355V283.109C45.355 284.706 46.6498 286 48.2463 286Z" fill="#6331C8"/>
<path d="M114.531 141.556C117.95 141.556 121.078 140.777 123.749 139.272L138.254 153.777L109.164 182.867C107.467 184.564 107.467 187.315 109.164 189.012C110.861 190.709 113.612 190.709 115.309 189.012L144.399 159.922L173.489 189.012C175.186 190.709 177.937 190.709 179.634 189.012C181.331 187.315 181.331 184.564 179.634 182.867L150.544 153.777L162.523 141.798C165.048 143.282 167.897 144.052 170.953 144.052C171.218 144.052 171.486 144.046 171.754 144.035C186.967 143.378 203.297 124.455 205.109 122.3C206.653 120.464 206.415 117.726 204.581 116.18C202.745 114.636 200.005 114.872 198.458 116.706C194.206 121.752 181.051 134.94 171.373 135.353C170.58 135.384 169.845 135.318 169.149 135.171L193.299 111.021C194.996 109.324 194.996 106.572 193.299 104.876C191.602 103.179 188.851 103.179 187.154 104.876L163.002 129.028C162.854 128.331 162.788 127.595 162.822 126.802C163.235 117.123 176.422 103.968 181.467 99.7187C183.304 98.1742 183.541 95.4332 181.997 93.596C180.453 91.7593 177.713 91.5219 175.874 93.0659C173.719 94.8779 154.797 111.208 154.14 126.421C153.995 129.781 154.761 132.91 156.375 135.655L144.398 147.632L129.893 133.127C131.964 129.453 132.659 124.912 131.847 119.945C130.903 114.167 128.033 108.289 123.765 103.395C118.474 97.3268 111.85 93.8579 105.113 93.6278C99.4275 93.4379 94.0979 95.5181 90.1185 99.4975C86.1391 103.477 84.0544 108.803 84.2488 114.492C84.4789 121.229 87.9478 127.853 94.0164 133.144C98.9108 137.412 104.788 140.282 110.566 141.226C111.923 141.447 113.247 141.556 114.531 141.556Z" fill="white"/>
<path d="M187.111 222.54C189.511 222.54 191.457 220.595 191.457 218.195C191.457 215.795 189.511 213.85 187.111 213.85H98.8883C96.4886 213.85 94.543 215.795 94.543 218.195C94.543 220.595 96.4886 222.54 98.8883 222.54H187.111Z" fill="#FFCE00"/>
<path d="M114.532 236.896C112.132 236.896 110.187 238.842 110.187 241.242C110.187 243.642 112.132 245.587 114.532 245.587H171.469C173.868 245.587 175.814 243.642 175.814 241.242C175.814 238.842 173.868 236.896 171.469 236.896H114.532Z" fill="#FFCE00"/>
<defs>
<linearGradient id="paint0_linear" x1="143" y1="42.582" x2="-23.9964" y2="343.17" gradientUnits="userSpaceOnUse">
<stop stop-color="#BE6CFD"/>
<stop offset="1" stop-color="#7367FF"/>
</linearGradient>
</defs>
</svg>
