<svg width="205" height="281" viewBox="0 0 205 281" fill="none" xmlns="http://www.w3.org/2000/svg">
<path d="M204.841 173.752C204.841 227.576 161.381 249.586 107.753 249.586C54.1259 249.586 10.6656 227.576 10.6656 173.752C10.6656 119.928 54.1259 54.6992 107.753 54.6992C161.381 54.6992 204.841 119.928 204.841 173.752Z" fill="url(#paint0_linear)"/>
<path d="M162.079 154.044C162.079 184.157 137.757 208.568 107.753 208.568C77.7499 208.568 53.4281 184.157 53.4281 154.044C53.4281 123.93 77.7499 99.5195 107.753 99.5195C137.757 99.6196 162.079 124.03 162.079 154.044Z" fill="white"/>
<path d="M153.307 6.2778C149.419 3.27646 144.136 2.87628 139.75 4.97722L132.374 8.47878C128.487 10.3796 123.901 10.1795 120.114 7.97856L116.226 3.67664C111.641 -1.22555 103.866 -1.22555 99.3803 3.67664L95.3931 8.0786C91.6053 10.2796 87.0201 10.3796 83.1326 8.57883L75.7563 5.07727C71.3704 2.97633 66.0874 3.37651 62.1999 6.37785C56.9169 10.5797 55.8204 17.983 59.5086 23.3854L89.4124 68.5056L107.753 54.7995L126.094 68.5056L155.998 23.3854C159.686 17.883 158.59 10.3796 153.307 6.2778Z" fill="url(#paint1_linear)"/>
<path d="M138.056 63.1034H76.8527C74.7595 63.1034 73.0649 61.4026 73.0649 59.3017C73.0649 57.2008 74.7595 55.5 76.8527 55.5H138.056C140.149 55.5 141.844 57.2008 141.844 59.3017C141.844 61.4026 140.149 63.1034 138.056 63.1034Z" fill="#F0F0F0"/>
<path d="M138.056 55.8007H76.8527C74.7595 55.8007 73.0649 54.0999 73.0649 51.999C73.0649 49.898 74.7595 48.1973 76.8527 48.1973H138.056C140.149 48.1973 141.844 49.898 141.844 51.999C141.844 53.9999 140.149 55.8007 138.056 55.8007Z" fill="#F0F0F0"/>
<path d="M129.184 119.329V57.9013C129.184 55.8004 130.879 54.0996 132.972 54.0996C135.066 54.0996 136.76 55.8004 136.76 57.9013V119.329C136.76 121.43 135.066 123.13 132.972 123.13C130.879 123.13 129.184 121.43 129.184 119.329Z" fill="#F0F0F0"/>
<path d="M117.024 91.3154V55.3994C117.024 53.2984 118.718 51.5977 120.811 51.5977C122.905 51.5977 124.599 53.2984 124.599 55.3994V91.2153C124.599 93.3163 122.905 95.017 120.811 95.017C118.718 95.1171 117.024 93.4163 117.024 91.3154Z" fill="#F0F0F0"/>
<path d="M93.1004 174.053L91.8046 176.754H47.0486V271.196L43.9585 277.699L47.0486 280.5H96.1905V176.754L93.1004 174.053Z" fill="#58A967"/>
<path d="M93.04 277.74L93.04 173.994H43.8981L43.8981 277.74H93.04Z" fill="#58C670"/>
<path d="M78.946 270.695C78.946 265.593 82.7338 262.892 86.6213 262.692V188.759H86.0232C83.8303 188.759 81.737 187.858 80.1421 186.358C78.5473 184.757 77.7498 182.656 77.7498 180.455H59.3092C59.3092 180.655 59.3092 180.855 59.3092 181.055C59.3092 183.256 58.412 185.357 56.9168 186.958C55.4217 188.559 53.2287 189.359 51.0358 189.359H50.4377C50.4377 189.359 50.4377 189.359 50.338 189.359V262.692C54.5245 262.692 58.7111 265.393 58.7111 270.695C58.7111 270.895 58.7111 271.096 58.7111 271.296H78.946C78.946 271.096 78.946 270.895 78.946 270.695Z" fill="#A4E894"/>
<path d="M68.4797 241.182C76.5172 241.182 83.0329 234.642 83.0329 226.575C83.0329 218.508 76.5172 211.969 68.4797 211.969C60.4422 211.969 53.9265 218.508 53.9265 226.575C53.9265 234.642 60.4422 241.182 68.4797 241.182Z" fill="#58C670"/>
<path d="M77.4508 233.378H77.6502C78.1486 233.378 78.5473 232.977 78.5473 232.477V220.372C78.5473 219.972 78.2482 219.771 77.9492 219.771H75.9556C75.5569 219.771 75.1582 220.072 75.1582 220.572V220.772C75.1582 222.173 74.9588 223.173 74.5601 223.873C74.3607 224.273 73.962 224.574 73.5633 224.674V220.772C73.5633 220.272 73.1646 219.872 72.6662 219.872H72.2675C71.7691 219.872 71.3704 220.272 71.3704 220.772V224.674C70.9716 224.474 70.6726 224.273 70.3736 223.873C69.8752 223.173 69.6758 222.173 69.6758 220.872V220.772C69.6758 220.272 69.2771 219.872 68.7787 219.872H67.1838C66.6854 219.872 66.2867 220.272 66.2867 220.772V221.772L58.9104 226.374C58.6114 226.575 58.5117 226.875 58.5117 227.175V229.676C58.5117 230.476 59.3092 230.876 60.0069 230.476C61.6018 229.376 64.0938 227.675 67.3832 225.474C67.8816 226.675 68.679 227.575 69.5761 228.275C70.1742 228.675 70.7723 228.976 71.47 229.076V232.577C71.47 233.077 71.8688 233.478 72.3671 233.478H72.7659C73.2643 233.478 73.663 233.077 73.663 232.577V229.176C74.8591 229.076 75.8559 228.675 76.6534 227.975V232.577C76.5537 232.977 76.9524 233.378 77.4508 233.378Z" fill="#DDFAD9"/>
<path d="M42.7625 280.9H3.98718C2.89071 280.9 2.09326 280 2.09326 278.999V275.198C2.09326 274.097 2.99039 273.297 3.98718 273.297H42.7625C43.8589 273.297 44.6564 274.197 44.6564 275.198V278.899C44.7561 280 43.8589 280.9 42.7625 280.9Z" fill="#F1B633"/>
<path d="M43.1612 273.297H35.9843V280.9H43.1612C44.0583 280.9 44.756 280.2 44.756 279.3V274.898C44.756 273.997 43.9586 273.297 43.1612 273.297Z" fill="#FAC55D"/>
<path d="M29.3058 273.297H9.17053V280.9H29.3058V273.297Z" fill="#FAC55D"/>
<path d="M44.457 273.997C44.1579 273.597 43.6595 273.297 43.0615 273.297H3.68811C3.09003 273.297 2.59164 273.597 2.2926 273.997H44.457Z" fill="#E0A022"/>
<path d="M2.2926 280.199C2.59164 280.699 3.09003 281 3.68811 281H43.1612C43.7592 281 44.2576 280.699 44.5567 280.199H2.2926Z" fill="#E0A022"/>
<path d="M40.9682 273.396H2.19297C1.0965 273.396 0.299072 272.496 0.299072 271.495V267.793C0.299072 266.693 1.19618 265.893 2.19297 265.893H40.9682C42.0647 265.893 42.8622 266.793 42.8622 267.793V271.495C42.8622 272.496 41.965 273.396 40.9682 273.396Z" fill="#F1B633"/>
<path d="M41.2672 265.793H34.0903V273.396H41.2672C42.1644 273.396 42.8621 272.696 42.8621 271.796V267.394C42.8621 266.493 42.1644 265.793 41.2672 265.793Z" fill="#FAC55D"/>
<path d="M27.4118 265.793H7.27661V273.396H27.4118V265.793Z" fill="#FAC55D"/>
<path d="M42.5631 266.493C42.2641 266.093 41.7657 265.793 41.1676 265.793H1.69458C1.0965 265.793 0.59811 266.093 0.299072 266.493H42.5631Z" fill="#E0A022"/>
<path d="M0.498413 272.596C0.797451 273.096 1.29584 273.396 1.89392 273.396H41.367C41.965 273.396 42.4634 273.096 42.7625 272.596H0.498413Z" fill="#E0A022"/>
<path d="M42.5631 265.792H3.78784C2.69137 265.792 1.89392 264.892 1.89392 263.892V260.19C1.89392 259.089 2.79104 258.289 3.78784 258.289H42.5631C43.6596 258.289 44.457 259.189 44.457 260.19V263.892C44.5567 264.992 43.6596 265.792 42.5631 265.792Z" fill="#F1B633"/>
<path d="M42.8622 258.189H35.6853V265.793H42.8622C43.7593 265.793 44.4571 265.093 44.4571 264.192V259.79C44.5568 258.89 43.7593 258.189 42.8622 258.189Z" fill="#FAC55D"/>
<path d="M29.1064 258.189H8.97119V265.793H29.1064V258.189Z" fill="#FAC55D"/>
<path d="M44.2577 258.989C43.9587 258.589 43.4603 258.289 42.8622 258.289H3.38916C2.79108 258.289 2.29269 258.589 1.99365 258.989H44.2577Z" fill="#E0A022"/>
<path d="M2.09326 265.092C2.3923 265.592 2.89071 265.892 3.48878 265.892H42.9618C43.5599 265.892 44.0583 265.592 44.3573 265.092H2.09326Z" fill="#E0A022"/>
<path d="M44.457 258.288H5.68174C4.58527 258.288 3.78784 257.388 3.78784 256.388V252.686C3.78784 251.586 4.68495 250.785 5.68174 250.785H44.457C45.5535 250.785 46.3509 251.686 46.3509 252.686V256.388C46.3509 257.388 45.5535 258.288 44.457 258.288Z" fill="#F1B633"/>
<path d="M44.756 250.686H37.5791V258.289H44.756C45.6531 258.289 46.3509 257.589 46.3509 256.688V252.286C46.3509 251.386 45.6531 250.686 44.756 250.686Z" fill="#FAC55D"/>
<path d="M30.9006 250.686H10.7654V258.289H30.9006V250.686Z" fill="#FAC55D"/>
<path d="M46.1516 251.386C45.8526 250.986 45.3542 250.686 44.7561 250.686H5.28309C4.68502 250.686 4.18661 250.986 3.88757 251.386H46.1516Z" fill="#E0A022"/>
<path d="M3.98718 257.488C4.28622 257.989 4.78461 258.289 5.38269 258.289H44.8557C45.4538 258.289 45.9522 257.989 46.2512 257.488H3.98718Z" fill="#E0A022"/>
<path d="M40.6692 250.785H1.8939C0.797429 250.785 0 249.884 0 248.884V245.182C0 244.082 0.897108 243.281 1.8939 243.281H40.6692C41.7657 243.281 42.5631 244.182 42.5631 245.182V248.884C42.6628 249.884 41.7657 250.785 40.6692 250.785Z" fill="#F1B633"/>
<path d="M41.0679 243.082H33.891V250.685H41.0679C41.965 250.685 42.6628 249.985 42.6628 249.085V244.683C42.6628 243.882 41.965 243.082 41.0679 243.082Z" fill="#FAC55D"/>
<path d="M27.2125 243.082H7.07727V250.685H27.2125V243.082Z" fill="#FAC55D"/>
<path d="M42.3637 243.882C42.0646 243.482 41.5662 243.182 40.9682 243.182H1.49513C0.897053 243.182 0.398648 243.482 0.0996094 243.882H42.3637Z" fill="#E0A022"/>
<path d="M0.299072 249.984C0.59811 250.485 1.0965 250.785 1.69458 250.785H41.1676C41.7657 250.785 42.2641 250.485 42.5631 249.984H0.299072Z" fill="#E0A022"/>
<path d="M43.3605 243.183H4.58519C3.48871 243.183 2.69128 242.283 2.69128 241.282V237.581C2.69128 236.48 3.58839 235.68 4.58519 235.68H43.3605C44.4569 235.68 45.2544 236.58 45.2544 237.581V241.282C45.3541 242.283 44.4569 243.183 43.3605 243.183Z" fill="#F1B633"/>
<path d="M43.7592 235.58H36.5823V243.183H43.7592C44.6563 243.183 45.3541 242.483 45.3541 241.583V237.181C45.3541 236.28 44.6563 235.58 43.7592 235.58Z" fill="#FAC55D"/>
<path d="M29.9038 235.58H9.76855V243.183H29.9038V235.58Z" fill="#FAC55D"/>
<path d="M45.0551 236.28C44.756 235.88 44.2576 235.58 43.6596 235.58H4.18652C3.58844 235.58 3.09005 235.88 2.79102 236.28H45.0551Z" fill="#E0A022"/>
<path d="M2.99036 242.482C3.28939 242.983 3.78779 243.283 4.38586 243.283H43.8589C44.457 243.283 44.9554 242.983 45.2544 242.482H2.99036Z" fill="#E0A022"/>
<path d="M46.351 235.679H7.57566C6.47919 235.679 5.68176 234.779 5.68176 233.778V230.077C5.68176 228.976 6.57887 228.176 7.57566 228.176H46.351C47.4474 228.176 48.2449 229.076 48.2449 230.077V233.778C48.2449 234.779 47.3477 235.679 46.351 235.679Z" fill="#F1B633"/>
<path d="M46.65 227.977H39.473V235.58H46.65C47.5471 235.58 48.2448 234.88 48.2448 233.979V229.577C48.2448 228.777 47.5471 227.977 46.65 227.977Z" fill="#FAC55D"/>
<path d="M32.7945 227.977H12.6593V235.58H32.7945V227.977Z" fill="#FAC55D"/>
<path d="M48.0455 228.777C47.7465 228.376 47.2481 228.076 46.65 228.076H7.177C6.57892 228.076 6.08053 228.376 5.78149 228.777H48.0455Z" fill="#E0A022"/>
<path d="M5.8811 234.879C6.18014 235.379 6.67855 235.679 7.27662 235.679H46.7496C47.3477 235.679 47.8461 235.379 48.1452 234.879H5.8811Z" fill="#E0A022"/>
<path d="M45.0551 228.076H6.27978C5.18331 228.076 4.38586 227.175 4.38586 226.175V222.473C4.38586 221.373 5.28299 220.572 6.27978 220.572H45.0551C46.1515 220.572 46.949 221.473 46.949 222.473V226.175C47.0486 227.275 46.1515 228.076 45.0551 228.076Z" fill="#F1B633"/>
<path d="M45.354 220.473H38.1771V228.076H45.354C46.2512 228.076 46.9489 227.376 46.9489 226.475V222.073C47.0486 221.173 46.2512 220.473 45.354 220.473Z" fill="#FAC55D"/>
<path d="M31.5984 220.473H11.4631V228.076H31.5984V220.473Z" fill="#FAC55D"/>
<path d="M46.7496 221.273C46.4506 220.872 45.9522 220.572 45.3541 220.572H5.8811C5.28302 220.572 4.78463 220.872 4.4856 221.273H46.7496Z" fill="#E0A022"/>
<path d="M4.58521 227.375C4.88424 227.875 5.38265 228.175 5.98073 228.175H45.4538C46.0518 228.175 46.5502 227.875 46.8493 227.375H4.58521Z" fill="#E0A022"/>
<path d="M41.7656 220.572H2.99035C1.89388 220.572 1.09644 219.671 1.09644 218.671V214.969C1.09644 213.869 1.99356 213.068 2.99035 213.068H41.7656C42.8621 213.068 43.6595 213.969 43.6595 214.969V218.671C43.6595 219.671 42.8621 220.572 41.7656 220.572Z" fill="#F1B633"/>
<path d="M42.0646 212.969H34.8877V220.572H42.0646C42.9617 220.572 43.6595 219.872 43.6595 218.971V214.569C43.6595 213.669 42.9617 212.969 42.0646 212.969Z" fill="#FAC55D"/>
<path d="M28.2092 212.969H8.07397V220.572H28.2092V212.969Z" fill="#FAC55D"/>
<path d="M43.4601 213.669C43.1611 213.269 42.6627 212.969 42.0646 212.969H2.69128C2.09321 212.969 1.59481 213.269 1.29578 213.669H43.4601Z" fill="#E0A022"/>
<path d="M1.29578 219.771C1.59481 220.272 2.09321 220.572 2.69128 220.572H42.1643C42.7624 220.572 43.2608 220.272 43.5598 219.771H1.29578Z" fill="#E0A022"/>
<path d="M45.0551 212.769H6.27978C5.18331 212.769 4.38586 211.869 4.38586 210.868V207.166C4.38586 206.066 5.28299 205.266 6.27978 205.266H45.0551C46.1515 205.266 46.949 206.166 46.949 207.166V210.868C47.0486 211.869 46.1515 212.769 45.0551 212.769Z" fill="#F1B633"/>
<path d="M45.354 205.166H38.1771V212.769H45.354C46.2512 212.769 46.9489 212.069 46.9489 211.169V206.767C47.0486 205.866 46.2512 205.166 45.354 205.166Z" fill="#FAC55D"/>
<path d="M31.5984 205.166H11.4631V212.769H31.5984V205.166Z" fill="#FAC55D"/>
<path d="M46.7496 205.866C46.4506 205.466 45.9522 205.166 45.3541 205.166H5.8811C5.28302 205.166 4.78463 205.466 4.4856 205.866H46.7496Z" fill="#E0A022"/>
<path d="M4.58521 211.969C4.88424 212.469 5.38265 212.769 5.98073 212.769H45.4538C46.0518 212.769 46.5502 212.469 46.8493 211.969H4.58521Z" fill="#E0A022"/>
<path d="M41.7656 205.165H2.99035C1.89388 205.165 1.09644 204.265 1.09644 203.265V199.563C1.09644 198.462 1.99356 197.662 2.99035 197.662H41.7656C42.8621 197.662 43.6595 198.563 43.6595 199.563V203.265C43.6595 204.365 42.8621 205.165 41.7656 205.165Z" fill="#F1B633"/>
<path d="M42.0646 197.562H34.8877V205.166H42.0646C42.9617 205.166 43.6595 204.466 43.6595 203.565V199.163C43.6595 198.263 42.9617 197.562 42.0646 197.562Z" fill="#FAC55D"/>
<path d="M28.2092 197.562H8.07397V205.166H28.2092V197.562Z" fill="#FAC55D"/>
<path d="M43.4601 198.362C43.1611 197.962 42.6627 197.662 42.0646 197.662H2.69128C2.09321 197.662 1.59481 197.962 1.29578 198.362H43.4601Z" fill="#E0A022"/>
<path d="M1.29578 204.465C1.59481 204.965 2.09321 205.265 2.69128 205.265H42.1643C42.7624 205.265 43.2608 204.965 43.5598 204.465H1.29578Z" fill="#E0A022"/>
<path d="M136.86 280.9H98.0845C96.988 280.9 96.1906 280 96.1906 278.999V275.198C96.1906 274.097 97.0877 273.297 98.0845 273.297H136.86C137.956 273.297 138.754 274.197 138.754 275.198V278.899C138.853 280 137.956 280.9 136.86 280.9Z" fill="#F1B633"/>
<path d="M137.258 273.297H130.082V280.9H137.258C138.156 280.9 138.853 280.2 138.853 279.3V274.898C138.853 273.997 138.156 273.297 137.258 273.297Z" fill="#FAC55D"/>
<path d="M123.403 273.297H103.268V280.9H123.403V273.297Z" fill="#FAC55D"/>
<path d="M138.554 273.997C138.255 273.597 137.757 273.297 137.159 273.297H97.6858C97.0877 273.297 96.5893 273.597 96.2903 273.997H138.554Z" fill="#E0A022"/>
<path d="M96.3899 280.199C96.6889 280.699 97.1873 281 97.7854 281H137.258C137.857 281 138.355 280.699 138.654 280.199H96.3899Z" fill="#E0A022"/>
<path d="M135.066 273.396H96.2903C95.1938 273.396 94.3964 272.496 94.3964 271.495V267.793C94.3964 266.693 95.2935 265.893 96.2903 265.893H135.066C136.162 265.893 136.959 266.793 136.959 267.793V271.495C136.959 272.496 136.062 273.396 135.066 273.396Z" fill="#F1B633"/>
<path d="M135.365 265.793H128.188V273.396H135.365C136.262 273.396 136.959 272.696 136.959 271.796V267.394C136.959 266.493 136.262 265.793 135.365 265.793Z" fill="#FAC55D"/>
<path d="M121.509 265.793H101.374V273.396H121.509V265.793Z" fill="#FAC55D"/>
<path d="M136.76 266.493C136.461 266.093 135.963 265.793 135.365 265.793H95.8916C95.2935 265.793 94.7951 266.093 94.4961 266.493H136.76Z" fill="#E0A022"/>
<path d="M94.5957 272.596C94.8947 273.096 95.3931 273.396 95.9912 273.396H135.464C136.062 273.396 136.561 273.096 136.86 272.596H94.5957Z" fill="#E0A022"/>
<path d="M136.66 265.792H97.8851C96.7886 265.792 95.9912 264.892 95.9912 263.892V260.19C95.9912 259.089 96.8883 258.289 97.8851 258.289H136.66C137.757 258.289 138.554 259.189 138.554 260.19V263.892C138.654 264.992 137.757 265.792 136.66 265.792Z" fill="#F1B633"/>
<path d="M137.059 258.189H129.882V265.793H137.059C137.956 265.793 138.654 265.093 138.654 264.192V259.79C138.654 258.89 137.956 258.189 137.059 258.189Z" fill="#FAC55D"/>
<path d="M123.204 258.189H103.068V265.793H123.204V258.189Z" fill="#FAC55D"/>
<path d="M138.355 258.989C138.056 258.589 137.557 258.289 136.959 258.289H97.4863C96.8883 258.289 96.3899 258.589 96.0908 258.989H138.355Z" fill="#E0A022"/>
<path d="M96.1906 265.092C96.4896 265.592 96.988 265.892 97.5861 265.892H137.059C137.657 265.892 138.156 265.592 138.455 265.092H96.1906Z" fill="#E0A022"/>
<path d="M138.554 258.29H99.779C98.6826 258.29 97.8851 257.39 97.8851 256.39V252.688C97.8851 251.587 98.7822 250.787 99.779 250.787H138.554C139.651 250.787 140.448 251.688 140.448 252.688V256.39C140.448 257.39 139.651 258.29 138.554 258.29Z" fill="#F1B633"/>
<path d="M138.853 250.688H131.676V258.291H138.853C139.75 258.291 140.448 257.591 140.448 256.69V252.288C140.448 251.388 139.75 250.688 138.853 250.688Z" fill="#FAC55D"/>
<path d="M124.998 250.688H104.863V258.291H124.998V250.688Z" fill="#FAC55D"/>
<path d="M140.249 251.388C139.95 250.988 139.451 250.688 138.853 250.688H99.3804C98.7823 250.688 98.2839 250.988 97.9849 251.388H140.249Z" fill="#E0A022"/>
<path d="M98.0845 257.49C98.3835 257.99 98.8819 258.291 99.48 258.291H138.953C139.551 258.291 140.05 257.99 140.349 257.49H98.0845Z" fill="#E0A022"/>
<path d="M134.866 250.787H96.0909C94.9945 250.787 94.197 249.886 94.197 248.886V245.184C94.197 244.084 95.0941 243.283 96.0909 243.283H134.866C135.963 243.283 136.76 244.184 136.76 245.184V248.886C136.76 249.886 135.863 250.787 134.866 250.787Z" fill="#F1B633"/>
<path d="M135.165 243.084H127.988V250.687H135.165C136.062 250.687 136.76 249.987 136.76 249.087V244.685C136.76 243.884 136.062 243.084 135.165 243.084Z" fill="#FAC55D"/>
<path d="M121.31 243.084H101.175V250.687H121.31V243.084Z" fill="#FAC55D"/>
<path d="M136.461 243.884C136.162 243.484 135.664 243.184 135.066 243.184H95.5925C94.9945 243.184 94.4961 243.484 94.197 243.884H136.461Z" fill="#E0A022"/>
<path d="M94.3964 249.986C94.6954 250.487 95.1938 250.787 95.7919 250.787H135.265C135.863 250.787 136.361 250.487 136.66 249.986H94.3964Z" fill="#E0A022"/>
<path d="M137.557 243.183H98.7822C97.6857 243.183 96.8883 242.283 96.8883 241.282V237.581C96.8883 236.48 97.7854 235.68 98.7822 235.68H137.557C138.654 235.68 139.451 236.58 139.451 237.581V241.282C139.451 242.283 138.554 243.183 137.557 243.183Z" fill="#F1B633"/>
<path d="M137.856 235.58H130.68V243.183H137.856C138.754 243.183 139.451 242.483 139.451 241.583V237.181C139.451 236.28 138.754 235.58 137.856 235.58Z" fill="#FAC55D"/>
<path d="M124.001 235.58H103.866V243.183H124.001V235.58Z" fill="#FAC55D"/>
<path d="M139.152 236.28C138.853 235.88 138.355 235.58 137.757 235.58H98.3835C97.7855 235.58 97.2871 235.88 96.988 236.28H139.152Z" fill="#E0A022"/>
<path d="M97.0876 242.482C97.3867 242.983 97.8851 243.283 98.4832 243.283H137.956C138.554 243.283 139.053 242.983 139.352 242.482H97.0876Z" fill="#E0A022"/>
<path fill-rule="evenodd" clip-rule="evenodd" d="M135.022 147.063L148.658 178.913L114.257 174.796L122.842 163.331L100.911 146.911L91.873 157.825L66.2323 140.474L69.5954 135.504L90.7252 149.802L99.9332 138.683L126.438 158.528L135.022 147.063Z" fill="#040404"/>
<defs>
<linearGradient id="paint0_linear" x1="-22.89" y1="-386.842" x2="355.224" y2="-339.351" gradientUnits="userSpaceOnUse">
<stop stop-color="#B294FC"/>
<stop offset="1" stop-color="#86BDFE"/>
</linearGradient>
<linearGradient id="paint1_linear" x1="39.9171" y1="-155.208" x2="232.713" y2="-119.438" gradientUnits="userSpaceOnUse">
<stop stop-color="#B294FC"/>
<stop offset="1" stop-color="#86BDFE"/>
</linearGradient>
</defs>
</svg>
