<svg width="106" height="223" viewBox="0 0 106 223" fill="none" xmlns="http://www.w3.org/2000/svg">
<path d="M85.8146 149.172H19.4415L26.1458 213.869C26.1458 213.869 44.2406 217.739 55.8349 217.739C64.9245 217.739 79.1102 213.869 79.1102 213.869L85.8146 149.172Z" fill="url(#paint0_linear)"/>
<circle r="33.1865" transform="matrix(-1 0 0 1 52.628 33.1865)" fill="url(#paint1_linear)"/>
<path d="M105.258 129.394C105.258 100.328 81.6954 76.7646 52.6291 76.7646C23.5629 76.7646 -1.52588e-05 100.328 -1.52588e-05 129.394V152.661L9.37213 154.496C37.787 160.057 67.0082 160.081 95.4324 154.567L105.258 152.661V129.394Z" fill="url(#paint2_linear)"/>
<mask id="mask0" style="mask-type:alpha" maskUnits="userSpaceOnUse" x="0" y="76" width="106" height="83">
<path d="M105.258 129.556C105.258 100.49 81.6954 76.9268 52.6291 76.9268C23.5629 76.9268 -1.52588e-05 100.49 -1.52588e-05 129.556V152.824L9.37213 154.658C37.787 160.219 67.0082 160.243 95.4324 154.73L105.258 152.824V129.556Z" fill="url(#paint3_linear)"/>
</mask>
<g mask="url(#mask0)">
<circle cx="49.8709" cy="71.8436" r="30.4051" fill="#FFF9F9" fill-opacity="0.42"/>
<circle cx="49.8708" cy="58.5762" r="69.1026" fill="white" fill-opacity="0.15"/>
</g>
<path d="M26.2412 213.37C25.2349 206.997 30.16 201.229 36.6121 201.229H68.8767C75.546 201.229 80.5245 207.37 79.1506 213.896C78.1277 218.755 73.8405 222.236 68.8752 222.236H36.6132C31.4464 222.236 27.047 218.474 26.2412 213.37Z" fill="#51409C"/>
<circle cx="52.3532" cy="157.06" r="22.4371" fill="#F4CD42"/>
<path d="M50.4686 146.461C50.8671 145.898 51.7025 145.898 52.101 146.461L55.6862 151.525C55.8131 151.704 55.9954 151.837 56.2051 151.902L62.1297 153.747C62.7883 153.952 63.0464 154.746 62.6341 155.299L58.9253 160.274C58.7941 160.45 58.7244 160.665 58.7271 160.884L58.8035 167.089C58.812 167.779 58.1362 168.27 57.4829 168.048L51.6055 166.058C51.3975 165.988 51.1721 165.988 50.9641 166.058L45.0867 168.048C44.4334 168.27 43.7576 167.779 43.7661 167.089L43.8425 160.884C43.8452 160.665 43.7755 160.45 43.6443 160.274L39.9355 155.299C39.5232 154.746 39.7814 153.952 40.4399 153.747L46.3645 151.902C46.5742 151.837 46.7565 151.704 46.8834 151.525L50.4686 146.461Z" fill="white"/>
<defs>
<linearGradient id="paint0_linear" x1="52.628" y1="149.172" x2="52.628" y2="217.739" gradientUnits="userSpaceOnUse">
<stop stop-color="#9E8DF1"/>
<stop offset="1" stop-color="#A393F2"/>
</linearGradient>
<linearGradient id="paint1_linear" x1="33.1865" y1="-1.23363e-06" x2="-8.20731" y2="90.8167" gradientUnits="userSpaceOnUse">
<stop stop-color="#BE6CFD"/>
<stop offset="1" stop-color="#7367FF"/>
</linearGradient>
<linearGradient id="paint2_linear" x1="40.9087" y1="59.079" x2="61.3631" y2="160.798" gradientUnits="userSpaceOnUse">
<stop stop-color="#7A72DE"/>
<stop offset="1" stop-color="#9583EF"/>
</linearGradient>
<linearGradient id="paint3_linear" x1="40.9087" y1="59.2411" x2="61.3631" y2="160.96" gradientUnits="userSpaceOnUse">
<stop stop-color="#3C39CF"/>
<stop offset="1" stop-color="#9583EF"/>
</linearGradient>
</defs>
</svg>
