<svg width="274" height="270" viewBox="0 0 274 270" fill="none" xmlns="http://www.w3.org/2000/svg">
<g clip-path="url(#clip0)">
<path d="M241.695 57.1619C185.602 -13.4847 52.8241 -17.4301 13.7778 38.6018C-7.73145 69.4796 1.25003 115.63 5.68522 138.404C13.8519 180.312 33.9723 207.291 38.3704 213.014C49.0371 226.897 74.9352 260.627 113.917 268.342C180.509 281.512 263.602 214.44 268.213 138.765C270.861 95.134 246.537 63.2744 241.695 57.1619Z" fill="#F4F7FA"/>
<path d="M205.481 229.405C197.454 220.209 186.991 205.409 183.509 185.534C179.509 162.714 188.37 154.054 188.509 127.798C188.704 90.3073 163.574 73.8496 173.574 58.1885C178.444 50.5477 189.25 45.9726 197.926 47.899C222.667 53.4003 242.407 114.6 221.981 150.387C212.741 166.576 200.315 170.373 195.778 188.183C191.769 203.918 199.12 219.32 205.481 229.405Z" fill="url(#paint0_linear)"/>
<path d="M191.62 203.483C190.861 198.491 190.528 193.407 190.63 188.368C190.87 176.792 193.417 169.41 196.639 160.075C198.731 154.008 201.102 147.127 203.25 137.801C207.278 120.352 208.296 114.388 207.787 105.719C206.787 88.5389 200.306 75.4988 196.537 69.2473C191.185 60.384 184.222 52.7433 175.843 46.5381L176.046 46.2695C184.463 52.5025 191.454 60.1803 196.833 69.0713C200.62 75.3413 207.13 88.4463 208.139 105.691C208.648 114.406 207.63 120.38 203.593 137.875C201.435 147.22 199.065 154.11 196.972 160.186C193.759 169.494 191.231 176.856 190.981 188.378C190.88 193.397 191.204 198.463 191.963 203.437L191.62 203.483Z" fill="white"/>
<path d="M206.268 93.9651L206.157 93.715C201.315 82.805 191.278 78.6559 183.713 77.0999C175.5 75.4144 168.333 76.322 168.259 76.3312L168.213 75.9978C168.287 75.9886 175.491 75.0717 183.768 76.7665C191.352 78.3225 201.398 82.4623 206.343 93.3168C207.157 92.2147 210.759 87.1116 212.815 79.7024C214.954 72.0061 215.806 60.17 207.75 47.5373L208.028 47.3613C216.157 60.1051 215.287 72.0432 213.13 79.8136C210.796 88.223 206.472 93.7058 206.426 93.7521L206.268 93.9651Z" fill="white"/>
<path d="M204.759 133.132C204.611 133.132 204.537 133.132 204.528 133.132H204.389L204.37 132.993C202.639 121 196.815 114.081 192.241 110.395C187.278 106.394 182.667 105.218 182.62 105.209L182.704 104.885C182.75 104.894 187.426 106.089 192.444 110.127C197.056 113.841 202.917 120.787 204.694 132.808C204.713 132.808 204.722 132.808 204.741 132.808C206.833 132.808 225.972 132.336 235.241 115.739L235.537 115.906C230.389 125.14 222.231 129.326 216.306 131.224C210.62 133.021 205.843 133.132 204.759 133.132Z" fill="white"/>
<path d="M203.269 158.694C199.685 158.694 197.537 157.953 197.509 157.944L197.398 157.907V157.787C197.546 144.793 183.278 129.669 183.13 129.521L183.37 129.289C183.519 129.437 197.787 144.571 197.731 157.666C198.38 157.87 201.824 158.805 206.963 158.102C212.231 157.388 220.407 154.758 229.463 146.312L229.694 146.552C220.556 155.073 212.306 157.722 206.981 158.435C205.62 158.629 204.38 158.694 203.269 158.694Z" fill="white"/>
<path d="M187.537 217.256C183.315 210.578 177.898 199.659 179.491 187.165C182.287 165.364 203.306 163.308 213.158 137.051C221.102 115.87 211.62 106.044 223.259 89.2805C225.204 86.4743 235.343 71.2762 248.148 72.4339C255.361 73.0822 260.222 78.6206 261.139 79.6671C274.926 95.3931 268.407 131.902 249.676 155.269C238.917 168.689 233.37 168.133 212.546 187.295C200.315 198.548 192.296 209.763 187.537 217.256Z" fill="url(#paint1_linear)"/>
<path d="M188.787 226.841C185.102 208.17 187 193.768 194.435 184.053C198.074 179.292 201.704 177.245 205.556 175.078C209.685 172.754 213.963 170.346 218.37 164.252C222.657 158.333 223.296 154.11 224.12 148.757C224.861 143.941 225.769 137.949 229.667 128.826C233.074 120.834 236.176 116.462 238.907 112.6C241.861 108.423 244.195 105.126 245.833 98.7729C248.5 88.4 247.37 77.0177 242.491 64.95L242.796 64.8203C247.713 76.9529 248.843 88.4093 246.158 98.847C244.509 105.256 242.157 108.581 239.185 112.786C236.463 116.629 233.38 120.991 229.982 128.947C226.102 138.023 225.195 143.997 224.463 148.794C223.639 154.194 222.991 158.454 218.657 164.437C214.204 170.586 209.898 173.013 205.741 175.356C201.926 177.505 198.324 179.533 194.722 184.238C187.352 193.879 185.472 208.188 189.139 226.757L188.787 226.841Z" fill="white"/>
<path d="M237.695 114.62L237.676 114.397C237.658 114.129 235.287 87.0759 222.361 80.9448L222.509 80.6392C234.972 86.548 237.732 111.508 237.991 114.138C251.158 108.97 258.759 99.9401 262.824 93.2533C267.25 85.9738 268.537 79.8427 268.556 79.7871L268.88 79.8519C268.871 79.9168 267.565 86.1034 263.111 93.4293C259 100.19 251.297 109.341 237.908 114.527L237.695 114.62Z" fill="white"/>
<path d="M226.472 138.782C226.389 138.782 226.343 138.782 226.343 138.782H226.194L226.176 138.643C225.222 131.401 221.898 123.519 219.278 118.185C216.435 112.396 213.787 108.275 213.759 108.238L214.037 108.053C214.065 108.09 216.722 112.23 219.574 118.037C222.194 123.362 225.5 131.206 226.481 138.449C227.546 138.449 234.435 138.329 243.157 135.587C251.87 132.846 264.25 126.863 273.722 113.869L273.991 114.063C264.454 127.131 252.009 133.151 243.241 135.902C234.454 138.671 227.5 138.782 226.472 138.782Z" fill="white"/>
<path d="M218.944 174.051C212.926 174.051 209.361 173.236 209.278 173.218L209.102 173.18L209.148 173.014C213.704 157.538 202 140.08 201.88 139.904L202.157 139.719C202.278 139.895 213.981 157.343 209.519 172.93C211.435 173.329 229.13 176.552 252.074 166.253L252.213 166.559C238.528 172.699 226.704 174.051 218.944 174.051Z" fill="white"/>
<path d="M184.704 211.262C187.481 206.706 192.259 199.787 199.722 192.962C213 180.811 221.546 181.051 225.37 171.642C229.324 161.908 222.037 157.046 227.009 145.941C227.426 145.006 232.852 133.29 242.074 132.901C248.528 132.623 253.37 138.041 255.648 140.579C264.472 150.433 269.602 168.965 260.972 182.83C252.787 195.972 236.38 198.306 231.157 199.009C221.991 200.25 218.685 197.87 209.472 199.38C198.259 201.214 189.898 206.9 184.704 211.262Z" fill="url(#paint2_linear)"/>
<path d="M90.0647 245.004C94.287 238.326 99.7036 227.407 98.111 214.913C95.3147 193.112 74.2962 191.056 64.4444 164.799C56.4999 143.618 65.9814 133.792 54.3425 117.029C52.3981 114.222 42.2592 99.0242 29.4537 100.182C22.2407 100.83 17.3796 106.369 16.4629 107.415C2.67588 123.141 9.1944 159.65 27.9259 183.017C38.6851 196.437 44.2314 195.881 65.0555 215.043C77.287 226.296 85.3055 237.511 90.0647 245.004Z" fill="url(#paint3_linear)"/>
<path d="M88.8148 254.59L88.4907 254.525C92.1574 235.956 90.2778 221.647 82.9074 212.005C79.3148 207.301 75.7037 205.272 71.8889 203.124C67.7222 200.781 63.4167 198.354 58.9722 192.204C54.6389 186.221 53.9907 181.961 53.1667 176.562C52.4352 171.764 51.5185 165.791 47.6481 156.714C44.25 148.759 41.1667 144.397 38.4444 140.553C35.4722 136.348 33.1204 133.024 31.4722 126.615C28.787 116.168 29.9167 104.72 34.8333 92.5879L35.1389 92.7175C30.25 104.785 29.1296 116.168 31.7963 126.54C33.4259 132.894 35.7593 136.191 38.7222 140.368C41.4537 144.23 44.5463 148.601 47.963 156.594C51.8519 165.707 52.7685 171.709 53.5093 176.525C54.3241 181.878 54.9722 186.101 59.2593 192.019C63.6667 198.104 67.9445 200.512 72.0741 202.846C75.9167 205.013 79.5556 207.06 83.1944 211.82C90.6019 221.517 92.5 235.909 88.8148 254.59Z" fill="white"/>
<path d="M39.9074 142.368L39.6944 142.285C26.3055 137.098 18.6018 127.948 14.4907 121.187C10.037 113.861 8.73143 107.675 8.72217 107.61L9.04624 107.545C9.0555 107.61 10.3518 113.75 14.7777 121.03C18.8425 127.707 26.4351 136.737 39.6018 141.905C39.8611 139.275 42.6203 114.306 55.0833 108.406L55.2314 108.712C42.3148 114.834 39.9444 141.887 39.9166 142.164L39.9074 142.368Z" fill="white"/>
<path d="M51.1296 166.533C50.1018 166.533 43.1481 166.422 34.3425 163.662C25.574 160.911 13.1296 154.882 3.59253 141.823L3.86105 141.629C13.3425 154.623 25.7222 160.615 34.4444 163.347C43.1574 166.088 50.037 166.199 51.1111 166.209C52.0925 158.966 55.4073 151.112 58.0185 145.796C60.8703 139.989 63.5277 135.859 63.5555 135.812L63.8333 135.998C63.8055 136.035 61.1574 140.165 58.3148 145.954C55.6944 151.288 52.3703 159.17 51.4166 166.403L51.3981 166.542H51.2499C51.2499 166.533 51.2129 166.533 51.1296 166.533Z" fill="white"/>
<path d="M58.6574 201.799C50.8982 201.799 39.0741 200.447 25.3889 194.307L25.5278 194.001C48.4723 204.3 66.1574 201.077 68.0834 200.678C63.6204 185.091 75.3334 167.634 75.4445 167.467L75.7222 167.652C75.6019 167.828 63.8982 185.277 68.4537 200.762L68.5 200.929L68.3241 200.966C68.2408 200.984 64.676 201.799 58.6574 201.799Z" fill="white"/>
<path d="M92.8887 239.012C90.111 234.456 85.3332 227.537 77.8702 220.712C64.5924 208.561 56.0461 208.801 52.2221 199.392C48.2684 189.658 55.5554 184.796 50.5832 173.691C50.1665 172.756 44.7406 161.04 35.5184 160.651C29.0647 160.373 24.2221 165.791 21.9443 168.329C13.1202 178.183 7.99059 196.715 16.6202 210.58C24.8054 223.722 41.2128 226.056 46.435 226.759C55.6017 228 58.9073 225.62 68.1202 227.13C79.3332 228.964 87.6943 234.65 92.8887 239.012Z" fill="url(#paint4_linear)"/>
<path d="M158.648 89.6416C158.584 89.6509 158.528 89.6509 158.463 89.6509C157.482 89.6509 156.639 88.8451 156.547 87.7801C154.861 68.757 149.084 50.6785 140.287 36.8882C132.491 24.663 123.223 17.3743 115.473 17.3743C115.463 17.3743 115.454 17.3743 115.445 17.3743C87.2133 17.4298 81.3059 87.0669 81.2503 87.7708C81.1577 88.91 80.2318 89.7527 79.167 89.6601C78.1022 89.5583 77.3244 88.558 77.4077 87.4189C77.6485 84.3903 83.6948 13.3085 115.435 13.2344C115.445 13.2344 115.454 13.2344 115.473 13.2344C124.63 13.2344 134.834 21.0048 143.473 34.5543C152.63 48.9189 158.639 67.6919 160.389 87.4003C160.482 88.521 159.704 89.5305 158.648 89.6416Z" fill="url(#paint5_linear)"/>
<path d="M40.8522 232.955L78.0096 253.163L100.528 178.933L63.4355 79.418L52.917 82.1872L36.954 225.12C36.5837 228.352 38.1485 231.482 40.8522 232.955Z" fill="url(#paint6_linear)"/>
<path opacity="0.3" d="M100.537 178.942L63.4354 79.418L57.2317 81.048C56.3706 94.3382 56.7502 105.267 57.3336 113.232C59.8243 147.11 68.0836 156.548 64.0836 180.183C60.7595 199.836 53.491 202.503 54.1299 215.728C54.8243 230.13 64.1669 242.188 75.2873 251.672L78.028 253.163L100.537 178.942Z" fill="url(#paint7_linear)"/>
<path d="M63.4355 79.418L203.38 87.0402L247.852 238.465L78.0189 253.173L63.4355 79.418Z" fill="url(#paint8_linear)"/>
<g opacity="0.3">
<path opacity="0.3" d="M203.38 87.0396L130.399 83.0664C129.167 85.0021 127.537 88.1602 127.232 92.1797C125.436 115.991 174.547 123.697 178.945 152.917C182.297 175.163 161.686 200.835 143.287 212.273C123.908 224.323 110.778 218.219 97.6763 231.602C91.9171 237.483 88.4078 244.827 86.3245 252.45L247.852 238.465L203.38 87.0396Z" fill="url(#paint9_linear)"/>
</g>
<path d="M106.352 93.0496C105.482 93.0496 104.686 92.4013 104.482 91.4473C104.084 89.6413 94.9819 47.0293 107.825 26.1076C111.5 20.1154 116.639 16.4571 123.102 15.2253C156.287 8.94604 176.713 85.5107 177.565 88.7708C177.852 89.8729 177.26 91.012 176.232 91.3269C175.204 91.6418 174.139 90.9935 173.852 89.8914C173.649 89.132 153.537 13.6509 123.769 19.3004C118.315 20.3284 114.158 23.3013 111.037 28.3766C99.1023 47.8165 108.139 90.0674 108.232 90.4841C108.473 91.5955 107.834 92.7069 106.797 92.9755C106.649 93.031 106.5 93.0496 106.352 93.0496Z" fill="url(#paint10_linear)"/>
<path d="M106.371 99.153C109.347 99.153 111.759 96.5615 111.759 93.3646C111.759 90.1677 109.347 87.5762 106.371 87.5762C103.394 87.5762 100.982 90.1677 100.982 93.3646C100.982 96.5615 103.394 99.153 106.371 99.153Z" fill="url(#paint11_linear)"/>
<path d="M176.611 98.616C179.588 98.616 182 96.0244 182 92.8275C182 89.6306 179.588 87.0391 176.611 87.0391C173.635 87.0391 171.223 89.6306 171.223 92.8275C171.223 96.0244 173.635 98.616 176.611 98.616Z" fill="url(#paint12_linear)"/>
<path d="M214.084 159.909L170.639 117.528C169.723 116.639 168.408 116.389 167.269 116.889L144.074 127.012C142.121 127.864 141.445 130.476 142.713 132.291L180.556 186.489C181.602 187.989 183.565 188.314 184.991 187.23L213.787 165.29C215.463 164.002 215.612 161.391 214.084 159.909ZM164.408 132.43C162.945 133.486 160.639 132.55 159.25 130.346C157.871 128.142 157.936 125.493 159.399 124.428C160.862 123.372 163.167 124.308 164.556 126.512C165.936 128.725 165.871 131.365 164.408 132.43Z" fill="#D8DEE8"/>
<path d="M214.084 159.325L170.639 116.944C169.723 116.055 168.408 115.805 167.269 116.305L144.074 126.437C142.121 127.289 141.445 129.901 142.713 131.716L180.556 185.914C181.602 187.415 183.565 187.739 184.991 186.655L213.787 164.715C215.463 163.428 215.612 160.816 214.084 159.325ZM164.408 131.846C162.945 132.902 160.639 131.966 159.25 129.762C157.871 127.558 157.936 124.909 159.399 123.844C160.862 122.788 163.167 123.724 164.556 125.928C165.936 128.141 165.871 130.79 164.408 131.846Z" fill="#F4F7FA"/>
<path d="M155.371 121.445C155.232 121.445 155.102 121.361 155.046 121.232C153.537 117.684 151.509 114.619 149.009 112.118C142.167 105.274 133.324 104.2 124.769 103.163C116.259 102.125 108.222 101.153 103.426 94.3734C102.213 92.66 100.324 89.5574 101.334 88.0663C101.741 87.4643 102.546 87.1957 103.741 87.2513C103.935 87.2605 104.093 87.4272 104.084 87.6217C104.074 87.8162 103.908 87.9737 103.713 87.9644C103.074 87.9366 102.25 88.0015 101.926 88.4738C101.389 89.2703 102.204 91.4189 104.009 93.9659C108.63 100.477 116.509 101.44 124.861 102.459C133.528 103.514 142.5 104.607 149.519 111.618C152.084 114.184 154.167 117.323 155.704 120.954C155.778 121.139 155.695 121.343 155.519 121.417C155.463 121.435 155.417 121.445 155.371 121.445Z" fill="#26264F"/>
<path d="M159.084 128.613C158.991 128.613 158.899 128.576 158.834 128.511C158.695 128.372 158.695 128.15 158.834 128.011C158.862 127.983 161.843 124.973 161.825 120.954C161.815 118.49 160.695 116.138 158.491 113.971C153.815 109.377 141.417 104.061 130.473 99.3747C123.797 96.5129 117.482 93.8086 113.343 91.4747C112.408 90.9468 111.408 90.4466 110.389 89.9836C110.213 89.9002 110.13 89.6872 110.213 89.5112C110.297 89.3353 110.51 89.2519 110.686 89.3353C111.723 89.8076 112.741 90.317 113.695 90.8541C117.806 93.1695 124.093 95.8646 130.75 98.7171C141.75 103.431 154.213 108.775 158.982 113.461C161.325 115.768 162.519 118.287 162.528 120.954C162.537 125.27 159.454 128.382 159.325 128.511C159.269 128.576 159.176 128.613 159.084 128.613Z" fill="#26264F"/>
<path d="M214.084 159.325L170.639 116.944C169.723 116.055 168.408 115.805 167.269 116.305L165.204 117.203C165.741 119.176 166.556 121.39 167.787 123.649C174.204 135.421 184.732 134.911 187.167 143.08C189.324 150.323 182.093 154.203 181.139 164.363C180.667 169.438 181.75 176.19 187.574 184.673L213.797 164.696C215.463 163.428 215.611 160.816 214.084 159.325Z" fill="white"/>
<path d="M175.102 144.904C177.482 148.841 176.991 152.11 175.093 153.434C173.093 154.824 170.232 153.786 168.093 150.248C166.065 146.886 165.954 143.339 168.195 141.783C170.454 140.2 173.158 141.691 175.102 144.904ZM170.297 148.544C171.491 150.517 172.806 151.61 173.695 150.989C174.565 150.387 174.213 148.813 172.936 146.701C171.778 144.793 170.528 143.571 169.574 144.228C168.676 144.858 169.167 146.655 170.297 148.544ZM180.01 161.186L175.778 136.486L177.436 135.328L181.649 160.047L180.01 161.186ZM189.269 146.127C191.649 150.063 191.158 153.332 189.26 154.657C187.287 156.037 184.417 154.99 182.26 151.471C180.232 148.109 180.121 144.562 182.362 143.006C184.621 141.431 187.324 142.923 189.269 146.127ZM184.482 149.758C185.649 151.739 186.973 152.832 187.862 152.212C188.732 151.61 188.38 150.035 187.102 147.924C185.945 146.016 184.713 144.775 183.76 145.442C182.843 146.09 183.352 147.877 184.482 149.758Z" fill="#D8DEE8"/>
<path d="M180.926 174.855C180.343 174.855 179.778 174.54 179.454 173.966C178.963 173.096 179.223 171.957 180.028 171.419L200.954 157.777C201.769 157.249 202.824 157.527 203.324 158.398C203.815 159.268 203.556 160.407 202.741 160.945L181.815 174.587C181.537 174.772 181.232 174.855 180.926 174.855Z" fill="#D8DEE8"/>
<path d="M153.306 253.728C153.306 255.627 151.954 257.266 150.306 257.359L33.7039 264.481C31.491 264.61 29.0002 262.74 29.0002 260.535V178.914C29.0002 176.701 31.5558 174.848 33.7595 174.941L150.306 179.933C151.963 179.998 153.306 181.609 153.306 183.517V253.728Z" fill="url(#paint13_linear)"/>
<path d="M155.473 253.857C155.473 255.765 154.121 257.413 152.454 257.506L34.6022 264.498C32.38 264.628 30.5559 262.924 30.5559 260.701V178.681C30.5559 176.459 32.38 174.718 34.6022 174.81L152.454 179.7C154.121 179.765 155.473 181.386 155.473 183.294V253.857Z" fill="url(#paint14_linear)"/>
<path d="M155.473 234.631L30.5559 241.04V256.062L155.473 248.727V234.631Z" fill="url(#paint15_linear)"/>
<g opacity="0.15">
<path opacity="0.15" d="M67.4262 201.938C67.2873 211.255 61.454 216.099 54.9632 216.08C47.8892 216.052 42.2225 210.634 42.3614 201.725C42.491 193.26 47.8243 187.231 55.741 187.823C63.4262 188.398 67.5373 194.334 67.4262 201.938ZM50.6392 201.762C50.5651 206.624 52.1577 210.162 55.2595 210.218C58.2503 210.273 59.741 207.226 59.8151 202.123C59.8892 197.511 58.704 193.871 55.4355 193.677C52.2688 193.482 50.704 197.113 50.6392 201.762ZM57.1947 231.723L79.7132 190.944C80.1484 190.167 80.991 189.703 81.8799 189.778C83.528 189.898 84.5003 191.685 83.7132 193.139L61.4447 233.909C61.0651 234.612 60.3429 235.057 59.5466 235.094L59.2966 235.103C57.5188 235.187 56.3336 233.288 57.1947 231.723ZM95.7317 220.229C95.6021 228.861 90.6021 233.584 85.0466 233.834C79.0743 234.094 74.2595 229.333 74.3151 221.128C74.4354 213.33 78.9817 207.523 85.741 207.708C92.3151 207.884 95.8336 213.191 95.7317 220.229ZM81.4262 220.804C81.2966 225.295 82.6484 228.491 85.3058 228.407C87.8614 228.333 89.1391 225.453 89.2132 220.739C89.278 216.469 88.3243 213.163 85.5373 213.135C82.7595 213.089 81.491 216.506 81.4262 220.804Z" fill="url(#paint16_linear)"/>
</g>
<path d="M68.5097 201.502C68.3708 210.819 62.5375 215.663 56.0467 215.645C48.9727 215.617 43.306 210.199 43.4449 201.289C43.5745 192.824 48.9078 186.795 56.8245 187.388C64.519 187.962 68.6208 193.899 68.5097 201.502ZM51.7227 201.326C51.6486 206.189 53.2412 209.727 56.343 209.782C59.3338 209.838 60.8245 206.791 60.8986 201.688C60.9727 197.075 59.7875 193.436 56.519 193.241C53.3523 193.047 51.7967 196.677 51.7227 201.326ZM58.2875 231.287L80.806 190.509C81.2412 189.731 82.0838 189.268 82.9727 189.342C84.6208 189.462 85.593 191.25 84.806 192.704L62.5375 233.473C62.1578 234.177 61.4356 234.621 60.6393 234.658L60.3893 234.668C58.6023 234.751 57.4264 232.852 58.2875 231.287ZM96.8152 219.803C96.6856 228.435 91.6856 233.158 86.1301 233.399C80.1578 233.658 75.343 228.898 75.3986 220.692C75.519 212.894 80.0653 207.087 86.8245 207.272C93.3986 207.448 96.9171 212.755 96.8152 219.803ZM82.5097 220.368C82.3801 224.86 83.7319 228.055 86.3893 227.972C88.9449 227.898 90.2227 225.017 90.2967 220.303C90.3615 216.034 89.4078 212.727 86.6208 212.699C83.8523 212.653 82.5745 216.071 82.5097 220.368Z" fill="white"/>
<path opacity="0.3" d="M152.454 179.7L35.9631 174.865C41.2224 190.443 48.7502 197.417 55.2224 200.834C67.5372 207.336 76.3705 201.131 86.9168 209.54C97.7409 218.172 93.6205 228.832 105.028 236.019C113.602 241.418 119.13 237.408 128.019 242.289C134.602 245.901 138.722 252.023 141.352 258.163L152.463 257.505C154.13 257.403 155.482 255.764 155.482 253.856V183.302C155.472 181.385 154.111 179.774 152.454 179.7Z" fill="url(#paint17_linear)"/>
<path opacity="0.3" d="M153.824 217.033L150.982 214.338L148.287 217.181L145.445 214.486L142.75 217.329L139.908 214.634L137.213 217.478L134.371 214.782L131.676 217.626L128.834 214.931L126.139 217.774L123.297 215.079L120.602 217.922L117.76 215.227L115.065 218.07L112.223 215.375L109.528 218.218L105.898 214.773C105.898 216.153 105.898 257.358 105.898 257.358C105.898 257.358 105.75 259.793 102.806 260.442L153.056 256.728C153.63 256.681 154.167 256.524 154.649 256.274C155.158 255.626 155.473 254.774 155.473 253.857V215.301L153.824 217.033Z" fill="url(#paint18_linear)"/>
<path d="M161.908 215.615V254.412C161.908 256.579 160.186 258.375 158.029 258.533L142.084 259.7L107.64 262.219C110.584 261.58 110.649 259.135 110.649 259.135C110.649 259.135 110.649 217.921 110.649 216.551L114.353 219.996L116.297 217.986L117.112 217.153L119.964 219.848L122.667 217.004L125.51 219.7L128.204 216.856L131.047 219.551L133.742 216.708L136.584 219.403L139.279 216.56L142.121 219.255L144.816 216.412L147.658 219.107L150.353 216.264L153.195 218.959L155.89 216.115L158.788 218.81L161.908 215.615Z" fill="white"/>
<path d="M156.111 238.147L149.898 238.425C149.482 238.444 149.148 238.786 149.148 239.203V242.056C149.148 242.509 149.528 242.861 149.973 242.834L156.185 242.482C156.602 242.454 156.926 242.111 156.926 241.704V238.916C156.926 238.481 156.556 238.129 156.111 238.147Z" fill="#D8DEE8"/>
<path d="M156.102 243.668L149.889 244.019C149.473 244.047 149.148 244.39 149.148 244.797V247.78C149.148 248.233 149.528 248.585 149.982 248.558L156.195 248.159C156.611 248.132 156.926 247.789 156.926 247.381V244.446C156.926 243.992 156.547 243.64 156.102 243.668Z" fill="#D8DEE8"/>
<path d="M156.926 230.239V225.136C156.926 224.692 156.556 224.34 156.111 224.358L149.898 224.58C149.482 224.599 149.148 224.942 149.148 225.358V230.526C149.148 230.971 149.519 231.332 149.963 231.304L156.176 231.026C156.593 230.999 156.926 230.656 156.926 230.239Z" fill="#D8DEE8"/>
<path d="M143.185 238.731L117.871 239.87C117.454 239.889 117.121 240.232 117.121 240.648V243.862C117.121 244.316 117.5 244.668 117.945 244.64L143.259 243.214C143.676 243.186 144 242.843 144 242.436V239.509C144.009 239.065 143.639 238.713 143.185 238.731Z" fill="#D8DEE8"/>
<path d="M143.185 244.39L117.871 245.816C117.454 245.844 117.13 246.187 117.13 246.594V249.817C117.13 250.271 117.51 250.623 117.963 250.595L143.278 248.975C143.695 248.947 144.01 248.604 144.01 248.197V245.168C144.01 244.724 143.63 244.362 143.185 244.39Z" fill="#D8DEE8"/>
<path d="M144.01 230.822V225.599C144.01 225.154 143.639 224.802 143.195 224.821L117.88 225.729C117.463 225.747 117.13 226.09 117.13 226.507V231.962C117.13 232.406 117.501 232.767 117.945 232.74L143.26 231.6C143.676 231.582 144.01 231.239 144.01 230.822Z" fill="#D8DEE8"/>
<path opacity="0.4" d="M142.065 259.7L107.63 262.219C110.574 261.58 110.658 259.135 110.658 259.135C110.658 259.135 110.658 217.921 110.658 216.551L114.361 219.996L116.306 217.986C117.926 219.45 119.222 221.802 119.584 225.525C120.787 237.936 126.602 237.111 133.454 237.584C140.315 238.047 143.472 245.993 140.695 252.124C139.454 254.875 139.954 257.644 142.065 259.7Z" fill="#F4F7FA"/>
<path d="M27.3706 261.164V266.249C27.3706 267.888 37.6299 269.222 50.2965 269.222C62.9632 269.222 73.2225 267.888 73.2225 266.249V261.164H27.3706Z" fill="url(#paint19_linear)"/>
<path d="M73.2132 261.164C73.2132 262.804 62.9539 264.137 50.2873 264.137C37.6206 264.137 27.3613 262.804 27.3613 261.164C27.3613 259.525 37.6206 258.191 50.2873 258.191C62.9539 258.191 73.2132 259.516 73.2132 261.164Z" fill="url(#paint20_linear)"/>
<path d="M50.2965 264.341C39.0836 264.341 27.3613 263.267 27.3613 261.202C27.3613 261.09 27.3984 260.887 27.5187 260.887C27.6298 260.887 27.5835 261.044 27.5835 261.155C27.5835 262.461 36.9169 263.924 50.2965 263.924C63.6854 263.924 73.0095 262.461 73.0095 261.155C73.0095 261.044 73.028 260.933 73.1391 260.933C73.2502 260.933 73.2224 261.081 73.2224 261.202C73.2317 263.276 61.5095 264.341 50.2965 264.341Z" fill="url(#paint21_linear)"/>
<path d="M48.1298 261.33C48.352 261.173 48.5928 261.025 48.852 260.867C49.102 260.719 49.4354 260.58 49.8335 260.46C50.2317 260.339 50.7409 260.237 51.3428 260.163C51.9446 260.089 52.7039 260.043 53.602 260.043C54.4909 260.043 55.315 260.071 56.0928 260.126C56.8705 260.191 57.5557 260.275 58.1483 260.395C58.7409 260.515 59.2224 260.663 59.5928 260.839C59.9631 261.015 60.1761 261.219 60.2502 261.451L62.8335 261.478C63.0187 261.478 63.1854 261.497 63.3242 261.525C63.4724 261.553 63.5372 261.59 63.5372 261.636V261.849L60.2224 261.821C60.102 262.08 59.8057 262.321 59.3335 262.534C58.8613 262.747 58.2502 262.942 57.5187 263.099L56.3057 262.933C56.1946 262.914 56.1113 262.895 56.0372 262.868C55.9631 262.84 55.9354 262.812 55.9354 262.784C55.9354 262.747 56.0279 262.701 56.2131 262.645C56.3983 262.59 56.6113 262.525 56.8428 262.451C57.0742 262.377 57.3057 262.284 57.5372 262.173C57.7594 262.071 57.9168 261.942 57.9909 261.793L50.1576 261.719C49.9539 261.867 49.7224 262.016 49.4631 262.164C49.2039 262.312 48.8705 262.442 48.4446 262.562C48.0187 262.682 47.5002 262.775 46.8705 262.849C46.2409 262.923 45.4539 262.96 44.4909 262.97C43.7687 262.97 43.0742 262.942 42.3891 262.886C41.7039 262.831 41.0928 262.738 40.565 262.627C40.0372 262.516 39.602 262.368 39.2594 262.201C38.9168 262.034 38.7317 261.84 38.6854 261.617L36.565 261.599C36.3798 261.599 36.2131 261.58 36.065 261.553C35.9168 261.525 35.8428 261.488 35.8428 261.441V261.228L38.7502 261.256C38.8798 261.034 39.1391 260.839 39.5465 260.673C39.9446 260.506 40.4446 260.358 41.0187 260.228L41.9909 260.358C42.2872 260.395 42.4354 260.45 42.4354 260.506C42.4354 260.534 42.3798 260.571 42.2502 260.617C42.1298 260.663 41.9817 260.719 41.815 260.775C41.6483 260.839 41.4909 260.914 41.3335 260.997C41.1761 261.08 41.0557 261.173 40.9817 261.284L48.1298 261.33ZM40.9631 261.617C41.0187 261.756 41.1483 261.877 41.352 261.979C41.5465 262.08 41.7965 262.164 42.0928 262.229C42.3891 262.293 42.7224 262.34 43.0835 262.368C43.4539 262.395 43.8428 262.414 44.2409 262.414C44.7131 262.414 45.1205 262.395 45.4724 262.349C45.8242 262.312 46.1298 262.256 46.3891 262.192C46.6483 262.127 46.8891 262.053 47.0835 261.96C47.278 261.877 47.4539 261.775 47.6113 261.673L40.9631 261.617ZM58.0094 261.423C57.9539 261.284 57.8057 261.154 57.5835 261.052C57.3613 260.951 57.0742 260.858 56.7317 260.784C56.3891 260.71 55.9909 260.654 55.5279 260.626C55.0742 260.589 54.565 260.571 54.0187 260.58C53.5279 260.58 53.102 260.608 52.7502 260.645C52.3983 260.682 52.0928 260.738 51.8335 260.812C51.5742 260.886 51.352 260.96 51.1761 261.052C50.9909 261.145 50.8242 261.247 50.6668 261.349L58.0094 261.423Z" fill="#FCB048"/>
<path d="M50.2965 258.506C40.0743 258.506 29.4354 259.404 27.7317 261.145C27.7965 261.21 27.8613 261.275 27.9169 261.34C29.3521 260.127 38.1391 258.913 50.2965 258.913C62.7687 258.913 71.6947 260.191 72.778 261.432C72.8336 261.368 72.8891 261.303 72.9539 261.238C71.5373 259.441 60.6947 258.506 50.2965 258.506Z" fill="url(#paint22_linear)"/>
<path d="M21.0002 255.818V260.903C21.0002 262.542 31.2595 263.876 43.9262 263.876C56.5836 263.876 66.8521 262.542 66.8521 260.903V255.818H21.0002Z" fill="url(#paint23_linear)"/>
<path d="M66.8428 255.819C66.8428 257.458 56.5836 258.792 43.9169 258.792C31.2595 258.792 20.991 257.458 20.991 255.819C20.991 254.179 31.2502 252.846 43.9169 252.846C56.5836 252.846 66.8428 254.179 66.8428 255.819Z" fill="url(#paint24_linear)"/>
<path d="M43.9262 258.996C32.7132 258.996 20.991 257.921 20.991 255.856C20.991 255.745 21.028 255.541 21.1484 255.541C21.2595 255.541 21.2132 255.698 21.2132 255.81C21.2132 257.115 30.5465 258.579 43.9262 258.579C57.3058 258.579 66.6391 257.115 66.6391 255.81C66.6391 255.698 66.6577 255.587 66.7688 255.587C66.8799 255.587 66.8521 255.736 66.8521 255.856C66.8614 257.93 55.1299 258.996 43.9262 258.996Z" fill="url(#paint25_linear)"/>
<path d="M41.7595 255.985C41.9817 255.827 42.2224 255.679 42.4817 255.522C42.7317 255.373 43.065 255.234 43.4632 255.114C43.8613 254.994 44.3706 254.892 44.9724 254.818C45.5743 254.744 46.3335 254.697 47.2317 254.697C48.1206 254.697 48.9446 254.725 49.7224 254.781C50.5002 254.845 51.1854 254.929 51.778 255.049C52.3706 255.17 52.852 255.318 53.2224 255.494C53.5928 255.67 53.8058 255.873 53.8798 256.105L56.4632 256.133C56.6483 256.133 56.815 256.151 56.9539 256.179C57.102 256.207 57.1669 256.244 57.1669 256.29V256.503L53.852 256.475C53.7317 256.735 53.4354 256.976 52.9632 257.189C52.4909 257.402 51.8798 257.596 51.1483 257.754L49.9354 257.587C49.8243 257.568 49.7409 257.55 49.6669 257.522C49.5928 257.494 49.565 257.466 49.565 257.439C49.565 257.402 49.6576 257.355 49.8428 257.3C50.028 257.244 50.2409 257.179 50.4724 257.105C50.7039 257.031 50.9354 256.939 51.1669 256.827C51.3891 256.726 51.5465 256.596 51.6206 256.448L43.7872 256.374C43.5835 256.522 43.352 256.67 43.0928 256.818C42.8335 256.966 42.5002 257.096 42.0743 257.216C41.6483 257.337 41.1298 257.429 40.5002 257.503C39.8706 257.578 39.0835 257.615 38.1206 257.624C37.3983 257.624 36.7039 257.596 36.0187 257.541C35.3335 257.485 34.7224 257.392 34.1946 257.281C33.6669 257.17 33.2317 257.022 32.8891 256.855C32.5465 256.688 32.3613 256.494 32.315 256.272L30.1946 256.253C30.0095 256.253 29.8428 256.235 29.6946 256.207C29.5465 256.179 29.4724 256.142 29.4724 256.096V255.883L32.3798 255.911C32.5095 255.688 32.7687 255.494 33.1761 255.327C33.5743 255.16 34.0743 255.012 34.6483 254.882L35.6206 255.012C35.9169 255.049 36.065 255.105 36.065 255.16C36.065 255.188 36.0095 255.225 35.8798 255.271C35.7595 255.318 35.6113 255.373 35.4446 255.429C35.278 255.494 35.1206 255.568 34.9632 255.651C34.8057 255.735 34.6854 255.827 34.6113 255.938L41.7595 255.985ZM34.5835 256.272C34.6391 256.411 34.7687 256.531 34.9724 256.633C35.1669 256.735 35.4169 256.818 35.7132 256.883C36.0095 256.948 36.3428 256.994 36.7039 257.022C37.0743 257.05 37.4632 257.068 37.8613 257.068C38.3335 257.068 38.7409 257.05 39.0928 257.003C39.4446 256.966 39.7502 256.911 40.0095 256.846C40.2687 256.781 40.5095 256.707 40.7039 256.614C40.8983 256.531 41.0743 256.429 41.2317 256.327L34.5835 256.272ZM51.6391 256.086C51.5835 255.948 51.4354 255.818 51.2132 255.716C50.9909 255.614 50.7039 255.522 50.3613 255.447C50.0187 255.373 49.6206 255.318 49.1576 255.29C48.7039 255.253 48.1946 255.234 47.6483 255.244C47.1576 255.244 46.7317 255.271 46.3798 255.309C46.028 255.346 45.7224 255.401 45.4632 255.475C45.2039 255.549 44.9817 255.623 44.8057 255.716C44.6206 255.809 44.4539 255.911 44.2965 256.012L51.6391 256.086Z" fill="#FCB048"/>
<path d="M43.9261 253.16C33.7039 253.16 23.065 254.059 21.3613 255.8C21.4261 255.865 21.491 255.929 21.5465 255.994C22.9817 254.781 31.7687 253.568 43.9261 253.568C56.3984 253.568 65.3243 254.846 66.4076 256.087C66.4632 256.022 66.5187 255.957 66.5835 255.892C65.1669 254.096 54.3243 253.16 43.9261 253.16Z" fill="url(#paint26_linear)"/>
<path d="M26.5002 250.494V255.579C26.5002 257.218 36.7595 258.552 49.4262 258.552C62.0836 258.552 72.3521 257.218 72.3521 255.579V250.494H26.5002Z" fill="url(#paint27_linear)"/>
<path d="M72.3433 250.494C72.3433 252.134 62.084 253.467 49.4174 253.467C36.76 253.467 26.4915 252.134 26.4915 250.494C26.4915 248.855 36.7507 247.521 49.4174 247.521C62.084 247.521 72.3433 248.846 72.3433 250.494Z" fill="url(#paint28_linear)"/>
<path d="M49.4169 253.671C38.2039 253.671 26.4817 252.597 26.4817 250.532C26.4817 250.421 26.5187 250.217 26.6391 250.217C26.7502 250.217 26.7039 250.374 26.7039 250.485C26.7039 251.791 36.0372 253.255 49.4169 253.255C62.8058 253.255 72.1298 251.791 72.1298 250.485C72.1298 250.374 72.1483 250.263 72.2595 250.263C72.3706 250.263 72.3428 250.411 72.3428 250.532C72.352 252.606 60.6298 253.671 49.4169 253.671Z" fill="url(#paint29_linear)"/>
<path d="M47.2502 250.66C47.4724 250.503 47.7131 250.355 47.9724 250.197C48.2224 250.049 48.5557 249.91 48.9539 249.79C49.352 249.669 49.8613 249.568 50.4631 249.493C51.065 249.419 51.8243 249.373 52.7224 249.373C53.6113 249.373 54.4354 249.401 55.2131 249.456C55.9909 249.521 56.6761 249.605 57.2687 249.725C57.8613 249.845 58.3428 249.994 58.7131 250.17C59.0835 250.345 59.2965 250.549 59.3706 250.781L61.9539 250.809C62.1391 250.809 62.3057 250.827 62.4446 250.855C62.5928 250.883 62.6576 250.92 62.6576 250.966V251.179L59.3428 251.151C59.2224 251.411 58.9261 251.651 58.4539 251.864C57.9817 252.077 57.3706 252.272 56.6391 252.429L55.4261 252.263C55.315 252.244 55.2317 252.226 55.1576 252.198C55.0835 252.17 55.0557 252.142 55.0557 252.114C55.0557 252.077 55.1483 252.031 55.3335 251.975C55.5187 251.92 55.7317 251.855 55.9631 251.781C56.1946 251.707 56.4261 251.614 56.6576 251.503C56.8798 251.401 57.0372 251.272 57.1113 251.123L49.278 251.049C49.0743 251.198 48.8428 251.346 48.5835 251.494C48.3243 251.642 47.9909 251.772 47.565 251.892C47.1391 252.013 46.6205 252.105 45.9909 252.179C45.3613 252.253 44.5743 252.29 43.6113 252.3C42.8891 252.3 42.1946 252.272 41.5094 252.216C40.8242 252.161 40.2131 252.068 39.6854 251.957C39.1576 251.846 38.7224 251.698 38.3798 251.531C38.0372 251.364 37.852 251.17 37.8057 250.947L35.6854 250.929C35.5002 250.929 35.3335 250.91 35.1854 250.883C35.0372 250.855 34.9631 250.818 34.9631 250.772V250.558L37.8705 250.586C38.0002 250.364 38.2594 250.17 38.6668 250.003C39.065 249.836 39.565 249.688 40.1391 249.558L41.1113 249.688C41.4076 249.725 41.5557 249.781 41.5557 249.836C41.5557 249.864 41.5002 249.901 41.3705 249.947C41.2502 249.994 41.102 250.049 40.9354 250.105C40.7687 250.17 40.6113 250.244 40.4539 250.327C40.2965 250.41 40.1761 250.503 40.102 250.614L47.2502 250.66ZM40.0835 250.947C40.1391 251.086 40.2687 251.207 40.4724 251.309C40.6668 251.411 40.9168 251.494 41.2131 251.559C41.5094 251.624 41.8428 251.67 42.2039 251.698C42.5742 251.725 42.9631 251.744 43.3613 251.744C43.8335 251.744 44.2409 251.725 44.5928 251.679C44.9446 251.642 45.2502 251.587 45.5094 251.522C45.7687 251.457 46.0094 251.383 46.2039 251.29C46.3983 251.207 46.5743 251.105 46.7317 251.003L40.0835 250.947ZM57.1391 250.762C57.0835 250.623 56.9354 250.494 56.7131 250.392C56.4909 250.29 56.2039 250.197 55.8613 250.123C55.5187 250.049 55.1206 249.994 54.6576 249.966C54.2039 249.929 53.6946 249.91 53.1483 249.919C52.6576 249.919 52.2317 249.947 51.8798 249.984C51.528 250.021 51.2224 250.077 50.9631 250.151C50.7039 250.225 50.4817 250.299 50.3057 250.392C50.1205 250.484 49.9539 250.586 49.7965 250.688L57.1391 250.762Z" fill="#FCB048"/>
<path d="M49.4261 247.836C39.2039 247.836 28.565 248.734 26.8613 250.475C26.9261 250.54 26.991 250.605 27.0465 250.67C28.4817 249.457 37.2687 248.243 49.4261 248.243C61.8984 248.243 70.8243 249.522 71.9076 250.763C71.9632 250.698 72.0188 250.633 72.0836 250.568C70.6669 248.771 59.8243 247.836 49.4261 247.836Z" fill="url(#paint30_linear)"/>
<path d="M29.8337 245.15V250.235C29.8337 251.874 40.093 253.208 52.7597 253.208C65.4171 253.208 75.6856 251.874 75.6856 250.235V245.15H29.8337Z" fill="url(#paint31_linear)"/>
<path d="M52.7602 248.124C65.4218 248.124 75.6861 246.793 75.6861 245.151C75.6861 243.509 65.4218 242.178 52.7602 242.178C40.0985 242.178 29.8342 243.509 29.8342 245.151C29.8342 246.793 40.0985 248.124 52.7602 248.124Z" fill="url(#paint32_linear)"/>
<path d="M52.7596 248.335C41.5467 248.335 29.8245 247.261 29.8245 245.196C29.8245 245.085 29.8615 244.881 29.9819 244.881C30.093 244.881 30.0467 245.038 30.0467 245.149C30.0467 246.455 39.38 247.919 52.7596 247.919C66.1485 247.919 75.4726 246.455 75.4726 245.149C75.4726 245.038 75.4911 244.927 75.6022 244.927C75.7133 244.927 75.6856 245.075 75.6856 245.196C75.6948 247.261 63.9726 248.335 52.7596 248.335Z" fill="url(#paint33_linear)"/>
<path d="M50.5929 245.319C50.8152 245.161 51.0559 245.013 51.3152 244.856C51.5652 244.707 51.8985 244.568 52.2966 244.448C52.6948 244.328 53.2041 244.226 53.8059 244.152C54.4078 244.078 55.167 244.031 56.0652 244.031C56.9541 244.031 57.7781 244.059 58.5559 244.115C59.3337 244.179 60.0189 244.263 60.6115 244.383C61.2041 244.504 61.6855 244.652 62.0559 244.828C62.4263 245.004 62.6392 245.207 62.7133 245.439L65.2967 245.467C65.4818 245.467 65.6485 245.485 65.7874 245.513C65.9355 245.541 66.0004 245.578 66.0004 245.624V245.837L62.6855 245.8C62.5652 246.06 62.2689 246.3 61.7967 246.513C61.3244 246.726 60.7133 246.921 59.9818 247.078L58.7689 246.912C58.6578 246.893 58.5744 246.875 58.5004 246.847C58.4263 246.819 58.3985 246.791 58.3985 246.763C58.3985 246.726 58.4911 246.68 58.6763 246.624C58.8615 246.569 59.0744 246.504 59.3059 246.43C59.5374 246.356 59.7689 246.263 60.0004 246.152C60.2226 246.05 60.38 245.921 60.4541 245.772L52.6207 245.698C52.417 245.847 52.1855 245.995 51.9263 246.143C51.667 246.291 51.3337 246.421 50.9078 246.541C50.4818 246.662 49.9633 246.754 49.3337 246.828C48.7041 246.902 47.917 246.939 46.9541 246.949C46.2318 246.949 45.5374 246.921 44.8522 246.865C44.167 246.81 43.5559 246.717 43.0281 246.606C42.5004 246.495 42.0652 246.347 41.7226 246.18C41.38 246.013 41.1948 245.819 41.1485 245.596L39.0281 245.578C38.8429 245.578 38.6763 245.559 38.5281 245.532C38.38 245.504 38.3059 245.467 38.3059 245.42V245.207L41.2133 245.235C41.3429 245.013 41.6022 244.819 42.0096 244.652C42.4078 244.485 42.9078 244.337 43.4818 244.207L44.4541 244.337C44.7504 244.374 44.8985 244.43 44.8985 244.485C44.8985 244.513 44.8429 244.55 44.7133 244.596C44.5929 244.643 44.4448 244.698 44.2781 244.754C44.1115 244.818 43.9541 244.893 43.7966 244.976C43.6392 245.059 43.5189 245.152 43.4448 245.263L50.5929 245.319ZM43.4263 245.606C43.4818 245.745 43.6115 245.865 43.8152 245.967C44.0096 246.069 44.2596 246.152 44.5559 246.217C44.8522 246.282 45.1855 246.328 45.5466 246.356C45.917 246.384 46.3059 246.402 46.7041 246.402C47.1763 246.402 47.5837 246.384 47.9355 246.337C48.2874 246.3 48.5929 246.245 48.8522 246.18C49.1115 246.115 49.3522 246.041 49.5466 245.948C49.7411 245.865 49.917 245.763 50.0744 245.661L43.4263 245.606ZM60.4726 245.42C60.417 245.282 60.2689 245.152 60.0467 245.05C59.8244 244.948 59.5374 244.856 59.1948 244.781C58.8522 244.707 58.4541 244.652 57.9911 244.624C57.5374 244.587 57.0281 244.568 56.4818 244.578C55.9911 244.578 55.5652 244.605 55.2133 244.643C54.8615 244.68 54.5559 244.735 54.2967 244.809C54.0374 244.883 53.8152 244.957 53.6392 245.05C53.4541 245.143 53.2874 245.245 53.13 245.346L60.4726 245.42Z" fill="#FCB048"/>
<path d="M52.7596 242.502C42.5374 242.502 31.8985 243.4 30.1948 245.141C30.2596 245.206 30.3245 245.271 30.38 245.336C31.8152 244.123 40.6022 242.909 52.7596 242.909C65.2319 242.909 74.1578 244.188 75.2411 245.429C75.2967 245.364 75.3523 245.299 75.4171 245.234C74.0004 243.428 63.1578 242.502 52.7596 242.502Z" fill="url(#paint34_linear)"/>
<path d="M27.3706 239.391V244.475C27.3706 246.114 37.6299 247.448 50.2965 247.448C62.9632 247.448 73.2225 246.114 73.2225 244.475V239.391H27.3706Z" fill="url(#paint35_linear)"/>
<path d="M73.2132 239.391C73.2132 241.03 62.9539 242.364 50.2873 242.364C37.6206 242.364 27.3613 241.03 27.3613 239.391C27.3613 237.752 37.6206 236.418 50.2873 236.418C62.9539 236.418 73.2132 237.742 73.2132 239.391Z" fill="url(#paint36_linear)"/>
<path d="M50.2965 242.568C39.0836 242.568 27.3613 241.493 27.3613 239.428C27.3613 239.317 27.3984 239.113 27.5187 239.113C27.6298 239.113 27.5835 239.271 27.5835 239.382C27.5835 240.688 36.9169 242.151 50.2965 242.151C63.6854 242.151 73.0095 240.688 73.0095 239.382C73.0095 239.271 73.028 239.16 73.1391 239.16C73.2502 239.16 73.2224 239.308 73.2224 239.428C73.2317 241.503 61.5095 242.568 50.2965 242.568Z" fill="url(#paint37_linear)"/>
<path d="M48.1298 239.557C48.352 239.399 48.5928 239.251 48.852 239.094C49.102 238.946 49.4354 238.807 49.8335 238.686C50.2317 238.566 50.7409 238.464 51.3428 238.39C51.9446 238.316 52.7039 238.27 53.602 238.27C54.4909 238.27 55.315 238.297 56.0928 238.353C56.8705 238.418 57.5557 238.501 58.1483 238.621C58.7409 238.742 59.2224 238.89 59.5928 239.066C59.9631 239.242 60.1761 239.446 60.2502 239.677L62.8335 239.705C63.0187 239.705 63.1854 239.724 63.3242 239.751C63.4724 239.779 63.5372 239.816 63.5372 239.863V240.076L60.2224 240.048C60.102 240.307 59.8057 240.548 59.3335 240.761C58.8613 240.974 58.2502 241.168 57.5187 241.326L56.3057 241.159C56.1946 241.141 56.1113 241.122 56.0372 241.094C55.9631 241.066 55.9354 241.039 55.9354 241.011C55.9354 240.974 56.0279 240.928 56.2131 240.872C56.3983 240.816 56.6113 240.752 56.8428 240.678C57.0742 240.603 57.3057 240.511 57.5372 240.4C57.7594 240.298 57.9168 240.168 57.9909 240.02L50.1576 239.946C49.9539 240.094 49.7224 240.242 49.4631 240.39C49.2039 240.539 48.8705 240.668 48.4446 240.789C48.0187 240.909 47.5002 241.002 46.8705 241.076C46.2409 241.15 45.4539 241.187 44.4909 241.196C43.7687 241.196 43.0742 241.168 42.3891 241.113C41.7039 241.057 41.0928 240.965 40.565 240.853C40.0372 240.742 39.602 240.594 39.2594 240.427C38.9168 240.261 38.7317 240.066 38.6854 239.844L36.565 239.825C36.3798 239.825 36.2131 239.807 36.065 239.779C35.9168 239.751 35.8428 239.714 35.8428 239.668V239.455L38.7502 239.483C38.8798 239.261 39.1391 239.066 39.5465 238.899C39.9446 238.733 40.4446 238.584 41.0187 238.455L41.9909 238.584C42.2872 238.621 42.4354 238.677 42.4354 238.733C42.4354 238.76 42.3798 238.797 42.2502 238.844C42.1298 238.89 41.9817 238.946 41.815 239.001C41.6483 239.066 41.4909 239.14 41.3335 239.223C41.1761 239.307 41.0557 239.399 40.9817 239.511L48.1298 239.557ZM40.9631 239.844C41.0187 239.983 41.1483 240.103 41.352 240.205C41.5465 240.307 41.7965 240.39 42.0928 240.455C42.3891 240.52 42.7224 240.566 43.0835 240.594C43.4539 240.622 43.8428 240.64 44.2409 240.64C44.7131 240.64 45.1205 240.622 45.4724 240.576C45.8242 240.539 46.1298 240.483 46.3891 240.418C46.6483 240.353 46.8891 240.279 47.0835 240.187C47.278 240.103 47.4539 240.001 47.6113 239.9L40.9631 239.844ZM58.0094 239.659C57.9539 239.52 57.8057 239.39 57.5835 239.288C57.3613 239.186 57.0742 239.094 56.7317 239.02C56.3891 238.946 55.9909 238.89 55.5279 238.862C55.0742 238.825 54.565 238.807 54.0187 238.816C53.5279 238.816 53.102 238.844 52.7502 238.881C52.3983 238.918 52.0928 238.973 51.8335 239.048C51.5742 239.122 51.352 239.196 51.1761 239.288C50.9909 239.381 50.8242 239.483 50.6668 239.585L58.0094 239.659Z" fill="#FCB048"/>
<path d="M50.2965 236.732C40.0743 236.732 29.4354 237.631 27.7317 239.372C27.7965 239.437 27.8613 239.502 27.9169 239.566C29.3521 238.353 38.1391 237.14 50.2965 237.14C62.7687 237.14 71.6947 238.418 72.778 239.659C72.8336 239.594 72.8891 239.529 72.9539 239.465C71.5373 237.668 60.6947 236.732 50.2965 236.732Z" fill="url(#paint38_linear)"/>
<path d="M21.0002 234.047V239.131C21.0002 240.771 31.2595 242.104 43.9262 242.104C56.5836 242.104 66.8521 240.771 66.8521 239.131V234.047H21.0002Z" fill="url(#paint39_linear)"/>
<path d="M43.9267 237.02C56.5883 237.02 66.8526 235.689 66.8526 234.047C66.8526 232.405 56.5883 231.074 43.9267 231.074C31.265 231.074 21.0007 232.405 21.0007 234.047C21.0007 235.689 31.265 237.02 43.9267 237.02Z" fill="url(#paint40_linear)"/>
<path d="M43.9262 237.234C32.7132 237.234 20.991 236.16 20.991 234.094C20.991 233.983 21.028 233.779 21.1484 233.779C21.2595 233.779 21.2132 233.937 21.2132 234.048C21.2132 235.354 30.5465 236.817 43.9262 236.817C57.3058 236.817 66.6391 235.354 66.6391 234.048C66.6391 233.937 66.6577 233.826 66.7688 233.826C66.8799 233.826 66.8521 233.974 66.8521 234.094C66.8614 236.16 55.1299 237.234 43.9262 237.234Z" fill="url(#paint41_linear)"/>
<path d="M41.7595 234.215C41.9817 234.058 42.2224 233.909 42.4817 233.752C42.7317 233.604 43.065 233.465 43.4632 233.344C43.8613 233.224 44.3706 233.122 44.9724 233.048C45.5743 232.974 46.3336 232.928 47.2317 232.928C48.1206 232.928 48.9447 232.956 49.7224 233.011C50.5002 233.076 51.1854 233.159 51.778 233.28C52.3706 233.4 52.8521 233.548 53.2224 233.724C53.5928 233.9 53.8058 234.104 53.8799 234.335L56.4632 234.363C56.6484 234.363 56.815 234.382 56.9539 234.41C57.1021 234.437 57.1669 234.474 57.1669 234.521V234.734L53.8521 234.706C53.7317 234.965 53.4354 235.206 52.9632 235.419C52.491 235.632 51.8799 235.827 51.1484 235.984L49.9354 235.817C49.8243 235.799 49.741 235.78 49.6669 235.752C49.5928 235.725 49.565 235.697 49.565 235.669C49.565 235.632 49.6576 235.586 49.8428 235.53C50.028 235.475 50.241 235.41 50.4724 235.336C50.7039 235.262 50.9354 235.169 51.1669 235.058C51.3891 234.956 51.5465 234.826 51.6206 234.678L43.7965 234.595C43.5928 234.743 43.3613 234.891 43.1021 235.039C42.8428 235.188 42.5095 235.317 42.0835 235.438C41.6576 235.558 41.1391 235.651 40.5095 235.725C39.8798 235.799 39.0928 235.836 38.1298 235.845C37.4076 235.845 36.7132 235.817 36.028 235.762C35.3428 235.706 34.7317 235.614 34.2039 235.502C33.6761 235.391 33.241 235.243 32.8984 235.076C32.5558 234.91 32.3706 234.715 32.3243 234.493L30.2039 234.474C30.0187 234.474 29.8521 234.456 29.7039 234.428C29.5558 234.4 29.4817 234.363 29.4817 234.317V234.104L32.3891 234.132C32.5187 233.909 32.778 233.715 33.1854 233.548C33.5835 233.382 34.0835 233.233 34.6576 233.104L35.6298 233.233C35.9261 233.27 36.0743 233.326 36.0743 233.382C36.0743 233.409 36.0187 233.446 35.8891 233.493C35.7687 233.539 35.6206 233.595 35.4539 233.65C35.2872 233.715 35.1298 233.789 34.9724 233.872C34.815 233.956 34.6947 234.048 34.6206 234.16L41.7595 234.215ZM34.5835 234.502C34.6391 234.641 34.7687 234.761 34.9724 234.863C35.1669 234.965 35.4169 235.049 35.7132 235.113C36.0095 235.178 36.3428 235.225 36.7039 235.252C37.0743 235.28 37.4632 235.299 37.8613 235.299C38.3335 235.299 38.741 235.28 39.0928 235.234C39.4447 235.197 39.7502 235.141 40.0095 235.076C40.2687 235.012 40.5095 234.937 40.7039 234.845C40.8984 234.761 41.0743 234.66 41.2317 234.558L34.5835 234.502ZM51.6391 234.317C51.5836 234.178 51.4354 234.048 51.2132 233.946C50.991 233.845 50.7039 233.752 50.3613 233.678C50.0187 233.604 49.6206 233.548 49.1576 233.52C48.7039 233.483 48.1947 233.465 47.6484 233.474C47.1576 233.474 46.7317 233.502 46.3798 233.539C46.028 233.576 45.7224 233.632 45.4632 233.706C45.2039 233.78 44.9817 233.854 44.8058 233.946C44.6206 234.039 44.4539 234.141 44.2965 234.243L51.6391 234.317Z" fill="#FCB048"/>
<path d="M43.9261 231.398C33.7039 231.398 23.065 232.297 21.3613 234.038C21.4261 234.103 21.491 234.168 21.5465 234.232C22.9817 233.019 31.7687 231.806 43.9261 231.806C56.3984 231.806 65.3243 233.084 66.4076 234.325C66.4632 234.26 66.5187 234.195 66.5835 234.131C65.1669 232.325 54.3243 231.398 43.9261 231.398Z" fill="url(#paint42_linear)"/>
<path d="M26.5002 228.721V233.805C26.5002 235.445 36.7595 236.778 49.4262 236.778C62.0836 236.778 72.3521 235.445 72.3521 233.805V228.721H26.5002Z" fill="url(#paint43_linear)"/>
<path d="M49.4174 231.694C62.079 231.694 72.3433 230.363 72.3433 228.721C72.3433 227.079 62.079 225.748 49.4174 225.748C36.7557 225.748 26.4915 227.079 26.4915 228.721C26.4915 230.363 36.7557 231.694 49.4174 231.694Z" fill="url(#paint44_linear)"/>
<path d="M49.4169 231.898C38.2039 231.898 26.4817 230.824 26.4817 228.758C26.4817 228.647 26.5187 228.443 26.6391 228.443C26.7502 228.443 26.7039 228.601 26.7039 228.712C26.7039 230.018 36.0372 231.481 49.4169 231.481C62.8058 231.481 72.1298 230.018 72.1298 228.712C72.1298 228.601 72.1483 228.49 72.2595 228.49C72.3706 228.49 72.3428 228.638 72.3428 228.758C72.352 230.833 60.6298 231.898 49.4169 231.898Z" fill="url(#paint45_linear)"/>
<path d="M47.2502 228.889C47.4724 228.731 47.7131 228.583 47.9724 228.426C48.2224 228.278 48.5557 228.139 48.9539 228.018C49.352 227.898 49.8613 227.796 50.4631 227.722C51.065 227.648 51.8243 227.602 52.7224 227.602C53.6113 227.602 54.4354 227.629 55.2131 227.685C55.9909 227.75 56.6761 227.833 57.2687 227.954C57.8613 228.074 58.3428 228.222 58.7131 228.398C59.0835 228.574 59.2965 228.778 59.3706 229.009L61.9539 229.037C62.1391 229.037 62.3057 229.056 62.4446 229.083C62.5928 229.111 62.6576 229.148 62.6576 229.195V229.408L59.3428 229.38C59.2224 229.639 58.9261 229.88 58.4539 230.093C57.9817 230.306 57.3706 230.5 56.6391 230.658L55.4261 230.491C55.315 230.473 55.2317 230.454 55.1576 230.426C55.0835 230.399 55.0557 230.371 55.0557 230.343C55.0557 230.306 55.1483 230.26 55.3335 230.204C55.5187 230.148 55.7317 230.084 55.9631 230.01C56.1946 229.935 56.4261 229.843 56.6576 229.732C56.8798 229.63 57.0372 229.5 57.1113 229.352L49.278 229.278C49.0743 229.426 48.8428 229.574 48.5835 229.722C48.3243 229.871 47.9909 230 47.565 230.121C47.1391 230.241 46.6205 230.334 45.9909 230.408C45.3613 230.482 44.5743 230.519 43.6113 230.528C42.8891 230.528 42.1946 230.5 41.5094 230.445C40.8242 230.389 40.2131 230.297 39.6854 230.186C39.1576 230.074 38.7224 229.926 38.3798 229.759C38.0372 229.593 37.852 229.398 37.8057 229.176L35.6854 229.157C35.5002 229.157 35.3335 229.139 35.1854 229.111C35.0372 229.083 34.9631 229.046 34.9631 229V228.787L37.8705 228.815C38.0002 228.593 38.2594 228.398 38.6668 228.231C39.065 228.065 39.565 227.916 40.1391 227.787L41.1113 227.916C41.4076 227.953 41.5557 228.009 41.5557 228.065C41.5557 228.092 41.5002 228.129 41.3705 228.176C41.2502 228.222 41.102 228.278 40.9354 228.333C40.7687 228.398 40.6113 228.472 40.4539 228.555C40.2965 228.639 40.1761 228.731 40.102 228.843L47.2502 228.889ZM40.0835 229.176C40.1391 229.315 40.2687 229.435 40.4724 229.537C40.6668 229.639 40.9168 229.722 41.2131 229.787C41.5094 229.852 41.8428 229.898 42.2039 229.926C42.5742 229.954 42.9631 229.973 43.3613 229.973C43.8335 229.973 44.2409 229.954 44.5928 229.908C44.9446 229.871 45.2502 229.815 45.5094 229.75C45.7687 229.685 46.0094 229.611 46.2039 229.519C46.3983 229.435 46.5743 229.333 46.7317 229.232L40.0835 229.176ZM57.1391 228.991C57.0835 228.852 56.9354 228.722 56.7131 228.62C56.4909 228.518 56.2039 228.426 55.8613 228.352C55.5187 228.278 55.1206 228.222 54.6576 228.194C54.2039 228.157 53.6946 228.139 53.1483 228.148C52.6576 228.148 52.2317 228.176 51.8798 228.213C51.528 228.25 51.2224 228.305 50.9631 228.38C50.7039 228.454 50.4817 228.528 50.3057 228.62C50.1205 228.713 49.9539 228.815 49.7965 228.917L57.1391 228.991Z" fill="#FCB048"/>
<path d="M49.4261 226.072C39.2039 226.072 28.565 226.971 26.8613 228.712C26.9261 228.777 26.991 228.841 27.0465 228.906C28.4817 227.693 37.2687 226.48 49.4261 226.48C61.8984 226.48 70.8243 227.758 71.9076 228.999C71.9632 228.934 72.0188 228.869 72.0836 228.804C70.6669 226.998 59.8243 226.072 49.4261 226.072Z" fill="url(#paint46_linear)"/>
<path d="M23.6392 223.377V228.462C23.6392 230.101 33.8984 231.434 46.5651 231.434C59.2225 231.434 69.491 230.101 69.491 228.462V223.377H23.6392Z" fill="url(#paint47_linear)"/>
<path d="M46.5563 226.35C59.218 226.35 69.4823 225.019 69.4823 223.377C69.4823 221.735 59.218 220.404 46.5563 220.404C33.8947 220.404 23.6304 221.735 23.6304 223.377C23.6304 225.019 33.8947 226.35 46.5563 226.35Z" fill="url(#paint48_linear)"/>
<path d="M46.5558 226.564C35.3428 226.564 23.6206 225.49 23.6206 223.424C23.6206 223.313 23.6576 223.109 23.778 223.109C23.8891 223.109 23.8428 223.267 23.8428 223.378C23.8428 224.684 33.1762 226.147 46.5558 226.147C59.9447 226.147 69.2688 224.684 69.2688 223.378C69.2688 223.267 69.2873 223.156 69.3984 223.156C69.5095 223.156 69.4817 223.304 69.4817 223.424C69.5002 225.49 57.7688 226.564 46.5558 226.564Z" fill="url(#paint49_linear)"/>
<path d="M44.3984 223.543C44.6206 223.386 44.8613 223.238 45.1206 223.08C45.3706 222.932 45.7039 222.793 46.1021 222.673C46.5002 222.552 47.0095 222.45 47.6113 222.376C48.2132 222.302 48.9724 222.256 49.8706 222.256C50.7595 222.256 51.5835 222.284 52.3613 222.339C53.1391 222.404 53.8243 222.487 54.4169 222.608C55.0095 222.728 55.4909 222.876 55.8613 223.052C56.2317 223.228 56.4447 223.432 56.5187 223.664L59.1021 223.691C59.2872 223.691 59.4539 223.71 59.5928 223.738C59.7409 223.765 59.8058 223.803 59.8058 223.849V224.062L56.4909 224.034C56.3706 224.293 56.0743 224.534 55.6021 224.747C55.1298 224.96 54.5187 225.155 53.7872 225.312L52.5743 225.145C52.4632 225.127 52.3798 225.108 52.3058 225.081C52.2317 225.053 52.2039 225.025 52.2039 224.997C52.2039 224.96 52.2965 224.914 52.4817 224.858C52.6669 224.803 52.8798 224.738 53.1113 224.664C53.3428 224.59 53.5743 224.497 53.8058 224.386C54.028 224.284 54.1854 224.154 54.2595 224.006L46.4261 223.932C46.2224 224.08 45.991 224.229 45.7317 224.377C45.4724 224.525 45.1391 224.655 44.7132 224.775C44.2872 224.895 43.7687 224.988 43.1391 225.062C42.5095 225.136 41.7224 225.173 40.7595 225.182C40.0373 225.182 39.3428 225.155 38.6576 225.099C37.9724 225.044 37.3613 224.951 36.8335 224.84C36.3058 224.729 35.8706 224.581 35.528 224.414C35.1854 224.247 35.0002 224.053 34.9539 223.83L32.8336 223.812C32.6484 223.812 32.4817 223.793 32.3336 223.765C32.1854 223.738 32.1113 223.701 32.1113 223.654V223.441L35.0187 223.469C35.1484 223.247 35.4076 223.052 35.815 222.886C36.2132 222.719 36.7132 222.571 37.2873 222.441L38.2595 222.571C38.5558 222.608 38.7039 222.663 38.7039 222.719C38.7039 222.747 38.6484 222.784 38.5187 222.83C38.3984 222.876 38.2502 222.932 38.0835 222.988C37.9169 223.052 37.7595 223.126 37.6021 223.21C37.4447 223.293 37.3243 223.386 37.2502 223.497L44.3984 223.543ZM37.2224 223.83C37.278 223.969 37.4076 224.09 37.6113 224.192C37.8058 224.293 38.0558 224.377 38.3521 224.442C38.6484 224.506 38.9817 224.553 39.3428 224.58C39.7132 224.608 40.1021 224.627 40.5002 224.627C40.9724 224.627 41.3798 224.608 41.7317 224.562C42.0835 224.525 42.3891 224.469 42.6484 224.405C42.9076 224.34 43.1484 224.266 43.3428 224.173C43.5373 224.09 43.7132 223.988 43.8706 223.886L37.2224 223.83ZM54.278 223.645C54.2224 223.506 54.0743 223.377 53.8521 223.275C53.6298 223.173 53.3428 223.08 53.0002 223.006C52.6576 222.932 52.2595 222.876 51.7965 222.849C51.3428 222.812 50.8335 222.793 50.2872 222.802C49.7965 222.802 49.3706 222.83 49.0187 222.867C48.6669 222.904 48.3613 222.96 48.1021 223.034C47.8428 223.108 47.6206 223.182 47.4447 223.275C47.2595 223.367 47.0928 223.469 46.9354 223.571L54.278 223.645Z" fill="#FCB048"/>
<path d="M46.565 220.729C36.3428 220.729 25.7039 221.627 24.0002 223.368C24.0651 223.433 24.1299 223.498 24.1854 223.563C25.6206 222.349 34.4076 221.136 46.565 221.136C59.0373 221.136 67.9632 222.414 69.0465 223.655C69.1021 223.59 69.1576 223.526 69.2224 223.461C67.8058 221.664 56.9632 220.729 46.565 220.729Z" fill="url(#paint50_linear)"/>
<path d="M76.0004 226.961L71.8615 229.906C70.5189 230.86 75.3893 239.992 82.7226 250.318C90.0559 260.636 97.093 268.23 98.4356 267.276L102.574 264.331L76.0004 226.961Z" fill="url(#paint51_linear)"/>
<path d="M102.575 264.332C101.232 265.286 94.2041 257.691 86.8615 247.374C79.5282 237.057 74.6578 227.916 76.0004 226.962C77.343 226.008 84.3708 233.602 91.7134 243.92C99.0467 254.246 103.917 263.378 102.575 264.332Z" fill="url(#paint52_linear)"/>
<path d="M86.6948 247.496C80.1948 238.355 74.2688 228.176 75.954 226.982C76.0466 226.917 76.2318 226.833 76.2966 226.926C76.3614 227.019 76.204 227.065 76.1114 227.139C75.0466 227.898 79.2596 236.345 87.0189 247.264C94.7781 258.174 101.38 264.935 102.445 264.176C102.537 264.111 102.639 264.065 102.704 264.157C102.769 264.25 102.63 264.315 102.537 264.379C100.861 265.565 93.1948 256.628 86.6948 247.496Z" fill="url(#paint53_linear)"/>
<path d="M87.8985 243.975C88.1578 244.068 88.4171 244.179 88.6948 244.299C88.9634 244.419 89.2689 244.605 89.6023 244.864C89.9356 245.123 90.306 245.475 90.7226 245.92C91.1393 246.364 91.6115 246.957 92.13 247.698C92.6486 248.42 93.1023 249.115 93.5097 249.782C93.9078 250.449 94.2319 251.06 94.4819 251.616C94.7226 252.162 94.88 252.644 94.9541 253.051C95.0189 253.459 94.9819 253.755 94.843 253.94L96.3152 256.061C96.4263 256.219 96.5097 256.358 96.5652 256.487C96.6208 256.626 96.6393 256.7 96.6023 256.728L96.4263 256.848L94.5282 254.126C94.2504 254.181 93.88 254.079 93.4263 253.811C92.9726 253.551 92.4726 253.162 91.9171 252.653L91.3523 251.569C91.306 251.467 91.2689 251.384 91.2504 251.319C91.2319 251.245 91.2319 251.208 91.2597 251.19C91.2967 251.162 91.3893 251.217 91.5374 251.338C91.6856 251.458 91.8615 251.597 92.0652 251.736C92.2597 251.884 92.4726 252.014 92.6856 252.144C92.8986 252.264 93.093 252.32 93.2597 252.292L88.7874 245.864C88.5467 245.781 88.2874 245.679 88.0189 245.559C87.7504 245.438 87.4448 245.234 87.1115 244.957C86.7689 244.679 86.3893 244.308 85.9634 243.836C85.5374 243.364 85.0467 242.743 84.4911 241.965C84.0745 241.382 83.6856 240.798 83.343 240.206C82.9911 239.613 82.7134 239.066 82.5004 238.566C82.2874 238.066 82.1485 237.631 82.093 237.251C82.0374 236.871 82.0837 236.603 82.2411 236.445L81.0282 234.704C80.917 234.547 80.8337 234.408 80.7689 234.269C80.7041 234.13 80.6948 234.047 80.7319 234.019L80.9078 233.898L82.5652 236.279C82.8245 236.251 83.13 236.353 83.5004 236.584C83.8708 236.816 84.2782 237.131 84.7134 237.529L85.1671 238.4C85.3059 238.668 85.3522 238.816 85.3059 238.844C85.2782 238.863 85.2134 238.835 85.1115 238.761C85.0004 238.687 84.88 238.603 84.7319 238.501C84.5837 238.4 84.4356 238.316 84.2689 238.233C84.1115 238.149 83.9634 238.112 83.8337 238.112L87.8985 243.975ZM83.5097 238.307C83.4263 238.437 83.4078 238.613 83.4356 238.835C83.4634 239.057 83.5467 239.298 83.6578 239.585C83.7782 239.863 83.9263 240.159 84.1208 240.474C84.3059 240.789 84.5189 241.113 84.7597 241.447C85.0374 241.826 85.2874 242.15 85.5189 242.419C85.7504 242.678 85.9726 242.901 86.1763 243.077C86.38 243.253 86.5837 243.401 86.7597 243.512C86.9448 243.623 87.1208 243.706 87.2967 243.78L83.5097 238.307ZM93.5467 252.088C93.63 251.958 93.6486 251.773 93.6023 251.532C93.556 251.291 93.4726 251.004 93.3245 250.69C93.1856 250.365 92.9911 250.013 92.7597 249.615C92.5282 249.226 92.2411 248.8 91.9263 248.356C91.6393 247.957 91.38 247.624 91.1393 247.365C90.8985 247.105 90.6763 246.883 90.4726 246.707C90.2689 246.54 90.0745 246.401 89.8893 246.309C89.7041 246.216 89.5282 246.133 89.3523 246.068L93.5467 252.088Z" fill="#FCB048"/>
<path d="M91.454 244.115C85.5281 235.789 78.63 227.63 76.2226 227.25C76.2133 227.343 76.1948 227.426 76.167 227.519C77.9818 227.991 84.0651 234.446 91.1114 244.356C98.3429 254.516 102.473 262.536 102.084 264.138C102.167 264.138 102.26 264.148 102.343 264.166C103.01 261.971 97.4818 252.589 91.454 244.115Z" fill="url(#paint54_linear)"/>
<path d="M210.037 254.145L207.963 254.312C207.426 254.358 206.889 254.331 206.352 254.247L198.121 252.904L197.982 252.886L188.426 251.321H188.371L180.88 250.107V207.949H188.417H188.435L197.991 208.422L198.13 208.496L209.695 208.94L210.037 254.145Z" fill="url(#paint55_linear)"/>
<path d="M239.13 210.624V249.976C239.13 251.383 238.047 252.532 236.648 252.615L209.213 254.245C208.102 254.31 207.158 253.393 207.158 252.245V211.253C207.158 210.105 208.056 209.16 209.167 209.123L236.806 208.354C238.084 208.317 239.13 209.336 239.13 210.624Z" fill="url(#paint56_linear)"/>
<path d="M180.945 207.937L207.158 209.179L236.806 208.354L206.408 207.363L180.945 207.937Z" fill="url(#paint57_linear)"/>
<path opacity="0.3" d="M236.76 208.354L215.121 208.956C213.889 208.994 212.88 210.031 212.889 211.29C212.889 213.393 213.241 215.56 214.167 217.653C217.25 224.636 224.139 224.895 225.565 231.295C226.76 236.63 222.528 238.927 222.084 245.752C221.963 247.549 222.121 249.475 222.658 251.541C222.936 252.624 223.954 253.365 225.056 253.3L236.973 252.587C238.195 252.513 239.139 251.513 239.139 250.281V210.651C239.13 209.355 238.065 208.317 236.76 208.354Z" fill="url(#paint58_linear)"/>
<path d="M216.769 253.801L226.945 253.19V208.633L216.769 208.911V253.801Z" fill="url(#paint59_linear)"/>
<path d="M217.232 253.773L226.945 253.19V208.633L217.232 208.901V253.773Z" fill="url(#paint60_linear)"/>
<path d="M197.852 208.549V252.903L188.537 251.319V208.29L191.509 208.234L197.852 208.549Z" fill="url(#paint61_linear)"/>
<path d="M198.815 207.541L227.167 209.153H216.973L192.186 207.689L198.815 207.541Z" fill="url(#paint62_linear)"/>
<path d="M212.611 206.178C213.269 202.131 213.75 199.176 216.398 196.444C217.509 195.296 218.732 194.036 220.722 193.703C223.019 193.323 225.945 194.221 226.75 196.102C227.509 197.88 225.713 199.037 226.482 201.084C227.25 203.14 229.482 203.094 229.722 204.752C229.926 206.16 228.556 207.753 227.176 208.503C224.787 209.79 223.426 207.975 218.759 208.271C215.537 208.475 213.685 209.494 212.815 208.466C212.389 207.966 212.426 207.28 212.611 206.178Z" fill="url(#paint63_linear)"/>
<g opacity="0.3">
<path opacity="0.3" d="M225.398 204.595C222.519 203.493 221.037 201.094 219.759 201.659C218.62 202.159 219.315 204.271 217.982 205.984C216.759 207.549 214.528 207.92 212.546 207.92C212.593 208.124 212.676 208.3 212.806 208.448C213.676 209.476 215.537 208.457 218.75 208.253C223.417 207.957 224.778 209.772 227.167 208.485C228.435 207.799 229.695 206.401 229.732 205.086C228.389 205.243 226.889 205.16 225.398 204.595Z" fill="url(#paint64_linear)"/>
</g>
<path d="M195.195 196.167C197.13 194.639 199.176 196.343 201.565 194.658C203.982 192.953 203.278 190.221 205.158 189.443C207.334 188.545 210.565 191.296 212.111 193.037C216.037 197.464 217.88 205.336 214.778 208.105C213.611 209.143 210.315 208.717 203.778 207.818C196.297 206.79 195.222 206.059 194.509 205.095C192.565 202.502 193 197.899 195.195 196.167Z" fill="url(#paint65_linear)"/>
<g opacity="0.3">
<path opacity="0.3" d="M207.472 199.493C206.398 199.15 205.907 200.391 203.685 200.882C203.278 200.975 199.37 201.79 197.278 199.336C196.444 198.363 196.056 197.057 196.102 195.668C195.796 195.77 195.491 195.937 195.194 196.168C193 197.9 192.574 202.494 194.5 205.087C195.213 206.05 196.296 206.782 203.768 207.81C210.315 208.708 213.611 209.134 214.768 208.097C214.926 207.958 215.065 207.801 215.194 207.634C213.62 207.578 211.981 207.199 210.787 206.05C208.5 203.827 209.305 200.067 207.472 199.493Z" fill="url(#paint66_linear)"/>
</g>
<path d="M207.936 208.374L197.991 208.744L188.417 208.29L191.519 208.235L205.065 207.994L207.936 208.374Z" fill="url(#paint67_linear)"/>
</g>
<defs>
<linearGradient id="paint0_linear" x1="177.685" y1="50.0582" x2="225.928" y2="203.519" gradientUnits="userSpaceOnUse">
<stop stop-color="#FF9085"/>
<stop offset="1" stop-color="#FB6FBB"/>
</linearGradient>
<linearGradient id="paint1_linear" x1="264.824" y1="71.8926" x2="328.351" y2="-43.1591" gradientUnits="userSpaceOnUse">
<stop offset="0.00359712" stop-color="#E38DDD"/>
<stop offset="1" stop-color="#9571F6"/>
</linearGradient>
<linearGradient id="paint2_linear" x1="261.974" y1="146.544" x2="154.722" y2="247.794" gradientUnits="userSpaceOnUse">
<stop stop-color="#AA80F9"/>
<stop offset="0.9964" stop-color="#6165D7"/>
</linearGradient>
<linearGradient id="paint3_linear" x1="444.536" y1="1028.51" x2="554.702" y2="1267.7" gradientUnits="userSpaceOnUse">
<stop offset="0.00359712" stop-color="#E38DDD"/>
<stop offset="1" stop-color="#9571F6"/>
</linearGradient>
<linearGradient id="paint4_linear" x1="15.6227" y1="174.294" x2="122.875" y2="275.544" gradientUnits="userSpaceOnUse">
<stop stop-color="#FF9085"/>
<stop offset="1" stop-color="#FB6FBB"/>
</linearGradient>
<linearGradient id="paint5_linear" x1="44.01" y1="55.4687" x2="112.049" y2="52.5112" gradientUnits="userSpaceOnUse">
<stop stop-color="#AB316D"/>
<stop offset="1" stop-color="#792D3D"/>
</linearGradient>
<linearGradient id="paint6_linear" x1="36.8979" y1="166.296" x2="100.533" y2="166.296" gradientUnits="userSpaceOnUse">
<stop stop-color="#FFC444"/>
<stop offset="0.9964" stop-color="#F36F56"/>
</linearGradient>
<linearGradient id="paint7_linear" x1="54.0777" y1="166.296" x2="100.533" y2="166.296" gradientUnits="userSpaceOnUse">
<stop stop-color="#FFC444"/>
<stop offset="0.9964" stop-color="#F36F56"/>
</linearGradient>
<linearGradient id="paint8_linear" x1="132.05" y1="155.534" x2="243.216" y2="342.786" gradientUnits="userSpaceOnUse">
<stop stop-color="#FFC444"/>
<stop offset="0.9964" stop-color="#F36F56"/>
</linearGradient>
<linearGradient id="paint9_linear" x1="131.727" y1="138.913" x2="221.726" y2="350.224" gradientUnits="userSpaceOnUse">
<stop stop-color="#FFC444"/>
<stop offset="0.9964" stop-color="#F36F56"/>
</linearGradient>
<linearGradient id="paint10_linear" x1="148.323" y1="-6.21088" x2="118.728" y2="246.342" gradientUnits="userSpaceOnUse">
<stop stop-color="#AB316D"/>
<stop offset="1" stop-color="#792D3D"/>
</linearGradient>
<linearGradient id="paint11_linear" x1="163.893" y1="-16.0957" x2="78.2735" y2="146.752" gradientUnits="userSpaceOnUse">
<stop stop-color="#AB316D"/>
<stop offset="1" stop-color="#792D3D"/>
</linearGradient>
<linearGradient id="paint12_linear" x1="217.823" y1="14.4117" x2="132.202" y2="177.258" gradientUnits="userSpaceOnUse">
<stop stop-color="#AB316D"/>
<stop offset="1" stop-color="#792D3D"/>
</linearGradient>
<linearGradient id="paint13_linear" x1="8.60015" y1="208.835" x2="28.107" y2="211.969" gradientUnits="userSpaceOnUse">
<stop stop-color="#AA80F9"/>
<stop offset="0.9964" stop-color="#6165D7"/>
</linearGradient>
<linearGradient id="paint14_linear" x1="81.587" y1="208.34" x2="162.423" y2="304.832" gradientUnits="userSpaceOnUse">
<stop stop-color="#AA80F9"/>
<stop offset="0.9964" stop-color="#6165D7"/>
</linearGradient>
<linearGradient id="paint15_linear" x1="61.0157" y1="235.239" x2="166.913" y2="268.673" gradientUnits="userSpaceOnUse">
<stop stop-color="#444B8C"/>
<stop offset="0.9964" stop-color="#26264F"/>
</linearGradient>
<linearGradient id="paint16_linear" x1="42.2169" y1="211.221" x2="95.851" y2="212.031" gradientUnits="userSpaceOnUse">
<stop stop-color="#FF9085"/>
<stop offset="1" stop-color="#FB6FBB"/>
</linearGradient>
<linearGradient id="paint17_linear" x1="78.7834" y1="161.447" x2="159.619" y2="257.938" gradientUnits="userSpaceOnUse">
<stop stop-color="#AA80F9"/>
<stop offset="0.9964" stop-color="#6165D7"/>
</linearGradient>
<linearGradient id="paint18_linear" x1="102.784" y1="237.374" x2="155.47" y2="237.374" gradientUnits="userSpaceOnUse">
<stop stop-color="#AA80F9"/>
<stop offset="0.9964" stop-color="#6165D7"/>
</linearGradient>
<linearGradient id="paint19_linear" x1="23.4526" y1="265.192" x2="76.1936" y2="265.192" gradientUnits="userSpaceOnUse">
<stop stop-color="#FCB148"/>
<stop offset="0.0520724" stop-color="#FDBA46"/>
<stop offset="0.1424" stop-color="#FFC244"/>
<stop offset="0.3183" stop-color="#FFC444"/>
<stop offset="0.4849" stop-color="#FDB946"/>
<stop offset="0.7754" stop-color="#F99C4D"/>
<stop offset="0.8658" stop-color="#F8924F"/>
<stop offset="1" stop-color="#F8924F"/>
</linearGradient>
<linearGradient id="paint20_linear" x1="50.0655" y1="259.25" x2="52.8472" y2="282.531" gradientUnits="userSpaceOnUse">
<stop stop-color="#FFDB44"/>
<stop offset="1" stop-color="#FEEF06"/>
</linearGradient>
<linearGradient id="paint21_linear" x1="49.9446" y1="258.211" x2="50.7989" y2="265.362" gradientUnits="userSpaceOnUse">
<stop stop-color="#FFDB44"/>
<stop offset="1" stop-color="#FEEF06"/>
</linearGradient>
<linearGradient id="paint22_linear" x1="50.7473" y1="264.612" x2="49.896" y2="257.487" gradientUnits="userSpaceOnUse">
<stop offset="0.00359712" stop-color="#F36F56"/>
<stop offset="0.3059" stop-color="#F99C4C"/>
<stop offset="0.545" stop-color="#FDB946"/>
<stop offset="0.6817" stop-color="#FFC444"/>
<stop offset="0.8038" stop-color="#FFC244"/>
<stop offset="0.8667" stop-color="#FEBA46"/>
<stop offset="0.916" stop-color="#FCAD49"/>
<stop offset="0.958" stop-color="#F99A4D"/>
<stop offset="0.9955" stop-color="#F58152"/>
<stop offset="1" stop-color="#F57E53"/>
</linearGradient>
<linearGradient id="paint23_linear" x1="17.0805" y1="259.848" x2="69.8213" y2="259.848" gradientUnits="userSpaceOnUse">
<stop stop-color="#FCB148"/>
<stop offset="0.0520724" stop-color="#FDBA46"/>
<stop offset="0.1424" stop-color="#FFC244"/>
<stop offset="0.3183" stop-color="#FFC444"/>
<stop offset="0.4849" stop-color="#FDB946"/>
<stop offset="0.7754" stop-color="#F99C4D"/>
<stop offset="0.8658" stop-color="#F8924F"/>
<stop offset="1" stop-color="#F8924F"/>
</linearGradient>
<linearGradient id="paint24_linear" x1="43.6933" y1="253.906" x2="46.475" y2="277.188" gradientUnits="userSpaceOnUse">
<stop stop-color="#FFDB44"/>
<stop offset="1" stop-color="#FEEF06"/>
</linearGradient>
<linearGradient id="paint25_linear" x1="43.5724" y1="252.868" x2="44.4267" y2="260.018" gradientUnits="userSpaceOnUse">
<stop stop-color="#FFDB44"/>
<stop offset="1" stop-color="#FEEF06"/>
</linearGradient>
<linearGradient id="paint26_linear" x1="44.3751" y1="259.268" x2="43.5237" y2="252.143" gradientUnits="userSpaceOnUse">
<stop offset="0.00359712" stop-color="#F36F56"/>
<stop offset="0.3059" stop-color="#F99C4C"/>
<stop offset="0.545" stop-color="#FDB946"/>
<stop offset="0.6817" stop-color="#FFC444"/>
<stop offset="0.8038" stop-color="#FFC244"/>
<stop offset="0.8667" stop-color="#FEBA46"/>
<stop offset="0.916" stop-color="#FCAD49"/>
<stop offset="0.958" stop-color="#F99A4D"/>
<stop offset="0.9955" stop-color="#F58152"/>
<stop offset="1" stop-color="#F57E53"/>
</linearGradient>
<linearGradient id="paint27_linear" x1="22.5788" y1="254.523" x2="75.3197" y2="254.523" gradientUnits="userSpaceOnUse">
<stop stop-color="#FCB148"/>
<stop offset="0.0520724" stop-color="#FDBA46"/>
<stop offset="0.1424" stop-color="#FFC244"/>
<stop offset="0.3183" stop-color="#FFC444"/>
<stop offset="0.4849" stop-color="#FDB946"/>
<stop offset="0.7754" stop-color="#F99C4D"/>
<stop offset="0.8658" stop-color="#F8924F"/>
<stop offset="1" stop-color="#F8924F"/>
</linearGradient>
<linearGradient id="paint28_linear" x1="49.1921" y1="248.581" x2="51.9738" y2="271.863" gradientUnits="userSpaceOnUse">
<stop stop-color="#FFDB44"/>
<stop offset="1" stop-color="#FEEF06"/>
</linearGradient>
<linearGradient id="paint29_linear" x1="49.0707" y1="247.543" x2="49.925" y2="254.693" gradientUnits="userSpaceOnUse">
<stop stop-color="#FFDB44"/>
<stop offset="1" stop-color="#FEEF06"/>
</linearGradient>
<linearGradient id="paint30_linear" x1="49.8734" y1="253.943" x2="49.0221" y2="246.818" gradientUnits="userSpaceOnUse">
<stop offset="0.00359712" stop-color="#F36F56"/>
<stop offset="0.3059" stop-color="#F99C4C"/>
<stop offset="0.545" stop-color="#FDB946"/>
<stop offset="0.6817" stop-color="#FFC444"/>
<stop offset="0.8038" stop-color="#FFC244"/>
<stop offset="0.8667" stop-color="#FEBA46"/>
<stop offset="0.916" stop-color="#FCAD49"/>
<stop offset="0.958" stop-color="#F99A4D"/>
<stop offset="0.9955" stop-color="#F58152"/>
<stop offset="1" stop-color="#F57E53"/>
</linearGradient>
<linearGradient id="paint31_linear" x1="25.9155" y1="249.182" x2="78.6564" y2="249.182" gradientUnits="userSpaceOnUse">
<stop stop-color="#FCB148"/>
<stop offset="0.0520724" stop-color="#FDBA46"/>
<stop offset="0.1424" stop-color="#FFC244"/>
<stop offset="0.3183" stop-color="#FFC444"/>
<stop offset="0.4849" stop-color="#FDB946"/>
<stop offset="0.7754" stop-color="#F99C4D"/>
<stop offset="0.8658" stop-color="#F8924F"/>
<stop offset="1" stop-color="#F8924F"/>
</linearGradient>
<linearGradient id="paint32_linear" x1="52.5288" y1="243.24" x2="55.3106" y2="266.522" gradientUnits="userSpaceOnUse">
<stop stop-color="#FFDB44"/>
<stop offset="1" stop-color="#FEEF06"/>
</linearGradient>
<linearGradient id="paint33_linear" x1="52.4074" y1="242.2" x2="53.2617" y2="249.35" gradientUnits="userSpaceOnUse">
<stop stop-color="#FFDB44"/>
<stop offset="1" stop-color="#FEEF06"/>
</linearGradient>
<linearGradient id="paint34_linear" x1="53.2101" y1="248.602" x2="52.3588" y2="241.477" gradientUnits="userSpaceOnUse">
<stop offset="0.00359712" stop-color="#F36F56"/>
<stop offset="0.3059" stop-color="#F99C4C"/>
<stop offset="0.545" stop-color="#FDB946"/>
<stop offset="0.6817" stop-color="#FFC444"/>
<stop offset="0.8038" stop-color="#FFC244"/>
<stop offset="0.8667" stop-color="#FEBA46"/>
<stop offset="0.916" stop-color="#FCAD49"/>
<stop offset="0.958" stop-color="#F99A4D"/>
<stop offset="0.9955" stop-color="#F58152"/>
<stop offset="1" stop-color="#F57E53"/>
</linearGradient>
<linearGradient id="paint35_linear" x1="23.4526" y1="243.42" x2="76.1936" y2="243.42" gradientUnits="userSpaceOnUse">
<stop stop-color="#FCB148"/>
<stop offset="0.0520724" stop-color="#FDBA46"/>
<stop offset="0.1424" stop-color="#FFC244"/>
<stop offset="0.3183" stop-color="#FFC444"/>
<stop offset="0.4849" stop-color="#FDB946"/>
<stop offset="0.7754" stop-color="#F99C4D"/>
<stop offset="0.8658" stop-color="#F8924F"/>
<stop offset="1" stop-color="#F8924F"/>
</linearGradient>
<linearGradient id="paint36_linear" x1="50.0655" y1="237.478" x2="52.8472" y2="260.759" gradientUnits="userSpaceOnUse">
<stop stop-color="#FFDB44"/>
<stop offset="1" stop-color="#FEEF06"/>
</linearGradient>
<linearGradient id="paint37_linear" x1="49.9446" y1="236.439" x2="50.7989" y2="243.59" gradientUnits="userSpaceOnUse">
<stop stop-color="#FFDB44"/>
<stop offset="1" stop-color="#FEEF06"/>
</linearGradient>
<linearGradient id="paint38_linear" x1="50.7473" y1="242.84" x2="49.896" y2="235.715" gradientUnits="userSpaceOnUse">
<stop offset="0.00359712" stop-color="#F36F56"/>
<stop offset="0.3059" stop-color="#F99C4C"/>
<stop offset="0.545" stop-color="#FDB946"/>
<stop offset="0.6817" stop-color="#FFC444"/>
<stop offset="0.8038" stop-color="#FFC244"/>
<stop offset="0.8667" stop-color="#FEBA46"/>
<stop offset="0.916" stop-color="#FCAD49"/>
<stop offset="0.958" stop-color="#F99A4D"/>
<stop offset="0.9955" stop-color="#F58152"/>
<stop offset="1" stop-color="#F57E53"/>
</linearGradient>
<linearGradient id="paint39_linear" x1="17.0805" y1="238.078" x2="69.8213" y2="238.078" gradientUnits="userSpaceOnUse">
<stop stop-color="#FCB148"/>
<stop offset="0.0520724" stop-color="#FDBA46"/>
<stop offset="0.1424" stop-color="#FFC244"/>
<stop offset="0.3183" stop-color="#FFC444"/>
<stop offset="0.4849" stop-color="#FDB946"/>
<stop offset="0.7754" stop-color="#F99C4D"/>
<stop offset="0.8658" stop-color="#F8924F"/>
<stop offset="1" stop-color="#F8924F"/>
</linearGradient>
<linearGradient id="paint40_linear" x1="43.6938" y1="232.136" x2="46.4755" y2="255.418" gradientUnits="userSpaceOnUse">
<stop stop-color="#FFDB44"/>
<stop offset="1" stop-color="#FEEF06"/>
</linearGradient>
<linearGradient id="paint41_linear" x1="43.5724" y1="231.098" x2="44.4267" y2="238.249" gradientUnits="userSpaceOnUse">
<stop stop-color="#FFDB44"/>
<stop offset="1" stop-color="#FEEF06"/>
</linearGradient>
<linearGradient id="paint42_linear" x1="44.3751" y1="237.499" x2="43.5237" y2="230.374" gradientUnits="userSpaceOnUse">
<stop offset="0.00359712" stop-color="#F36F56"/>
<stop offset="0.3059" stop-color="#F99C4C"/>
<stop offset="0.545" stop-color="#FDB946"/>
<stop offset="0.6817" stop-color="#FFC444"/>
<stop offset="0.8038" stop-color="#FFC244"/>
<stop offset="0.8667" stop-color="#FEBA46"/>
<stop offset="0.916" stop-color="#FCAD49"/>
<stop offset="0.958" stop-color="#F99A4D"/>
<stop offset="0.9955" stop-color="#F58152"/>
<stop offset="1" stop-color="#F57E53"/>
</linearGradient>
<linearGradient id="paint43_linear" x1="22.5788" y1="232.751" x2="75.3197" y2="232.751" gradientUnits="userSpaceOnUse">
<stop stop-color="#FCB148"/>
<stop offset="0.0520724" stop-color="#FDBA46"/>
<stop offset="0.1424" stop-color="#FFC244"/>
<stop offset="0.3183" stop-color="#FFC444"/>
<stop offset="0.4849" stop-color="#FDB946"/>
<stop offset="0.7754" stop-color="#F99C4D"/>
<stop offset="0.8658" stop-color="#F8924F"/>
<stop offset="1" stop-color="#F8924F"/>
</linearGradient>
<linearGradient id="paint44_linear" x1="49.1921" y1="226.809" x2="51.9738" y2="250.091" gradientUnits="userSpaceOnUse">
<stop stop-color="#FFDB44"/>
<stop offset="1" stop-color="#FEEF06"/>
</linearGradient>
<linearGradient id="paint45_linear" x1="49.0707" y1="225.771" x2="49.925" y2="232.921" gradientUnits="userSpaceOnUse">
<stop stop-color="#FFDB44"/>
<stop offset="1" stop-color="#FEEF06"/>
</linearGradient>
<linearGradient id="paint46_linear" x1="49.8734" y1="232.172" x2="49.0221" y2="225.047" gradientUnits="userSpaceOnUse">
<stop offset="0.00359712" stop-color="#F36F56"/>
<stop offset="0.3059" stop-color="#F99C4C"/>
<stop offset="0.545" stop-color="#FDB946"/>
<stop offset="0.6817" stop-color="#FFC444"/>
<stop offset="0.8038" stop-color="#FFC244"/>
<stop offset="0.8667" stop-color="#FEBA46"/>
<stop offset="0.916" stop-color="#FCAD49"/>
<stop offset="0.958" stop-color="#F99A4D"/>
<stop offset="0.9955" stop-color="#F58152"/>
<stop offset="1" stop-color="#F57E53"/>
</linearGradient>
<linearGradient id="paint47_linear" x1="19.7189" y1="227.41" x2="72.4598" y2="227.41" gradientUnits="userSpaceOnUse">
<stop stop-color="#FCB148"/>
<stop offset="0.0520724" stop-color="#FDBA46"/>
<stop offset="0.1424" stop-color="#FFC244"/>
<stop offset="0.3183" stop-color="#FFC444"/>
<stop offset="0.4849" stop-color="#FDB946"/>
<stop offset="0.7754" stop-color="#F99C4D"/>
<stop offset="0.8658" stop-color="#F8924F"/>
<stop offset="1" stop-color="#F8924F"/>
</linearGradient>
<linearGradient id="paint48_linear" x1="46.3322" y1="221.468" x2="49.114" y2="244.75" gradientUnits="userSpaceOnUse">
<stop stop-color="#FFDB44"/>
<stop offset="1" stop-color="#FEEF06"/>
</linearGradient>
<linearGradient id="paint49_linear" x1="46.2108" y1="220.43" x2="47.0651" y2="227.58" gradientUnits="userSpaceOnUse">
<stop stop-color="#FFDB44"/>
<stop offset="1" stop-color="#FEEF06"/>
</linearGradient>
<linearGradient id="paint50_linear" x1="47.0135" y1="226.83" x2="46.1622" y2="219.705" gradientUnits="userSpaceOnUse">
<stop offset="0.00359712" stop-color="#F36F56"/>
<stop offset="0.3059" stop-color="#F99C4C"/>
<stop offset="0.545" stop-color="#FDB946"/>
<stop offset="0.6817" stop-color="#FFC444"/>
<stop offset="0.8038" stop-color="#FFC244"/>
<stop offset="0.8667" stop-color="#FEBA46"/>
<stop offset="0.916" stop-color="#FCAD49"/>
<stop offset="0.958" stop-color="#F99A4D"/>
<stop offset="0.9955" stop-color="#F58152"/>
<stop offset="1" stop-color="#F57E53"/>
</linearGradient>
<linearGradient id="paint51_linear" x1="70.4482" y1="226.105" x2="101.027" y2="269.087" gradientUnits="userSpaceOnUse">
<stop stop-color="#FCB148"/>
<stop offset="0.0520724" stop-color="#FDBA46"/>
<stop offset="0.1424" stop-color="#FFC244"/>
<stop offset="0.3183" stop-color="#FFC444"/>
<stop offset="0.4849" stop-color="#FDB946"/>
<stop offset="0.7754" stop-color="#F99C4D"/>
<stop offset="0.8658" stop-color="#F8924F"/>
<stop offset="1" stop-color="#F8924F"/>
</linearGradient>
<linearGradient id="paint52_linear" x1="90.714" y1="244.354" x2="73.3559" y2="260.109" gradientUnits="userSpaceOnUse">
<stop stop-color="#FFDB44"/>
<stop offset="1" stop-color="#FEEF06"/>
</linearGradient>
<linearGradient id="paint53_linear" x1="91.4893" y1="243.656" x2="86.1587" y2="248.494" gradientUnits="userSpaceOnUse">
<stop stop-color="#FFDB44"/>
<stop offset="1" stop-color="#FEEF06"/>
</linearGradient>
<linearGradient id="paint54_linear" x1="86.7411" y1="248.018" x2="92.0528" y2="243.197" gradientUnits="userSpaceOnUse">
<stop offset="0.00359712" stop-color="#F36F56"/>
<stop offset="0.3059" stop-color="#F99C4C"/>
<stop offset="0.545" stop-color="#FDB946"/>
<stop offset="0.6817" stop-color="#FFC444"/>
<stop offset="0.8038" stop-color="#FFC244"/>
<stop offset="0.8667" stop-color="#FEBA46"/>
<stop offset="0.916" stop-color="#FCAD49"/>
<stop offset="0.958" stop-color="#F99A4D"/>
<stop offset="0.9955" stop-color="#F58152"/>
<stop offset="1" stop-color="#F57E53"/>
</linearGradient>
<linearGradient id="paint55_linear" x1="170.067" y1="191.385" x2="191.015" y2="223.038" gradientUnits="userSpaceOnUse">
<stop stop-color="#AA80F9"/>
<stop offset="0.9964" stop-color="#6165D7"/>
</linearGradient>
<linearGradient id="paint56_linear" x1="235.245" y1="210.237" x2="204.59" y2="261.998" gradientUnits="userSpaceOnUse">
<stop stop-color="#AA80F9"/>
<stop offset="0.9964" stop-color="#6165D7"/>
</linearGradient>
<linearGradient id="paint57_linear" x1="212.905" y1="193.93" x2="208.048" y2="211.041" gradientUnits="userSpaceOnUse">
<stop offset="0.00359712" stop-color="#E38DDD"/>
<stop offset="1" stop-color="#9571F6"/>
</linearGradient>
<linearGradient id="paint58_linear" x1="237.393" y1="211.555" x2="206.463" y2="263.78" gradientUnits="userSpaceOnUse">
<stop offset="0.00359712" stop-color="#E38DDD"/>
<stop offset="1" stop-color="#9571F6"/>
</linearGradient>
<linearGradient id="paint59_linear" x1="218.018" y1="211.862" x2="230.466" y2="274.559" gradientUnits="userSpaceOnUse">
<stop stop-color="#AB316D"/>
<stop offset="1" stop-color="#792D3D"/>
</linearGradient>
<linearGradient id="paint60_linear" x1="219.904" y1="231.37" x2="241.944" y2="228.112" gradientUnits="userSpaceOnUse">
<stop stop-color="#AB316D"/>
<stop offset="1" stop-color="#792D3D"/>
</linearGradient>
<linearGradient id="paint61_linear" x1="191.23" y1="230.887" x2="212.266" y2="227.777" gradientUnits="userSpaceOnUse">
<stop stop-color="#AB316D"/>
<stop offset="1" stop-color="#792D3D"/>
</linearGradient>
<linearGradient id="paint62_linear" x1="205.091" y1="209.096" x2="251.852" y2="202.183" gradientUnits="userSpaceOnUse">
<stop stop-color="#AB316D"/>
<stop offset="1" stop-color="#792D3D"/>
</linearGradient>
<linearGradient id="paint63_linear" x1="228.793" y1="195.367" x2="217.204" y2="207.416" gradientUnits="userSpaceOnUse">
<stop stop-color="#AB316D"/>
<stop offset="1" stop-color="#792D3D"/>
</linearGradient>
<linearGradient id="paint64_linear" x1="230.659" y1="197.162" x2="219.07" y2="209.211" gradientUnits="userSpaceOnUse">
<stop stop-color="#AB316D"/>
<stop offset="1" stop-color="#792D3D"/>
</linearGradient>
<linearGradient id="paint65_linear" x1="201.417" y1="200.172" x2="232.187" y2="195.623" gradientUnits="userSpaceOnUse">
<stop stop-color="#AB316D"/>
<stop offset="1" stop-color="#792D3D"/>
</linearGradient>
<linearGradient id="paint66_linear" x1="201.775" y1="202.594" x2="232.545" y2="198.045" gradientUnits="userSpaceOnUse">
<stop stop-color="#AB316D"/>
<stop offset="1" stop-color="#792D3D"/>
</linearGradient>
<linearGradient id="paint67_linear" x1="195.607" y1="208.713" x2="221.842" y2="204.834" gradientUnits="userSpaceOnUse">
<stop stop-color="#AB316D"/>
<stop offset="1" stop-color="#792D3D"/>
</linearGradient>
<clipPath id="clip0">
<rect width="274" height="270" fill="white"/>
</clipPath>
</defs>
</svg>
