<svg width="282" height="284" viewBox="0 0 282 284" fill="none" xmlns="http://www.w3.org/2000/svg">
<g clip-path="url(#clip0)">
<path d="M11.8214 192.176C40.3931 259.071 115.804 287.809 174.881 282.905C191.01 281.564 223.472 278.871 248.815 254.863C297.487 208.751 289.993 112.361 243.398 55.6126C237.401 48.3129 195.867 -0.644804 131.148 0.0104228C83.7699 0.491605 50.5041 27.3047 46.4618 30.6423C41.3502 34.8603 30.0885 44.8935 19.9266 60.8032C-3.93066 98.1819 -6.02822 150.375 11.8214 192.176Z" fill="white"/>
<path d="M196.447 21.2539V278.236C196.447 279.935 195.765 281.471 194.604 282.413C193.719 283.13 192.609 283.59 191.377 283.539L188.576 283.437C185.746 283.335 183.2 280.724 183.2 277.755V21.6839L196.447 21.2539Z" fill="url(#paint0_linear)"/>
<path d="M201.783 12.0293C201.783 16.3701 199.594 20.2503 196.294 22.5334C194.441 23.8233 192.232 24.6014 189.869 24.6731C188.698 24.7038 187.558 24.5707 186.489 24.2738C185.684 24.0486 184.921 23.7414 184.188 23.3626C184.004 23.2603 183.821 23.1579 183.648 23.0555C180.267 21.0079 178.027 17.2301 178.027 12.8483C178.027 6.11174 183.322 0.450166 189.869 0.214694C196.427 -0.0514922 201.783 5.24151 201.783 12.0293Z" fill="url(#paint1_linear)"/>
<path d="M196.325 11.5896C196.325 14.9579 194.625 17.9781 192.059 19.7595C190.613 20.7628 188.902 21.3669 187.059 21.4181C186.143 21.4488 185.267 21.3361 184.432 21.1109C183.811 20.9369 183.21 20.7014 182.65 20.4045C182.508 20.3226 182.365 20.2509 182.223 20.1588C179.596 18.5719 177.854 15.6336 177.854 12.2244C177.854 6.98258 181.968 2.59051 187.059 2.39599C192.161 2.19123 196.325 6.30688 196.325 11.5896Z" fill="url(#paint2_linear)"/>
<path d="M100.672 30.4378L101.691 30.9702L120.966 19.084L215.366 33.1202L228.573 34.6354L227.789 37.113C227.687 37.3792 212.658 48.3849 212.658 48.3849L224.347 63.8135L223.787 65.4004C223.716 65.5846 223.533 65.7075 223.349 65.6768L211.222 63.7828L116.771 49.0709C116.506 49.0299 116.262 48.8968 116.078 48.7023L100.876 32.7107C100.672 32.5059 100.571 32.209 100.591 31.9121L100.672 30.4378Z" fill="url(#paint3_linear)"/>
<path d="M122.035 18.0389L228.573 34.6346C228.675 34.6551 228.705 34.7882 228.614 34.8496L213.605 45.8963C213.401 46.0499 213.35 46.3366 213.483 46.5516L224.215 63.5875C224.266 63.6694 224.194 63.782 224.103 63.7717L117.504 47.1658C117.198 47.1146 116.924 46.9713 116.7 46.7461L100.815 30.5702C100.744 30.4985 100.764 30.3859 100.846 30.3347L121.068 18.2232C121.363 18.0492 121.699 17.9877 122.035 18.0389Z" fill="url(#paint4_linear)"/>
<path d="M109.938 130.606L111.017 130.872L126.505 115.177L218.818 106.68L231.138 105.134C231.393 105.103 231.617 105.308 231.607 105.564L231.505 107.591C231.464 107.867 219.755 121.76 219.755 121.76L234.315 133.667L234.142 135.295C234.122 135.489 233.979 135.643 233.796 135.653L221.903 136.667L129.386 144.54C129.132 144.56 128.867 144.499 128.643 144.355L110.661 132.725C110.427 132.572 110.264 132.326 110.213 132.039L109.938 130.606Z" fill="url(#paint5_linear)"/>
<path d="M127.278 113.937L231.321 105.081C231.535 105.061 231.668 105.317 231.525 105.481L220.07 119.169C219.917 119.353 219.927 119.65 220.101 119.824L234.132 133.491C234.203 133.563 234.162 133.676 234.06 133.686L129.641 142.572C129.345 142.593 129.04 142.521 128.785 142.368L110.101 130.717C110.019 130.666 110.009 130.553 110.08 130.492L126.413 114.357C126.647 114.111 126.953 113.968 127.278 113.937Z" fill="#7E67FF"/>
<path opacity="0.56" d="M189.065 120.55L131.076 125.106C130.863 125.126 130.669 124.963 130.659 124.748L130.445 122.065C130.425 121.85 130.588 121.656 130.801 121.645L188.79 117.09C189.004 117.069 189.197 117.233 189.207 117.448L189.421 120.13C189.442 120.345 189.279 120.53 189.065 120.55Z" fill="white"/>
<path opacity="0.56" d="M189.105 129.755L131.575 134.28C131.361 134.301 131.168 134.137 131.158 133.922L130.964 131.413C130.944 131.198 131.107 131.004 131.321 130.994L188.851 126.469C189.065 126.448 189.258 126.612 189.268 126.827L189.462 129.335C189.482 129.55 189.319 129.734 189.105 129.755Z" fill="white"/>
<path d="M277.896 78.1763L276.776 78.6267L257.348 65.9727L156.217 73.7739L142.135 74.5827L142.705 76.7941C142.797 77.0603 157.816 88.6804 157.816 88.6804L144.161 102.87L144.629 104.437C144.68 104.621 144.874 104.744 145.067 104.723L158.08 103.638L259.323 95.1814C259.608 95.161 259.873 95.0483 260.087 94.8641L277.499 80.3467C277.723 80.1522 277.865 79.886 277.865 79.5891L277.896 78.1763Z" fill="url(#paint6_linear)"/>
<path d="M256.299 64.9086L142.338 74.4299C142.155 74.4503 142.083 74.6858 142.226 74.7984L157.021 86.2239C157.225 86.3775 157.255 86.6642 157.092 86.8689L144.313 102.676C144.252 102.758 144.313 102.871 144.415 102.861L258.692 93.3188C259.017 93.2881 259.323 93.1653 259.577 92.9707L277.743 78.31C277.814 78.2486 277.814 78.136 277.733 78.0848L257.307 65.1645C257.001 64.9598 256.655 64.8779 256.299 64.9086Z" fill="url(#paint7_linear)"/>
<path opacity="0.56" d="M254.71 76.0572L198.066 80.5107C197.852 80.5311 197.659 80.3673 197.649 80.1523L197.435 77.3574C197.414 77.1424 197.577 76.9479 197.791 76.9376L254.435 72.4842C254.649 72.4637 254.843 72.6275 254.853 72.8425L255.067 75.6374C255.087 75.8524 254.924 76.0469 254.71 76.0572Z" fill="white"/>
<path opacity="0.56" d="M254.792 85.5487L198.606 89.9612C198.392 89.9817 198.198 89.8179 198.188 89.6029L197.985 86.9922C197.964 86.7772 198.127 86.5827 198.341 86.5725L254.527 82.1599C254.741 82.1395 254.934 82.3033 254.945 82.5183L255.148 85.1289C255.169 85.3439 255.006 85.5282 254.792 85.5487Z" fill="white"/>
<path d="M189.798 48.1172C192.031 48.1172 193.841 46.2975 193.841 44.0527C193.841 41.808 192.031 39.9883 189.798 39.9883C187.566 39.9883 185.756 41.808 185.756 44.0527C185.756 46.2975 187.566 48.1172 189.798 48.1172Z" fill="url(#paint8_linear)"/>
<path d="M190.073 45.9062C191.445 45.9062 192.558 44.7878 192.558 43.4082C192.558 42.0286 191.445 40.9102 190.073 40.9102C188.701 40.9102 187.589 42.0286 187.589 43.4082C187.589 44.7878 188.701 45.9062 190.073 45.9062Z" fill="url(#paint9_linear)"/>
<path d="M189.157 89.2953C191.31 89.2953 193.057 87.5398 193.057 85.3742C193.057 83.2087 191.31 81.4531 189.157 81.4531C187.003 81.4531 185.257 83.2087 185.257 85.3742C185.257 87.5398 187.003 89.2953 189.157 89.2953Z" fill="url(#paint10_linear)"/>
<path d="M189.422 87.1556C190.743 87.1556 191.815 86.0784 191.815 84.7497C191.815 83.4209 190.743 82.3438 189.422 82.3438C188.1 82.3438 187.029 83.4209 187.029 84.7497C187.029 86.0784 188.1 87.1556 189.422 87.1556Z" fill="url(#paint11_linear)"/>
<path d="M189.401 126.509C191.639 126.509 193.454 124.684 193.454 122.434C193.454 120.184 191.639 118.359 189.401 118.359C187.163 118.359 185.349 120.184 185.349 122.434C185.349 124.684 187.163 126.509 189.401 126.509Z" fill="url(#paint12_linear)"/>
<path d="M189.676 124.287C191.048 124.287 192.16 123.169 192.16 121.789C192.16 120.409 191.048 119.291 189.676 119.291C188.304 119.291 187.191 120.409 187.191 121.789C187.191 123.169 188.304 124.287 189.676 124.287Z" fill="url(#paint13_linear)"/>
<path opacity="0.56" d="M177.681 37.6244L125.853 29.4033C125.64 29.3726 125.497 29.1678 125.528 28.9528L125.925 26.4548C125.955 26.2398 126.159 26.0965 126.373 26.1272L178.201 34.3482C178.415 34.3789 178.557 34.5837 178.527 34.7987L178.13 37.2967C178.099 37.5117 177.895 37.6551 177.681 37.6244Z" fill="white"/>
<path opacity="0.56" d="M175.726 46.1726L124.306 38.0129C124.092 37.9822 123.949 37.7775 123.98 37.5625L124.346 35.2282C124.377 35.0132 124.58 34.8699 124.794 34.9006L176.215 43.0602C176.429 43.0909 176.572 43.2957 176.541 43.5107L176.174 45.8449C176.144 46.0599 175.94 46.2033 175.726 46.1726Z" fill="white"/>
<path d="M195.053 283.14C194.676 283.078 194.34 282.863 194.116 282.546C190.919 277.908 167.754 241.707 201.111 210.358C232.778 180.607 246.891 174.74 249.314 156.732C249.599 154.633 252.451 154.213 253.326 156.148C259.853 170.584 269.659 204.093 233.012 224.712C192.589 247.45 195.002 273.874 196.682 281.42C196.906 282.413 196.051 283.314 195.053 283.14Z" fill="#7E67FF"/>
<path d="M199.95 283.979C199.054 283.825 198.362 283.108 198.25 282.197C197.496 276.003 195.908 252.906 212.963 247.347C231.75 241.225 246.188 259.09 260.271 245.924C261.014 245.228 262.195 245.893 261.991 246.886C260.545 253.961 254.619 270.249 230.436 272.788C204.553 275.501 201.559 278.389 201.966 282.084C202.089 283.231 201.08 284.163 199.95 283.979Z" fill="#7E67FF"/>
<path opacity="0.47" d="M247.634 175.057C247.247 176.347 246.759 177.576 246.188 178.784C245.628 179.992 245.007 181.159 244.345 182.316C243.684 183.463 242.971 184.589 242.197 185.674C241.433 186.759 240.639 187.824 239.784 188.848C236.403 192.953 232.402 196.526 228.033 199.536C225.854 201.041 223.543 202.393 221.242 203.642C218.971 204.87 216.772 206.262 214.664 207.767C210.459 210.788 206.589 214.309 203.188 218.241C199.787 222.162 196.875 226.513 194.564 231.161C192.242 235.809 190.572 240.785 189.666 245.914C188.76 251.043 188.628 256.295 189.218 261.486C189.799 266.677 191.143 271.775 192.986 276.679C193.037 276.822 192.965 276.976 192.833 277.027C192.701 277.078 192.548 277.017 192.487 276.873C190.471 272 189.004 266.861 188.292 261.598C187.925 258.967 187.762 256.305 187.782 253.654C187.823 250.992 188.037 248.34 188.475 245.709C189.33 240.457 190.97 235.328 193.291 230.537C195.603 225.735 198.596 221.292 202.048 217.258C205.51 213.224 209.44 209.61 213.737 206.498C215.886 204.942 218.126 203.508 220.458 202.239L222.178 201.297C222.749 200.99 223.309 200.662 223.859 200.335L224.693 199.843L225.518 199.321L226.343 198.799L227.147 198.256C229.286 196.803 231.363 195.236 233.308 193.527C235.263 191.817 237.116 190.005 238.816 188.039C240.537 186.094 242.105 184.015 243.531 181.835C244.936 179.654 246.209 177.34 247.146 174.934L247.156 174.914C247.207 174.791 247.349 174.719 247.471 174.771C247.614 174.801 247.675 174.934 247.634 175.057Z" fill="white"/>
<path opacity="0.47" d="M199.177 279.762C199.217 279.547 199.207 279.332 199.207 279.127V278.492C199.207 278.073 199.227 277.653 199.238 277.223C199.268 276.383 199.319 275.534 199.38 274.694C199.513 273.015 199.716 271.336 200.001 269.667C200.582 266.34 201.447 263.043 202.903 259.962C203.626 258.426 204.512 256.962 205.581 255.631C206.65 254.3 207.933 253.133 209.389 252.232C210.846 251.342 212.485 250.727 214.165 250.441C215.01 250.297 215.855 250.215 216.711 250.205C217.566 250.185 218.411 250.246 219.256 250.348C220.101 250.451 220.926 250.604 221.751 250.737L224.225 251.178C225.875 251.475 227.524 251.802 229.164 252.13C232.453 252.785 235.721 253.502 239.01 254.116C240.649 254.413 242.299 254.689 243.959 254.853C245.608 255.017 247.278 255.078 248.917 254.884C250.557 254.71 252.155 254.239 253.601 253.451C255.047 252.672 256.33 251.587 257.471 250.379C257.552 250.287 257.695 250.287 257.786 250.369C257.878 250.451 257.878 250.594 257.796 250.676C256.646 251.925 255.342 253.051 253.846 253.881C252.349 254.72 250.679 255.222 248.989 255.426C247.298 255.631 245.588 255.57 243.918 255.406C242.238 255.242 240.578 254.976 238.928 254.679C235.629 254.075 232.351 253.369 229.062 252.724C225.783 252.079 222.474 251.454 219.195 250.963C218.38 250.86 217.556 250.799 216.731 250.809C215.906 250.809 215.092 250.881 214.277 251.014C212.658 251.28 211.09 251.853 209.685 252.703C208.28 253.563 207.037 254.669 205.999 255.959C204.95 257.239 204.084 258.672 203.362 260.167C201.905 263.177 201.009 266.432 200.409 269.729C200.113 271.377 199.889 273.046 199.737 274.715C199.665 275.554 199.604 276.394 199.564 277.223C199.543 277.643 199.533 278.062 199.523 278.482L199.513 279.107C199.513 279.312 199.502 279.527 199.553 279.731C199.584 279.834 199.513 279.936 199.411 279.967C199.309 279.997 199.207 279.926 199.177 279.823C199.166 279.813 199.166 279.782 199.177 279.762Z" fill="white"/>
</g>
<defs>
<linearGradient id="paint0_linear" x1="183.2" y1="152.397" x2="196.451" y2="152.397" gradientUnits="userSpaceOnUse">
<stop stop-color="#FE7062"/>
<stop offset="1" stop-color="#FF928E"/>
</linearGradient>
<linearGradient id="paint1_linear" x1="175.881" y1="-11.1664" x2="205.395" y2="37.9698" gradientUnits="userSpaceOnUse">
<stop stop-color="#E1473D"/>
<stop offset="1" stop-color="#E9605A"/>
</linearGradient>
<linearGradient id="paint2_linear" x1="176.187" y1="-6.44866" x2="199.133" y2="31.7535" gradientUnits="userSpaceOnUse">
<stop stop-color="#FE7062"/>
<stop offset="1" stop-color="#FF928E"/>
</linearGradient>
<linearGradient id="paint3_linear" x1="170.298" y1="-8.90573" x2="158.258" y2="79.1074" gradientUnits="userSpaceOnUse">
<stop stop-color="#E1473D"/>
<stop offset="1" stop-color="#E9605A"/>
</linearGradient>
<linearGradient id="paint4_linear" x1="165.86" y1="17.8055" x2="160.585" y2="92.5035" gradientUnits="userSpaceOnUse">
<stop stop-color="#FE7062"/>
<stop offset="1" stop-color="#FF928E"/>
</linearGradient>
<linearGradient id="paint5_linear" x1="88.4442" y1="15.8366" x2="300.848" y2="100.334" gradientUnits="userSpaceOnUse">
<stop stop-color="#F870FB"/>
<stop offset="0.703125" stop-color="#7266FF"/>
</linearGradient>
<linearGradient id="paint6_linear" x1="208.532" y1="-91.2239" x2="209.222" y2="-13.7162" gradientUnits="userSpaceOnUse">
<stop stop-color="#7E67FF"/>
<stop offset="1" stop-color="#4042E2"/>
</linearGradient>
<linearGradient id="paint7_linear" x1="118.71" y1="-21.0982" x2="341.754" y2="79.376" gradientUnits="userSpaceOnUse">
<stop stop-color="#F870FB"/>
<stop offset="0.703125" stop-color="#7266FF"/>
</linearGradient>
<linearGradient id="paint8_linear" x1="192.368" y1="32.1593" x2="180.474" y2="86.6834" gradientUnits="userSpaceOnUse">
<stop stop-color="#E1473D"/>
<stop offset="1" stop-color="#E9605A"/>
</linearGradient>
<linearGradient id="paint9_linear" x1="189.874" y1="34.0951" x2="190.139" y2="46.0993" gradientUnits="userSpaceOnUse">
<stop stop-color="#E1473D"/>
<stop offset="1" stop-color="#E9605A"/>
</linearGradient>
<linearGradient id="paint10_linear" x1="191.633" y1="73.9199" x2="180.177" y2="126.436" gradientUnits="userSpaceOnUse">
<stop stop-color="#E1473D"/>
<stop offset="1" stop-color="#E9605A"/>
</linearGradient>
<linearGradient id="paint11_linear" x1="189.231" y1="75.7838" x2="189.486" y2="87.3462" gradientUnits="userSpaceOnUse">
<stop stop-color="#E1473D"/>
<stop offset="1" stop-color="#E9605A"/>
</linearGradient>
<linearGradient id="paint12_linear" x1="191.968" y1="110.535" x2="180.068" y2="165.092" gradientUnits="userSpaceOnUse">
<stop stop-color="#E1473D"/>
<stop offset="1" stop-color="#E9605A"/>
</linearGradient>
<linearGradient id="paint13_linear" x1="189.473" y1="112.472" x2="189.738" y2="124.483" gradientUnits="userSpaceOnUse">
<stop stop-color="#E1473D"/>
<stop offset="1" stop-color="#E9605A"/>
</linearGradient>
<clipPath id="clip0">
<rect width="282" height="284" fill="white"/>
</clipPath>
</defs>
</svg>
