<svg width="211" height="211" viewBox="0 0 211 211" fill="none" xmlns="http://www.w3.org/2000/svg">
<g clip-path="url(#clip0)">
<path d="M211 106.07C210.674 164.337 163.197 211.325 104.971 211C46.6626 210.674 -0.285077 163.197 -5.18024e-05 104.93C0.325691 46.6624 47.8027 -0.326013 106.07 -0.000269675C164.297 0.325473 211.285 47.8025 211 106.07Z" fill="url(#paint0_linear)"/>
<path d="M117.186 143.489C117.145 152.813 109.531 160.346 100.207 160.305C90.8823 160.265 83.3495 152.65 83.3902 143.326L83.9602 34.2834C84.0009 24.959 91.6152 17.4262 100.94 17.467C110.264 17.5077 117.797 25.1219 117.756 34.4463L117.186 143.489Z" fill="white"/>
<path d="M140.232 153.667C140.11 175.777 122.113 193.571 100.003 193.449C77.8933 193.327 60.0995 175.329 60.2217 153.219C60.3438 131.11 78.3411 113.316 100.451 113.438C122.561 113.601 140.354 131.598 140.232 153.667Z" fill="white"/>
<path opacity="0.5" d="M108.35 142.554C108.309 146.992 104.686 150.616 100.247 150.575C95.8091 150.534 92.226 146.91 92.226 142.472L92.796 36.1171C92.8367 31.6789 96.4606 28.0957 100.899 28.0957C105.337 28.1364 108.92 31.7603 108.92 36.1986L108.35 142.554Z" fill="black" fill-opacity="0.26"/>
<path d="M128.261 153.629C128.18 169.101 115.557 181.561 100.125 181.48C84.6524 181.398 72.1928 168.776 72.2742 153.344C72.3556 137.871 84.9782 125.411 100.41 125.493C115.842 125.533 128.343 138.156 128.261 153.629Z" fill="#DD4E61"/>
<path d="M128.261 153.629C128.18 169.101 115.557 181.561 100.125 181.48C84.6524 181.398 72.1928 168.776 72.2742 153.344C72.3556 137.871 84.9782 125.411 100.41 125.493C115.842 125.533 128.343 138.156 128.261 153.629Z" fill="url(#paint1_linear)"/>
<path d="M92.5923 77.2812L92.2666 142.471C92.2259 146.909 95.8497 150.533 100.288 150.573C104.726 150.614 108.35 146.99 108.391 142.552L108.717 77.3627L92.5923 77.2812Z" fill="#DD4E61"/>
<path d="M92.9231 27.3242L92.5974 92.5135C92.5567 96.9518 96.1806 100.576 100.619 100.616C105.057 100.657 108.681 97.0332 108.722 92.595L109.047 27.4057L92.9231 27.3242Z" fill="#DD4E61"/>
<path d="M92.5924 77.2812L92.3073 126.631C80.7435 130.011 72.2742 140.638 72.2334 153.302C72.152 168.611 84.3674 181.071 99.5958 181.438L99.7587 150.533L99.8809 125.491L100.125 77.322L92.5924 77.2812Z" fill="#5D23E9"/>
<path d="M111.16 81.5563L105.174 81.5156V80.1719H111.16V81.5563Z" fill="white"/>
<path d="M111.119 87.0114H105.174V85.627L111.119 85.6677V87.0114Z" fill="white"/>
<path d="M111.078 92.5091L105.133 92.4684V91.084L111.078 91.1247V92.5091Z" fill="white"/>
<path d="M111.078 97.9661L105.093 97.9254V96.541L111.078 96.5817V97.9661Z" fill="white"/>
<path d="M111.038 103.422L105.052 103.381L105.093 102.037H111.038V103.422Z" fill="white"/>
<path d="M110.997 108.879H105.052V107.494L110.997 107.535V108.879Z" fill="white"/>
<path d="M110.997 114.374L105.011 114.334V112.949L110.997 112.99V114.374Z" fill="white"/>
<path d="M110.956 119.831L104.971 119.791V118.406L110.956 118.447V119.831Z" fill="white"/>
<path d="M110.915 125.287L104.971 125.246V123.902H110.915V125.287Z" fill="white"/>
<path d="M111.491 31.5993L105.505 31.5585V30.2148H111.491V31.5993Z" fill="white"/>
<path d="M111.45 37.0543H105.505V35.6699L111.45 35.7106V37.0543Z" fill="white"/>
<path d="M111.409 42.5521L105.464 42.5114V41.127L111.409 41.1677V42.5521Z" fill="white"/>
<path d="M111.409 48.0091L105.424 47.9684V46.584L111.409 46.6247V48.0091Z" fill="white"/>
<path d="M111.368 53.4645L105.383 53.4238L105.424 52.0801H111.368V53.4645Z" fill="white"/>
<path d="M111.328 58.9215H105.383V57.5371L111.328 57.5778V58.9215Z" fill="white"/>
<path d="M111.328 64.4173L105.342 64.3766V62.9922L111.328 63.0329V64.4173Z" fill="white"/>
<path d="M111.287 69.8743L105.301 69.8336V68.4492L111.287 68.4899V69.8743Z" fill="white"/>
<path d="M111.246 75.3297L105.301 75.289V73.9453H111.246V75.3297Z" fill="white"/>
<path d="M176.086 76.6397C176.086 75.4568 176.368 74.5337 176.933 73.8704C177.507 73.2003 178.49 72.8652 179.881 72.8652C181.273 72.8652 182.251 73.2003 182.815 73.8704C183.389 74.5337 183.676 75.4568 183.676 76.6397C183.676 77.8363 183.389 78.7731 182.815 79.45C182.251 80.1201 181.273 80.4552 179.881 80.4552C178.49 80.4552 177.507 80.1201 176.933 79.45C176.368 78.7731 176.086 77.8363 176.086 76.6397ZM182.041 76.6397C182.041 76.0858 181.988 75.6174 181.881 75.2345C181.784 74.8516 181.579 74.5405 181.268 74.3012C180.957 74.055 180.494 73.9319 179.881 73.9319C179.268 73.9319 178.806 74.055 178.495 74.3012C178.183 74.5405 177.974 74.8516 177.867 75.2345C177.77 75.6174 177.721 76.0858 177.721 76.6397C177.721 77.2141 177.77 77.6961 177.867 78.0859C177.964 78.4756 178.169 78.7902 178.48 79.0295C178.801 79.2688 179.268 79.3885 179.881 79.3885C180.494 79.3885 180.957 79.2688 181.268 79.0295C181.589 78.7902 181.798 78.4756 181.896 78.0859C181.993 77.6961 182.041 77.2141 182.041 76.6397Z" fill="white"/>
<path d="M128.877 85.7669V82.6095H135.192V104.742H131.7V85.7669H128.877Z" fill="white"/>
<path d="M139.946 93.3872C139.946 89.8857 140.533 87.1534 141.707 85.1901C142.901 83.2066 144.946 82.2148 147.84 82.2148C150.734 82.2148 152.768 83.2066 153.942 85.1901C155.136 87.1534 155.733 89.8857 155.733 93.3872C155.733 96.9292 155.136 99.702 153.942 101.706C152.768 103.689 150.734 104.681 147.84 104.681C144.946 104.681 142.901 103.689 141.707 101.706C140.533 99.702 139.946 96.9292 139.946 93.3872ZM152.333 93.3872C152.333 91.7478 152.222 90.3614 151.999 89.2279C151.797 88.0945 151.372 87.1736 150.724 86.4652C150.076 85.7366 149.115 85.3723 147.84 85.3723C146.565 85.3723 145.603 85.7366 144.956 86.4652C144.308 87.1736 143.873 88.0945 143.65 89.2279C143.448 90.3614 143.347 91.7478 143.347 93.3872C143.347 95.0874 143.448 96.5143 143.65 97.6679C143.853 98.8216 144.278 99.7526 144.925 100.461C145.593 101.169 146.565 101.524 147.84 101.524C149.115 101.524 150.076 101.169 150.724 100.461C151.392 99.7526 151.827 98.8216 152.03 97.6679C152.232 96.5143 152.333 95.0874 152.333 93.3872Z" fill="white"/>
<path d="M159.396 93.3872C159.396 89.8857 159.983 87.1534 161.156 85.1901C162.351 83.2066 164.395 82.2148 167.289 82.2148C170.183 82.2148 172.218 83.2066 173.391 85.1901C174.586 87.1534 175.183 89.8857 175.183 93.3872C175.183 96.9292 174.586 99.702 173.391 101.706C172.218 103.689 170.183 104.681 167.289 104.681C164.395 104.681 162.351 103.689 161.156 101.706C159.983 99.702 159.396 96.9292 159.396 93.3872ZM171.782 93.3872C171.782 91.7478 171.671 90.3614 171.448 89.2279C171.246 88.0945 170.821 87.1736 170.173 86.4652C169.526 85.7366 168.564 85.3723 167.289 85.3723C166.014 85.3723 165.053 85.7366 164.405 86.4652C163.757 87.1736 163.322 88.0945 163.099 89.2279C162.897 90.3614 162.796 91.7478 162.796 93.3872C162.796 95.0874 162.897 96.5143 163.099 97.6679C163.302 98.8216 163.727 99.7526 164.375 100.461C165.042 101.169 166.014 101.524 167.289 101.524C168.564 101.524 169.526 101.169 170.173 100.461C170.841 99.7526 171.276 98.8216 171.479 97.6679C171.681 96.5143 171.782 95.0874 171.782 93.3872Z" fill="white"/>
</g>
<defs>
<linearGradient id="paint0_linear" x1="105.5" y1="-0.00195705" x2="-26.0936" y2="288.709" gradientUnits="userSpaceOnUse">
<stop stop-color="#BE6CFD"/>
<stop offset="1" stop-color="#7367FF"/>
</linearGradient>
<linearGradient id="paint1_linear" x1="62.5985" y1="-1.35534" x2="171.61" y2="12.3866" gradientUnits="userSpaceOnUse">
<stop stop-color="#B294FC"/>
<stop offset="1" stop-color="#86BDFE"/>
</linearGradient>
<clipPath id="clip0">
<rect width="211" height="211" fill="white"/>
</clipPath>
</defs>
</svg>
