<svg width="500" height="293" viewBox="0 0 500 293" fill="none" xmlns="http://www.w3.org/2000/svg">
<g clip-path="url(#clip0)">
<path d="M479.85 293.001C450.406 293.001 21.3473 293.102 21.1038 292.392L21.0632 292.311C21.0632 292.311 21.0226 292.23 21.0226 292.189C20.8603 291.845 -45.0894 193.509 57.4269 125.065C97.5446 98.2755 54.9106 80.612 86.81 50.7806C123.458 16.5081 163.474 54.4107 204.241 38.8765C211.445 36.1388 218.669 31.7178 225.913 24.9444C229.992 21.1318 234.456 17.806 239.225 14.9263C254.302 5.8207 272.118 1.5417 289.489 0.365485C335.024 -2.7373 386.282 14.7235 412.743 40.2352C418.06 45.366 442.289 71.9526 423.194 108.476C411.14 131.534 461.627 153.578 479.566 179.921C525.183 246.864 480.276 292.129 479.85 293.001Z" fill="#EAE8FB"/>
<g opacity="0.8">
<path opacity="0.8" d="M238.474 113.769C238.474 113.769 258.035 106.367 251.684 91.4008C251.684 91.4008 246.205 81.9708 239.326 78.7261C239.326 78.7261 240.097 99.7357 236.181 99.6546C232.264 99.5532 236.992 76.1708 236.992 76.1708C236.992 76.1708 219.358 64.1856 211.789 63.78C211.789 63.78 220.576 85.4994 216.802 84.4449C213.027 83.3904 202.82 61.2045 202.82 61.2045C202.82 61.2045 183.867 54.6744 179.017 65.7471C174.147 76.8198 178.348 83.3498 181.128 84.5057C183.908 85.6617 202.475 88.1966 201.623 90.5288C200.771 92.861 187.682 94.8281 181.047 91.6239C181.047 91.6239 185.896 111.782 196.144 112.329C206.392 112.877 210.47 107.097 216.781 107.564C223.112 108.03 227.435 110.383 224.046 111.599C220.657 112.816 210.247 110.099 204.545 113.627C198.843 117.156 194.358 119.204 203.449 122.53C212.54 125.856 229.565 127.194 234.03 120.482C238.474 113.769 238.474 113.769 238.474 113.769Z" fill="white"/>
<g opacity="0.8">
<path opacity="0.8" d="M187.357 70.6953C187.357 70.6953 235.43 94.6253 238.473 113.769C238.473 113.769 237.012 121.901 240.645 132.041L240.097 135.651C240.097 135.651 236.647 122.591 234.009 120.482C234.009 120.462 247.706 106.286 187.357 70.6953Z" fill="white"/>
<path opacity="0.8" d="M240.645 132.042C240.645 132.042 246.671 145.041 240.056 158.77L238.128 157.939C238.128 157.939 242.451 142.384 239.569 133.786C236.708 125.187 240.645 132.042 240.645 132.042Z" fill="white"/>
</g>
</g>
<path d="M168.669 130.095C168.669 130.095 162.358 83.0664 126.258 74.407C126.258 74.407 119.217 72.8252 116.071 80.4301C112.926 88.0349 127.07 89.4951 135.511 93.4901C143.973 97.5258 163.068 112.898 168.669 130.095Z" fill="white"/>
<path d="M170.353 121.577C170.353 121.577 177.922 83.8978 152.557 67.7552C152.557 67.7552 147.585 64.693 143.161 69.6818C138.738 74.6706 149.208 79.5174 154.606 84.8104C160.024 90.1236 170.596 106.915 170.353 121.577Z" fill="white"/>
<path d="M371.956 75.4201C367.796 77.0222 340.219 80.0844 341.375 83.5725C342.532 87.0606 361.83 90.4676 371.793 85.9655C371.793 85.9655 368.08 99.8368 360.876 108.74C351.948 108.78 339.305 108.841 323.68 108.922C321.956 108.415 320.211 108.111 318.303 108.212C316.03 108.314 313.94 108.598 312.114 108.983C306.392 109.003 300.365 109.044 294.054 109.064L274.107 109.165C267.633 103.528 261.891 94.7263 267.228 82.9844C267.228 82.9844 275.689 69.2348 286.018 64.6922C286.018 64.6922 284.07 95.7809 289.874 95.7809C295.677 95.7809 289.549 60.981 289.549 60.981C289.549 60.981 316.111 43.9056 327.333 43.6014C327.333 43.6014 313.494 75.4201 319.135 74.0005C324.776 72.581 340.706 40.1133 340.706 40.1133C340.706 40.1133 368.993 31.17 375.771 47.7384C382.568 64.3069 376.116 73.818 371.956 75.4201Z" fill="white"/>
<path d="M283.502 146.277C283.279 147.007 283.076 147.616 282.954 148.062C283.116 147.454 283.299 146.845 283.502 146.277Z" fill="white"/>
<path d="M363.189 54.7559C318.587 79.5578 300.71 97.3633 294.054 109.065L288.737 109.085C303.003 83.0662 361.688 55.4454 363.189 54.7559Z" fill="white"/>
<path d="M149.858 292.737L170.313 292.636C171.408 291.703 169.541 289.594 167.593 289.472C166.741 289.411 165.686 289.594 164.468 289.857C164.164 286.126 162.48 269.314 156.433 270.024C149.614 270.815 156.473 277.426 158.421 281.34C159.862 284.24 161.384 288.417 162.074 290.384C161.526 290.506 160.958 290.628 160.369 290.729C159.456 287.971 156.047 278.663 151.786 279.21C146.774 279.88 148.803 283.591 152.374 285.801C154.992 287.424 158.198 289.715 159.74 290.831C158.442 291.054 157.102 291.196 155.743 291.175C152.212 291.135 150.507 292.169 149.858 292.737Z" fill="#D2E0FF"/>
<path d="M273.6 261.566H215.3V285.233H273.6V261.566Z" fill="#143A72"/>
<path d="M291.944 292.21H196.977C196.977 288.377 200.102 285.254 203.937 285.254H284.984C288.839 285.254 291.944 288.357 291.944 292.21Z" fill="#1C468A"/>
<path d="M392.066 265.177H98.5188C94.0951 265.177 90.5034 261.588 90.5034 257.167V110.951C90.5034 106.53 94.0951 102.94 98.5188 102.94H392.066C396.49 102.94 400.081 106.53 400.081 110.951V257.167C400.081 261.608 396.49 265.177 392.066 265.177Z" fill="#2A4E96"/>
<path d="M386.567 259.316H104.018C99.5942 259.316 96.0024 255.727 96.0024 251.306V116.811C96.0024 112.39 99.5942 108.801 104.018 108.801H386.567C390.99 108.801 394.582 112.39 394.582 116.811V251.306C394.582 255.727 390.99 259.316 386.567 259.316Z" fill="url(#paint0_linear)"/>
<path d="M372.646 224.436H107.975V226.646H372.646V224.436Z" fill="white"/>
<path d="M253.044 224.436H107.934V226.646H253.044V224.436Z" fill="#493D37"/>
<path d="M247.768 225.55C247.768 223.462 249.452 221.778 251.542 221.778C253.632 221.778 255.316 223.462 255.316 225.55C255.316 227.639 253.632 229.322 251.542 229.322C249.452 229.322 247.768 227.619 247.768 225.55Z" fill="#493D37"/>
<path d="M277.026 199.244C294.777 181.504 294.777 152.742 277.026 135.002C259.275 117.262 230.495 117.262 212.744 135.002C194.993 152.742 194.993 181.504 212.744 199.244C230.495 216.984 259.275 216.984 277.026 199.244Z" fill="white" fill-opacity="0.21"/>
<path d="M232.61 143.296V190.953C232.61 193.529 235.552 194.969 237.602 193.427L268.852 169.599C270.475 168.362 270.475 165.908 268.852 164.671L237.602 140.842C235.552 139.261 232.61 140.721 232.61 143.296Z" fill="white"/>
<path d="M248.112 251.873C253.391 251.873 257.67 247.596 257.67 242.321C257.67 237.046 253.391 232.77 248.112 232.77C242.834 232.77 238.555 237.046 238.555 242.321C238.555 247.596 242.834 251.873 248.112 251.873Z" fill="#6048F7"/>
<path d="M208.989 242.321C208.989 237.049 213.271 232.77 218.547 232.77C223.823 232.77 228.104 237.049 228.104 242.321C228.104 247.594 223.823 251.873 218.547 251.873C213.271 251.873 208.989 247.594 208.989 242.321Z" fill="#6048F7"/>
<path d="M268.506 242.321C268.506 237.049 272.788 232.77 278.064 232.77C283.34 232.77 287.622 237.049 287.622 242.321C287.622 247.594 283.34 251.873 278.064 251.873C272.788 251.873 268.506 247.594 268.506 242.321Z" fill="#6048F7"/>
<path d="M219.988 244.977V239.644C219.988 238.975 219.217 238.589 218.669 238.995L215.178 241.672C214.752 241.996 214.752 242.645 215.178 242.97L218.669 245.647C219.217 246.052 219.988 245.667 219.988 244.977Z" fill="white"/>
<path d="M276.42 239.726V244.917C276.42 245.627 277.232 246.033 277.8 245.586L281.209 242.991C281.656 242.646 281.656 241.977 281.209 241.632L277.8 239.036C277.232 238.61 276.42 239.016 276.42 239.726Z" fill="white"/>
<path d="M245.657 246.642C245.049 246.642 244.562 246.155 244.562 245.547V239.078C244.562 238.469 245.049 237.982 245.657 237.982C246.266 237.982 246.753 238.469 246.753 239.078V245.547C246.753 246.155 246.266 246.642 245.657 246.642Z" fill="white"/>
<path d="M250.954 246.642C250.345 246.642 249.858 246.155 249.858 245.547V239.078C249.858 238.469 250.345 237.982 250.954 237.982C251.562 237.982 252.049 238.469 252.049 239.078V245.547C252.029 246.155 251.542 246.642 250.954 246.642Z" fill="white"/>
<path d="M367.906 211.231C369.887 209.252 369.887 206.041 367.906 204.062C365.925 202.082 362.713 202.082 360.732 204.062C358.751 206.041 358.751 209.252 360.732 211.231C362.713 213.211 365.925 213.211 367.906 211.231Z" fill="#EBF3FA"/>
<path d="M373.397 202.209C372.991 202.209 372.565 202.047 372.24 201.743C369.582 199.228 366.822 198.011 364.063 198.133C359.761 198.295 356.676 201.621 356.636 201.662C356.007 202.351 354.951 202.412 354.261 201.783C353.572 201.155 353.511 200.1 354.14 199.41C354.302 199.228 358.158 195.01 363.9 194.766C367.614 194.604 371.206 196.145 374.574 199.309C375.244 199.958 375.284 201.013 374.635 201.702C374.31 202.027 373.864 202.209 373.397 202.209Z" fill="#EBF3FA"/>
<path d="M378.653 194.888C378.247 194.888 377.821 194.726 377.496 194.422C373.072 190.264 368.466 188.236 363.799 188.419C356.555 188.703 351.421 194.259 351.38 194.32C350.751 195.01 349.696 195.071 348.986 194.442C348.296 193.813 348.235 192.759 348.864 192.069C349.107 191.806 354.931 185.417 363.616 185.052C369.237 184.809 374.676 187.141 379.809 191.968C380.479 192.617 380.52 193.671 379.87 194.361C379.566 194.706 379.12 194.888 378.653 194.888Z" fill="#EBF3FA"/>
<path d="M384.192 187.77C383.787 187.77 383.36 187.607 383.036 187.303C376.765 181.402 370.191 178.522 363.535 178.806C353.186 179.212 345.921 187.121 345.84 187.202C345.211 187.891 344.156 187.952 343.446 187.323C342.756 186.695 342.695 185.64 343.324 184.951C343.648 184.586 351.562 175.926 363.352 175.44C370.982 175.115 378.369 178.299 385.349 184.849C386.019 185.498 386.059 186.553 385.41 187.242C385.085 187.587 384.639 187.77 384.192 187.77Z" fill="#EBF3FA"/>
<path d="M397.889 292.596H333.868C328.937 292.596 324.939 288.601 324.939 283.673V228.796C324.939 223.868 328.937 219.873 333.868 219.873H397.889C402.82 219.873 406.818 223.868 406.818 228.796V283.673C406.818 288.601 402.82 292.596 397.889 292.596Z" fill="#484FF7"/>
<path d="M393.71 287.85H338.028C333.746 287.85 330.256 284.382 330.256 280.083V232.365C330.256 228.086 333.726 224.598 338.028 224.598H393.71C397.991 224.598 401.482 228.065 401.482 232.365V280.083C401.482 284.382 397.991 287.85 393.71 287.85Z" fill="#7A77FF"/>
<path d="M376.441 279.962H354.464C353.876 279.962 353.389 279.475 353.389 278.887C353.389 278.299 353.876 277.812 354.464 277.812H376.441C377.029 277.812 377.516 278.299 377.516 278.887C377.516 279.475 377.029 279.962 376.441 279.962Z" fill="#143A72"/>
<path d="M335.775 231.006C335.775 230.114 336.505 229.384 337.398 229.384C338.291 229.384 339.022 230.114 339.022 231.006C339.022 231.898 338.291 232.629 337.398 232.629C336.505 232.629 335.775 231.898 335.775 231.006Z" fill="#EBF3FA"/>
<path d="M342.897 231.006C342.897 230.114 343.628 229.384 344.521 229.384C345.414 229.384 346.144 230.114 346.144 231.006C346.144 231.898 345.414 232.629 344.521 232.629C343.628 232.629 342.897 231.898 342.897 231.006Z" fill="#143A72"/>
<path d="M350.608 231.006C350.608 230.114 351.339 229.384 352.232 229.384C353.125 229.384 353.855 230.114 353.855 231.006C353.855 231.898 353.125 232.629 352.232 232.629C351.339 232.629 350.608 231.898 350.608 231.006Z" fill="#739AF0"/>
</g>
<defs>
<linearGradient id="paint0_linear" x1="245.292" y1="108.801" x2="191.007" y2="345.06" gradientUnits="userSpaceOnUse">
<stop stop-color="#BE6CFD"/>
<stop offset="1" stop-color="#7367FF"/>
</linearGradient>
<clipPath id="clip0">
<rect width="500" height="293" fill="white"/>
</clipPath>
</defs>
</svg>
