<svg width="23" height="16" viewBox="0 0 23 16" fill="none" xmlns="http://www.w3.org/2000/svg">
<path d="M21.2857 9C21.838 9 22.2857 8.55228 22.2857 8C22.2857 7.44772 21.838 7 21.2857 7L21.2857 9ZM0.449566 7.29289C0.059042 7.68342 0.0590419 8.31658 0.449566 8.7071L6.81353 15.0711C7.20405 15.4616 7.83722 15.4616 8.22774 15.0711C8.61826 14.6805 8.61826 14.0474 8.22774 13.6569L2.57089 8L8.22774 2.34314C8.61827 1.95262 8.61827 1.31946 8.22774 0.928931C7.83722 0.538407 7.20405 0.538407 6.81353 0.928931L0.449566 7.29289ZM21.2857 7L1.15667 7L1.15667 9L21.2857 9L21.2857 7Z" fill="#191C2C"/>
</svg>
