<svg width="1764" height="1080" viewBox="0 0 1764 1080" fill="none" xmlns="http://www.w3.org/2000/svg">
<g opacity="0.4" filter="url(#filter0_f)">
<circle cx="800" cy="383" r="140" fill="url(#paint0_linear)"/>
</g>
<g opacity="0.5" filter="url(#filter1_f)">
<circle cx="1653.5" cy="-246.5" r="333.5" fill="url(#paint1_linear)"/>
</g>
<path d="M1680.75 279.709C1632.44 334.886 1605.68 403.436 1580.32 470.698C1554.96 537.959 1529.42 606.724 1482.89 663.244C1436.38 719.764 1364.18 762.91 1288.1 758.148C1139.07 748.802 1041.3 595.016 902.087 554.269C857.279 541.146 804.872 542.829 767.509 569.415C715.236 606.599 709.13 682.185 738.683 737.04C768.236 791.895 824.797 829.402 882.487 858.745C926.798 881.284 973.099 900.387 1020.76 915.819C1080.82 935.244 1145.92 950.39 1190.92 992.372C1247.96 1045.6 1236.26 1087.26 1204.95 1126H1840V219H1752.47C1725.62 235.882 1701.29 256.256 1680.75 279.709Z" fill="#F5F4FF"/>
<path opacity="0.2" d="M-304.925 1086.83L-300.582 1088.27L-296.24 1089.71L-291.901 1091.15L-287.564 1092.57L-283.231 1093.98L-278.903 1095.38L-274.579 1096.76L-270.262 1098.13L-265.951 1099.47L-261.647 1100.79L-257.351 1102.09L-253.064 1103.36L-248.786 1104.6L-244.518 1105.8L-240.261 1106.98L-236.015 1108.12L-231.781 1109.22L-227.56 1110.28L-223.352 1111.3L-219.157 1112.28L-214.978 1113.21L-210.813 1114.09L-206.664 1114.93L-202.531 1115.71L-198.415 1116.44L-194.316 1117.12L-190.235 1117.74L-186.172 1118.31L-182.128 1118.81L-178.103 1119.25L-174.097 1119.64L-170.112 1119.96L-166.147 1120.21L-162.204 1120.4L-158.281 1120.53L-154.38 1120.58L-150.501 1120.57L-146.645 1120.48L-142.811 1120.33L-138.999 1120.1L-135.211 1119.8L-131.447 1119.43L-127.705 1118.98L-123.988 1118.46L-120.295 1117.86L-116.625 1117.19L-112.98 1116.44L-109.359 1115.61L-105.763 1114.71L-102.191 1113.73L-98.6436 1112.68L-95.1207 1111.54L-91.6223 1110.33L-88.1484 1109.05L-84.699 1107.68L-81.2739 1106.24L-77.8732 1104.72L-74.4966 1103.13L-71.144 1101.46L-67.8154 1099.72L-64.5105 1097.9L-61.229 1096.01L-57.9709 1094.05L-54.7358 1092.01L-51.5235 1089.9L-48.3337 1087.72L-45.1662 1085.47L-42.0204 1083.15L-38.8963 1080.77L-35.7933 1078.31L-32.7111 1075.79L-29.6492 1073.21L-26.6074 1070.57L-23.5851 1067.86L-20.5819 1065.1L-17.5973 1062.27L-14.6308 1059.39L-11.682 1056.45L-8.75024 1053.46L-5.83505 1050.42L-2.93589 1047.33L-0.0521998 1044.18L2.81663 1041L5.67118 1037.76L8.51203 1034.49L11.3398 1031.17L14.1552 1027.81L16.9588 1024.42L19.7512 1020.99L22.5331 1017.53L25.3053 1014.04L28.0683 1010.52L30.8228 1006.97L33.5696 1003.4L36.3093 999.804L39.0427 996.19L41.7705 992.558L44.4934 988.911L47.212 985.251L49.9273 981.579L52.6397 977.9L55.3502 974.214L58.0594 970.524L60.7681 966.832L63.477 963.141L66.1868 959.453L68.8983 955.77L71.6122 952.095L74.3293 948.43L77.0502 944.777L79.7757 941.138L82.5066 937.516L85.2434 933.913L87.987 930.331L90.7381 926.773L93.4973 923.24L96.2653 919.735L99.0429 916.259L101.831 912.816L104.629 909.407L107.439 906.034L110.262 902.7L113.097 899.405L115.945 896.153L118.808 892.944L121.685 889.782L124.577 886.667L127.485 883.602L130.409 880.588L133.351 877.628L136.309 874.722L139.286 871.872L142.281 869.08L145.295 866.347L148.328 863.675L151.381 861.066L154.454 858.519L157.548 856.038L160.663 853.623L163.799 851.275L166.957 848.995L170.137 846.784L173.339 844.644L176.564 842.575L179.812 840.578L183.083 838.654L186.378 836.803L189.696 835.027L193.038 833.326L196.404 831.7L199.794 830.149L203.209 828.675L206.647 827.278L210.11 825.957L213.598 824.713L217.11 823.546L220.647 822.456L224.208 821.443L227.794 820.508L231.404 819.649L235.038 818.866L238.697 818.16L242.38 817.53L246.087 816.975L249.817 816.495L253.572 816.089L257.35 815.757L261.151 815.498L264.975 815.312L268.821 815.196L272.691 815.151L276.582 815.176L280.495 815.269L284.429 815.429L288.385 815.656L292.361 815.947L296.358 816.303L300.374 816.72L304.41 817.199L308.465 817.737L312.538 818.334L316.629 818.987L320.738 819.694L324.863 820.455L329.005 821.268L333.163 822.131L337.337 823.041L341.525 823.998L345.727 824.999L349.942 826.043L354.171 827.127L358.411 828.249L362.664 829.409L366.927 830.602L371.2 831.828L375.484 833.084L379.776 834.368L384.076 835.679L388.384 837.013L392.699 838.368L397.02 839.743L401.346 841.135L405.677 842.541L410.012 843.96L414.351 845.39L418.692 846.827L423.034 848.27L427.378 849.717L431.722 851.164L436.066 852.61L440.408 854.052L444.749 855.489L449.087 856.917L453.421 858.335L457.752 859.74L462.078 861.13L466.398 862.502L470.712 863.855L475.019 865.186L479.318 866.494L483.609 867.775L487.891 869.027L492.164 870.249L496.426 871.439L500.677 872.594L504.916 873.712L509.143 874.791L513.357 875.83L517.557 876.825L521.743 877.777L525.915 878.682L530.071 879.538L534.211 880.345L538.335 881.099L542.441 881.801L546.53 882.447L550.601 883.036L554.654 883.567L558.687 884.039L562.701 884.449L566.695 884.797L570.669 885.08L574.622 885.299L578.554 885.451L582.464 885.536L586.353 885.552L590.219 885.499L594.063 885.375L597.885 885.179L601.683 884.912L605.458 884.571L609.21 884.156L612.937 883.667L616.641 883.103L620.321 882.464L623.977 881.748L627.609 880.957L631.216 880.088L634.798 879.143L638.357 878.121L641.89 877.022L645.399 875.846L648.884 874.593L652.344 873.263L655.78 871.856L659.192 870.373L662.579 868.813L665.942 867.178L669.281 865.467L672.596 863.682L675.888 861.823L679.156 859.89L682.402 857.884L685.624 855.806L688.823 853.657L692.001 851.438L695.156 849.15L698.29 846.794L701.402 844.37L704.493 841.881L707.564 839.327L710.614 836.71L713.645 834.031L716.657 831.291L719.65 828.492L722.624 825.635L725.58 822.722L728.52 819.755L731.442 816.735L734.348 813.664L737.239 810.543L740.114 807.375L742.975 804.162L745.821 800.904L748.655 797.604L751.476 794.265L754.284 790.888L757.082 787.474L759.868 784.027L762.644 780.548L765.411 777.04L768.17 773.503L770.92 769.942L773.662 766.357L776.398 762.752L779.129 759.128L781.854 755.487L784.574 751.832L787.291 748.166L790.004 744.49L792.715 740.806L795.425 737.118L798.134 733.426L800.843 729.735L803.552 726.045L806.263 722.36L808.975 718.681L811.691 715.011L814.41 711.352L817.134 707.707L819.862 704.078L822.596 700.466L825.337 696.874L828.084 693.305L830.84 689.761L833.604 686.243L836.377 682.755L839.16 679.297L841.954 675.873L844.759 672.484L847.576 669.132L850.405 665.82L853.248 662.548L856.104 659.321L858.975 656.138L861.86 653.002L864.761 649.915L867.678 646.878L870.612 643.894L873.563 640.964L876.532 638.089L879.519 635.271L882.524 632.512L885.549 629.814L888.593 627.177L891.657 624.602L894.742 622.092L897.847 619.648L900.974 617.27L904.123 614.96L907.293 612.719L910.485 610.548L913.7 608.447L916.938 606.418L920.199 604.462L923.483 602.579L926.791 600.77L930.123 599.036L933.478 597.377L936.858 595.793L940.261 594.285L943.689 592.854L947.142 591.499L950.619 590.222L954.12 589.021L957.646 587.897L961.196 586.851L964.771 585.881L968.37 584.989L971.994 584.172L975.642 583.433L979.315 582.769L983.011 582.181L986.731 581.668L990.475 581.23L994.243 580.866L998.034 580.575L1001.85 580.357L1005.68 580.21L1009.54 580.134L1013.43 580.128L1017.33 580.191L1021.25 580.322L1025.2 580.52L1029.17 580.783L1033.16 581.11L1037.16 581.501L1041.19 581.953L1045.24 582.465L1049.3 583.036L1053.39 583.664L1057.49 584.348L1061.6 585.086L1065.74 585.876L1069.89 586.717L1074.06 587.607L1078.24 588.544L1082.43 589.525L1086.64 590.551L1090.87 591.617L1095.1 592.723L1099.35 593.866L1103.61 595.045L1107.88 596.257L1112.16 597.5L1116.44 598.772L1120.74 600.071L1125.05 601.395L1129.36 602.741L1133.68 604.108L1138 605.493L1142.33 606.893L1146.66 608.307L1151 609.732L1155.34 611.166L1159.68 612.607L1164.03 614.052L1168.37 615.499L1172.71 616.946L1177.06 618.391L1181.4 619.83L1185.74 621.262L1190.07 622.685L1194.41 624.096L1198.73 625.493L1203.06 626.873L1207.37 628.235L1211.68 629.576L1215.99 630.894L1220.28 632.187L1224.57 633.452L1228.84 634.688L1233.11 635.892L1237.37 637.062L1241.61 638.197L1245.84 639.293L1250.06 640.35L1254.27 641.365L1258.46 642.336L1262.64 643.261L1266.8 644.139L1270.95 644.968L1275.08 645.746L1279.19 646.471L1283.29 647.141L1287.37 647.756L1291.43 648.313L1295.47 648.811L1299.5 649.248L1303.5 649.623L1307.48 649.935L1311.44 650.183L1315.38 650.364L1319.3 650.479L1323.2 650.525L1327.08 650.503L1330.93 650.41L1334.76 650.246L1338.57 650.01L1342.36 649.701L1346.12 649.319L1349.86 648.863L1353.57 648.332L1357.26 647.726L1360.93 647.044L1364.57 646.286L1368.19 645.451L1371.78 644.54L1375.35 643.552L1378.9 642.486L1382.42 641.344L1385.91 640.125L1389.38 638.828L1392.83 637.455L1396.25 636.006L1399.65 634.48L1403.02 632.878L1406.37 631.2L1409.7 629.448L1413 627.621L1416.28 625.72L1419.53 623.746L1422.77 621.7L1425.98 619.582L1429.16 617.394L1432.33 615.136L1435.47 612.81L1438.59 610.415L1441.69 607.955L1444.77 605.429L1447.83 602.84L1450.87 600.188L1453.89 597.474L1456.89 594.701L1459.88 591.869L1462.84 588.981L1465.79 586.037L1468.72 583.04L1471.63 579.992L1474.53 576.892L1477.41 573.745L1480.28 570.551L1483.13 567.313L1485.97 564.031L1488.79 560.709L1491.61 557.348L1494.41 553.95L1497.2 550.518L1499.98 547.053L1502.75 543.557L1505.51 540.032L1508.27 536.482L1511.01 532.907L1513.75 529.311L1516.49 525.694L1519.21 522.061L1521.94 518.412L1524.65 514.75L1527.37 511.078L1530.08 507.397L1532.79 503.711L1535.5 500.021L1538.21 496.329L1540.92 492.638L1543.63 488.951L1546.34 485.269L1549.05 481.595L1551.77 477.931L1554.49 474.279L1557.22 470.642L1559.95 467.023L1562.69 463.422L1565.43 459.843L1568.18 456.287L1570.94 452.758L1573.71 449.256L1576.49 445.785L1579.28 442.345L1582.08 438.941L1584.89 435.572L1587.72 432.242L1590.55 428.953L1593.4 425.705L1596.27 422.503L1599.15 419.346L1602.04 416.237L1604.95 413.178L1607.88 410.171L1610.82 407.217L1613.78 404.317L1616.76 401.474L1619.76 398.689L1622.77 395.964L1625.81 393.3L1628.86 390.698L1631.94 388.159L1635.04 385.686L1638.15 383.278L1641.29 380.938L1644.45 378.667L1647.64 376.465L1650.84 374.333L1654.07 372.273L1657.32 370.285L1660.59 368.369L1663.89 366.528L1667.21 364.761L1670.56 363.068L1673.93 361.451L1677.32 359.91L1680.74 358.445L1684.18 357.057L1687.64 355.746L1691.13 354.511L1694.65 353.353L1698.19 352.273L1701.75 351.27L1705.34 350.343L1708.95 349.493L1712.59 348.72L1716.25 348.023L1719.94 347.402L1723.65 346.856L1727.38 346.385L1731.14 345.989L1734.92 345.666L1738.72 345.415L1742.55 345.237L1746.4 345.13L1750.27 345.094L1754.17 345.127L1758.08 345.228L1762.02 345.397L1765.98 345.631L1769.96 345.93L1773.96 346.293L1777.97 346.719L1782.01 347.204L1786.07 347.75L1790.14 348.353L1794.24 349.013L1798.35 349.727L1802.48 350.494L1806.62 351.313L1810.78 352.182L1814.96 353.098L1819.15 354.06L1823.35 355.067L1827.57 356.115L1831.8 357.204L1836.04 358.331L1840.29 359.495L1844.56 360.692L1848.83 361.922L1853.12 363.182L1857.41 364.469L1861.71 365.782L1866.02 367.119L1870.33 368.477L1874.66 369.854L1878.98 371.248L1883.31 372.656L1887.65 374.076L1891.99 375.507L1896.33 376.945L1900.67 378.388L1905.02 379.835" stroke="url(#paint2_linear)" stroke-width="4"/>
<defs>
<filter id="filter0_f" x="460" y="43" width="680" height="680" filterUnits="userSpaceOnUse" color-interpolation-filters="sRGB">
<feFlood flood-opacity="0" result="BackgroundImageFix"/>
<feBlend mode="normal" in="SourceGraphic" in2="BackgroundImageFix" result="shape"/>
<feGaussianBlur stdDeviation="100" result="effect1_foregroundBlur"/>
</filter>
<filter id="filter1_f" x="620" y="-1280" width="2067" height="2067" filterUnits="userSpaceOnUse" color-interpolation-filters="sRGB">
<feFlood flood-opacity="0" result="BackgroundImageFix"/>
<feBlend mode="normal" in="SourceGraphic" in2="BackgroundImageFix" result="shape"/>
<feGaussianBlur stdDeviation="350" result="effect1_foregroundBlur"/>
</filter>
<linearGradient id="paint0_linear" x1="611.613" y1="-391.375" x2="1156.79" y2="-322.651" gradientUnits="userSpaceOnUse">
<stop stop-color="#B294FC"/>
<stop offset="1" stop-color="#86BDFE"/>
</linearGradient>
<linearGradient id="paint1_linear" x1="1204.74" y1="-2091.17" x2="2503.42" y2="-1927.46" gradientUnits="userSpaceOnUse">
<stop stop-color="#B294FC"/>
<stop offset="1" stop-color="#86BDFE"/>
</linearGradient>
<linearGradient id="paint2_linear" x1="-838.596" y1="732.083" x2="981.351" y2="2301.47" gradientUnits="userSpaceOnUse">
<stop stop-color="#B294FC"/>
<stop offset="1" stop-color="#86BDFE"/>
</linearGradient>
</defs>
</svg>
