<svg width="142" height="143" viewBox="0 0 142 143" fill="none" xmlns="http://www.w3.org/2000/svg">
<g clip-path="url(#clip0)">
<path d="M76.2155 10.8789H71.1754V143H76.2155V10.8789Z" fill="#AE7DEB"/>
<path d="M76.2155 135.148H71.1753L59.6488 143H87.6982L76.2155 135.148Z" fill="#874CD0"/>
<path d="M54.0389 32.2412C59.6926 32.2412 64.908 29.4338 68.9401 24.7402H39.1376C43.1697 29.3899 48.3852 32.2412 54.0389 32.2412Z" fill="#313149"/>
<path d="M93.308 32.2412C87.6543 32.2412 82.4389 29.4338 78.4068 24.7402H108.253C104.177 29.3899 99.0056 32.2412 93.308 32.2412Z" fill="#313149"/>
<path d="M23.0531 32.2412C26.4278 32.2412 29.4957 29.4338 31.9062 24.7402H14.2C16.6105 29.3899 19.6784 32.2412 23.0531 32.2412Z" fill="#313149"/>
<path d="M124.294 32.2412C120.919 32.2412 117.851 29.4338 115.441 24.7402H133.147C130.736 29.3899 127.669 32.2412 124.294 32.2412Z" fill="#313149"/>
<path d="M73.6735 0C47.684 0 23.8858 9.29939 5.34692 24.696H142C123.461 9.29939 99.663 0 73.6735 0Z" fill="#B594FC" fill-opacity="0.39"/>
<path d="M73.6735 32.2412C81.5624 32.2412 88.8377 29.4338 94.4476 24.7402H52.8994C58.5531 29.3899 65.7846 32.2412 73.6735 32.2412Z" fill="#D7C7FA"/>
<path d="M37.9982 32.2412C43.6519 32.2412 48.8673 29.4338 52.8994 24.7402H23.0531C27.129 29.3899 32.3006 32.2412 37.9982 32.2412Z" fill="url(#paint0_linear)"/>
<path d="M14.2 32.2412C17.5747 32.2412 20.6426 29.4338 23.0531 24.7402H5.34692C7.75742 29.3899 10.8253 32.2412 14.2 32.2412Z" fill="#D7C7FA"/>
<path d="M109.349 32.2412C103.695 32.2412 98.4797 29.4338 94.4476 24.7402H124.294C120.262 29.3899 115.046 32.2412 109.349 32.2412Z" fill="url(#paint1_linear)"/>
<path d="M133.147 32.2412C129.772 32.2412 126.704 29.4338 124.294 24.7402H142C139.589 29.3899 136.522 32.2412 133.147 32.2412Z" fill="#D7C7FA"/>
<path d="M73.6735 0C54.4333 0 36.771 9.29939 23.0531 24.696H124.294C110.576 9.29939 92.9136 0 73.6735 0Z" fill="url(#paint2_linear)"/>
<path d="M73.6735 0C65.7846 0 58.5093 9.29939 52.8994 24.696H94.4476C88.8377 9.29939 81.5624 0 73.6735 0Z" fill="white"/>
<path d="M89.758 114.049L101.548 79.0883C102.205 77.0705 104.09 75.7984 106.106 75.8423H78.1C75.9525 75.6668 73.9364 76.9389 73.2352 79.0883L61.4457 114.049H71.5259H89.758Z" fill="#F4D071"/>
<path d="M31.7747 118.83C31.7747 116.198 33.9222 114.049 36.5518 114.049H8.2395C5.60987 114.049 3.46234 116.198 3.46234 118.83C3.46234 121.462 5.60987 123.611 8.2395 123.611H36.5518C33.9222 123.611 31.7747 121.462 31.7747 118.83Z" fill="#F4D071"/>
<path d="M58.2902 127.297L65.0395 143.001H69.3346L62.5852 127.297H58.2902Z" fill="#CCCDCD"/>
<path d="M69.3346 143.001H69.5537H73.8488L67.0994 127.297H62.5852L69.3346 143.001Z" fill="#DDDDDD"/>
<path d="M11.0006 127.295L4.29504 142.999H4.51418H8.80924L15.5148 127.295H11.2636H11.0006Z" fill="#CCCDCD"/>
<path d="M84.5864 127.295L91.3358 142.999H95.6309L88.8815 127.295H84.5864Z" fill="#DDDDDD"/>
<path d="M38.9185 123.611H36.5518H34.6235H17.1364H12.8414H12.6222H9.6858H8.32716L6.70556 127.296L0 143H4.29506L11.0006 127.296H11.2636H15.5148H33.0457L26.2963 143H30.5914L37.2969 127.296L38.9185 123.611Z" fill="#DDDDDD"/>
<path d="M93.3957 127.296L91.8179 123.611H87.5229H87.3037H83.0087H65.5216H61.2266H61.0074H56.7124H43.4327H39.1377H38.9185L37.2969 127.296L30.5914 143H30.8105H35.1056L41.8111 127.296H49.3932H58.2901H62.5852H67.0994H71.7889H84.5864H88.8815L95.6309 143H95.85H100.145L93.3957 127.296Z" fill="#BDBDBD"/>
<path d="M107.596 76.1061C107.114 75.9306 106.632 75.8429 106.106 75.8429C104.09 75.799 102.205 77.0711 101.548 79.0889L89.7581 114.049H71.526H61.4457H36.5519C33.9223 114.049 31.7747 116.199 31.7747 118.831C31.7747 121.463 33.9223 123.612 36.5519 123.612H64.8642H93.1766C95.2365 123.612 97.0334 122.296 97.6908 120.366L110.576 82.1595C111.453 79.6592 110.094 76.9395 107.596 76.1061Z" fill="#ECA85E"/>
<path d="M115.704 135.544H96.5512V131.465H115.704V135.544Z" fill="url(#paint3_linear)"/>
<path d="M96.5512 135.324C96.5512 135.456 96.6827 135.588 96.8142 135.588H115.441C115.572 135.588 115.704 135.456 115.704 135.324V133.877H96.5512V135.324Z" fill="url(#paint4_linear)"/>
<path d="M98.9179 131.465H98.2605V135.544H98.9179V131.465Z" fill="#313149" stroke="#313149" stroke-width="0.25" stroke-miterlimit="10"/>
<path d="M100.057 131.465H99.4V135.544H100.057V131.465Z" fill="#313149" stroke="#313149" stroke-width="0.25" stroke-miterlimit="10"/>
<path d="M112.767 131.465H112.11V135.544H112.767V131.465Z" fill="#313149" stroke="#313149" stroke-width="0.25" stroke-miterlimit="10"/>
<path d="M113.907 131.465H113.249V135.544H113.907V131.465Z" fill="#313149" stroke="#313149" stroke-width="0.25" stroke-miterlimit="10"/>
<path d="M116.449 137.957H95.8068V142.344H116.449V137.957Z" fill="url(#paint5_linear)"/>
<path d="M95.8062 142.036C95.8062 142.168 95.9376 142.299 96.0691 142.299H116.142C116.273 142.299 116.405 142.168 116.405 142.036V140.457H95.7623V142.036H95.8062Z" fill="#313149" stroke="#313149" stroke-width="0.25" stroke-miterlimit="10"/>
<path d="M117.764 135.543H94.4475V137.912H117.764V135.543Z" fill="#F4D071"/>
<path d="M94.4475 137.781C94.4475 137.868 94.579 137.912 94.7543 137.912H117.457C117.632 137.912 117.764 137.825 117.764 137.781V136.947H94.4475V137.781Z" fill="#ECA85E"/>
</g>
<defs>
<linearGradient id="paint0_linear" x1="37.9762" y1="24.7402" x2="36.5747" y2="36.9752" gradientUnits="userSpaceOnUse">
<stop stop-color="#BE6CFD"/>
<stop offset="1" stop-color="#7367FF"/>
</linearGradient>
<linearGradient id="paint1_linear" x1="109.371" y1="24.7402" x2="107.969" y2="36.9752" gradientUnits="userSpaceOnUse">
<stop stop-color="#BE6CFD"/>
<stop offset="1" stop-color="#7367FF"/>
</linearGradient>
<linearGradient id="paint2_linear" x1="73.6735" y1="-4.59009e-07" x2="69.1913" y2="40.3127" gradientUnits="userSpaceOnUse">
<stop stop-color="#BE6CFD"/>
<stop offset="1" stop-color="#7367FF"/>
</linearGradient>
<linearGradient id="paint3_linear" x1="106.127" y1="131.465" x2="105.479" y2="138.143" gradientUnits="userSpaceOnUse">
<stop stop-color="#BE6CFD"/>
<stop offset="1" stop-color="#7367FF"/>
</linearGradient>
<linearGradient id="paint4_linear" x1="93.2415" y1="130.001" x2="105.904" y2="147.872" gradientUnits="userSpaceOnUse">
<stop stop-color="#FA94FC"/>
<stop offset="0.703125" stop-color="#8692FE"/>
</linearGradient>
<linearGradient id="paint5_linear" x1="92.2395" y1="128.019" x2="122.442" y2="145.936" gradientUnits="userSpaceOnUse">
<stop stop-color="#FA94FC"/>
<stop offset="1" stop-color="#86BDFE"/>
</linearGradient>
<clipPath id="clip0">
<rect width="142" height="143" fill="white"/>
</clipPath>
</defs>
</svg>
